<svg width="25" height="24" viewBox="0 0 25 24" fill="none" xmlns="http://www.w3.org/2000/svg">
<g clip-path="url(#clip0_205_1052)">
<mask id="path-1-inside-1_205_1052" fill="white">
<path d="M7.78578 2.78571C7.53252 2.78571 7.28174 2.83559 7.04775 2.93251C6.81377 3.02943 6.60116 3.17149 6.42208 3.35057C6.24299 3.52966 6.10094 3.74226 6.00402 3.97625C5.9071 4.21023 5.85721 4.46101 5.85721 4.71428C5.85721 4.96754 5.9071 5.21833 6.00402 5.45231C6.10094 5.6863 6.24299 5.8989 6.42208 6.07798C6.60116 6.25707 6.81377 6.39913 7.04775 6.49605C7.28174 6.59297 7.53252 6.64285 7.78578 6.64285C8.29727 6.64285 8.78781 6.43966 9.14949 6.07798C9.51117 5.71631 9.71436 5.22577 9.71436 4.71428C9.71436 4.20279 9.51117 3.71225 9.14949 3.35057C8.78781 2.98889 8.29727 2.78571 7.78578 2.78571ZM4.5715 4.71428C4.5715 3.8618 4.91015 3.04423 5.51294 2.44143C6.11574 1.83864 6.9333 1.49999 7.78578 1.49999C8.63827 1.49999 9.45583 1.83864 10.0586 2.44143C10.6614 3.04423 11.0001 3.8618 11.0001 4.71428C11.0001 5.56676 10.6614 6.38433 10.0586 6.98712C9.45583 7.58992 8.63827 7.92856 7.78578 7.92856C6.9333 7.92856 6.11574 7.58992 5.51294 6.98712C4.91015 6.38433 4.5715 5.56676 4.5715 4.71428ZM2.21436 10.9131C2.21436 9.97456 2.97464 9.21428 3.91321 9.21428H8.71321C8.55024 9.62464 8.45584 10.059 8.43378 10.5H3.91321C3.85889 10.4998 3.80507 10.5103 3.75484 10.531C3.70461 10.5517 3.65898 10.5821 3.62057 10.6205C3.58216 10.6589 3.55174 10.7045 3.53106 10.7548C3.51037 10.805 3.49984 10.8588 3.50007 10.9131V11.25C3.50007 11.3974 3.50178 12.2897 4.02036 13.1331C4.46607 13.8566 5.35236 14.6409 7.23721 14.7677C6.8016 15.0512 6.46211 15.46 6.2635 15.9403C4.54493 15.6223 3.51464 14.7643 2.92578 13.806C2.21436 12.6514 2.21436 11.4583 2.21436 11.2526V10.9131ZM16.2861 9.21428C16.4455 9.61542 16.5432 10.0483 16.5655 10.5H21.0869C21.3149 10.5 21.5001 10.6851 21.5001 10.9131V11.25C21.5001 11.3674 21.4984 11.9571 21.2369 12.6171C21.6209 12.8354 21.9775 13.0891 22.3066 13.3783C22.619 12.7127 22.7826 11.987 22.7858 11.2517V10.9131C22.786 10.69 22.7422 10.469 22.6569 10.2627C22.5716 10.0565 22.4465 9.86916 22.2887 9.71136C22.1309 9.55356 21.9435 9.42843 21.7373 9.34314C21.5311 9.25784 21.3101 9.21405 21.0869 9.21428H16.2861ZM15.7144 10.7143C15.7144 11.3588 15.5249 11.9588 15.1984 12.4628C14.5239 12.8 13.914 13.2532 13.3966 13.8017C12.749 13.9898 12.0585 13.9695 11.4231 13.7435C10.7876 13.5175 10.2394 13.0974 9.85589 12.5425C9.47242 11.9877 9.27319 11.3263 9.2864 10.652C9.29961 9.97772 9.52459 9.32465 9.9295 8.78528C10.3344 8.24591 10.8987 7.84757 11.5425 7.64665C12.1863 7.44573 12.877 7.45242 13.5169 7.66577C14.1567 7.87911 14.7131 8.28831 15.1075 8.83542C15.5019 9.38253 15.7142 10.0398 15.7144 10.7143ZM8.6275 15.2143H13.01C12.7943 15.6233 12.6233 16.0543 12.5 16.5H8.6275C8.57318 16.4998 8.51935 16.5103 8.46913 16.531C8.4189 16.5517 8.37327 16.5821 8.33486 16.6205C8.29645 16.6589 8.26602 16.7045 8.24534 16.7548C8.22466 16.805 8.21413 16.8588 8.21436 16.9131V17.25C8.21436 17.3974 8.21607 18.2897 8.73464 19.1331C9.1975 19.8849 10.96 20.7017 13 20.7789C13.1997 21.2374 13.4509 21.6677 13.7457 22.062C13.6091 22.0683 12.6441 22.0714 12.5001 22.0714C9.83778 22.0714 8.38578 21.0189 7.64007 19.8069C6.92864 18.6506 6.92864 17.4583 6.92864 17.2517V16.9131C6.92864 15.9746 7.68893 15.2143 8.6275 15.2143ZM17.2144 2.78571C16.9611 2.78571 16.7103 2.83559 16.4763 2.93251C16.2423 3.02943 16.0297 3.17149 15.8506 3.35057C15.6716 3.52966 15.5295 3.74226 15.4326 3.97625C15.3357 4.21023 15.2858 4.46101 15.2858 4.71428C15.2858 4.96754 15.3357 5.21833 15.4326 5.45231C15.5295 5.6863 15.6716 5.8989 15.8506 6.07798C16.0297 6.25707 16.2423 6.39913 16.4763 6.49605C16.7103 6.59297 16.9611 6.64285 17.2144 6.64285C17.7258 6.64285 18.2164 6.43966 18.5781 6.07798C18.9397 5.71631 19.1429 5.22577 19.1429 4.71428C19.1429 4.20279 18.9397 3.71225 18.5781 3.35057C18.2164 2.98889 17.7258 2.78571 17.2144 2.78571ZM14.0001 4.71428C14.0001 3.8618 14.3387 3.04423 14.9415 2.44143C15.5443 1.83864 16.3619 1.49999 17.2144 1.49999C18.0668 1.49999 18.8844 1.83864 19.4872 2.44143C20.09 3.04423 20.4286 3.8618 20.4286 4.71428C20.4286 5.56676 20.09 6.38433 19.4872 6.98712C18.8844 7.58992 18.0668 7.92856 17.2144 7.92856C16.3619 7.92856 15.5443 7.58992 14.9415 6.98712C14.3387 6.38433 14.0001 5.56676 14.0001 4.71428ZM10.5715 10.7143C10.5715 10.9675 10.6214 11.2183 10.7183 11.4523C10.8152 11.6863 10.9573 11.8989 11.1364 12.078C11.3154 12.2571 11.5281 12.3991 11.762 12.496C11.996 12.593 12.2468 12.6428 12.5001 12.6428C12.7533 12.6428 13.0041 12.593 13.2381 12.496C13.4721 12.3991 13.6847 12.2571 13.8638 12.078C14.0429 11.8989 14.1849 11.6863 14.2818 11.4523C14.3788 11.2183 14.4286 10.9675 14.4286 10.7143C14.4286 10.2028 14.2255 9.71225 13.8638 9.35057C13.5021 8.9889 13.0116 8.78571 12.5001 8.78571C11.9886 8.78571 11.498 8.9889 11.1364 9.35057C10.7747 9.71225 10.5715 10.2028 10.5715 10.7143ZM52.5 30.5C52.5 31.9776 34.5448 20.9011 33.5 21.9459C32.4552 22.9907 32.4776 22.5 31 22.5C29.5224 22.5 38.0448 23.5448 37 22.5C35.9552 21.4551 35.5 25.9776 35.5 24.5C35.5 23.0224 31.5859 22.6877 32.6307 21.6428C33.6756 20.598 33.5 16.8881 33.5 16.531C33.5 16.1738 62.9552 33.7209 64 34.7657C65.0448 35.8106 52.5 29.0224 52.5 30.5ZM49.5 30.5C49.5 30.3863 52.0804 28.8548 52 28.7744C51.9196 28.694 114.928 50.1428 83.5 40C115.928 53.4297 45.5804 24.4196 45.5 24.5C45.4196 24.5804 78.8571 45.7143 48 29L59 34.018L99 40C98.8863 40 84.1601 44.5888 52 36.5C84.1601 46.5888 101.286 44.2857 62.5 36.5C62.5 36.6137 44.4196 23.4196 44.5 23.5C44.5804 23.5804 83.8571 47.5218 48 32L64.5 39.5L54.2388 31.5C54.2388 31.6137 54.4196 36.4196 54.5 36.5C54.5804 36.5804 96.5972 52.4286 59.6687 34.5C98.5972 47.9286 84.4196 36.5804 84.5 36.5C84.5804 36.4196 49 31.1137 49 31L68.8599 34.5L65.5 33.5678C65.6137 33.5678 67.4196 37.1799 67.5 37.0996C67.5804 37.0192 64.5 34.6137 64.5 34.5C111.431 58.7857 109.197 59.0442 65 36.2943C101.959 55.4827 58.1137 36 58 36L46 21.6428L49.5 30.5Z"/>
</mask>
<path d="M7.78578 2.78571C7.53252 2.78571 7.28174 2.83559 7.04775 2.93251C6.81377 3.02943 6.60116 3.17149 6.42208 3.35057C6.24299 3.52966 6.10094 3.74226 6.00402 3.97625C5.9071 4.21023 5.85721 4.46101 5.85721 4.71428C5.85721 4.96754 5.9071 5.21833 6.00402 5.45231C6.10094 5.6863 6.24299 5.8989 6.42208 6.07798C6.60116 6.25707 6.81377 6.39913 7.04775 6.49605C7.28174 6.59297 7.53252 6.64285 7.78578 6.64285C8.29727 6.64285 8.78781 6.43966 9.14949 6.07798C9.51117 5.71631 9.71436 5.22577 9.71436 4.71428C9.71436 4.20279 9.51117 3.71225 9.14949 3.35057C8.78781 2.98889 8.29727 2.78571 7.78578 2.78571ZM4.5715 4.71428C4.5715 3.8618 4.91015 3.04423 5.51294 2.44143C6.11574 1.83864 6.9333 1.49999 7.78578 1.49999C8.63827 1.49999 9.45583 1.83864 10.0586 2.44143C10.6614 3.04423 11.0001 3.8618 11.0001 4.71428C11.0001 5.56676 10.6614 6.38433 10.0586 6.98712C9.45583 7.58992 8.63827 7.92856 7.78578 7.92856C6.9333 7.92856 6.11574 7.58992 5.51294 6.98712C4.91015 6.38433 4.5715 5.56676 4.5715 4.71428ZM2.21436 10.9131C2.21436 9.97456 2.97464 9.21428 3.91321 9.21428H8.71321C8.55024 9.62464 8.45584 10.059 8.43378 10.5H3.91321C3.85889 10.4998 3.80507 10.5103 3.75484 10.531C3.70461 10.5517 3.65898 10.5821 3.62057 10.6205C3.58216 10.6589 3.55174 10.7045 3.53106 10.7548C3.51037 10.805 3.49984 10.8588 3.50007 10.9131V11.25C3.50007 11.3974 3.50178 12.2897 4.02036 13.1331C4.46607 13.8566 5.35236 14.6409 7.23721 14.7677C6.8016 15.0512 6.46211 15.46 6.2635 15.9403C4.54493 15.6223 3.51464 14.7643 2.92578 13.806C2.21436 12.6514 2.21436 11.4583 2.21436 11.2526V10.9131ZM16.2861 9.21428C16.4455 9.61542 16.5432 10.0483 16.5655 10.5H21.0869C21.3149 10.5 21.5001 10.6851 21.5001 10.9131V11.25C21.5001 11.3674 21.4984 11.9571 21.2369 12.6171C21.6209 12.8354 21.9775 13.0891 22.3066 13.3783C22.619 12.7127 22.7826 11.987 22.7858 11.2517V10.9131C22.786 10.69 22.7422 10.469 22.6569 10.2627C22.5716 10.0565 22.4465 9.86916 22.2887 9.71136C22.1309 9.55356 21.9435 9.42843 21.7373 9.34314C21.5311 9.25784 21.3101 9.21405 21.0869 9.21428H16.2861ZM15.7144 10.7143C15.7144 11.3588 15.5249 11.9588 15.1984 12.4628C14.5239 12.8 13.914 13.2532 13.3966 13.8017C12.749 13.9898 12.0585 13.9695 11.4231 13.7435C10.7876 13.5175 10.2394 13.0974 9.85589 12.5425C9.47242 11.9877 9.27319 11.3263 9.2864 10.652C9.29961 9.97772 9.52459 9.32465 9.9295 8.78528C10.3344 8.24591 10.8987 7.84757 11.5425 7.64665C12.1863 7.44573 12.877 7.45242 13.5169 7.66577C14.1567 7.87911 14.7131 8.28831 15.1075 8.83542C15.5019 9.38253 15.7142 10.0398 15.7144 10.7143ZM8.6275 15.2143H13.01C12.7943 15.6233 12.6233 16.0543 12.5 16.5H8.6275C8.57318 16.4998 8.51935 16.5103 8.46913 16.531C8.4189 16.5517 8.37327 16.5821 8.33486 16.6205C8.29645 16.6589 8.26602 16.7045 8.24534 16.7548C8.22466 16.805 8.21413 16.8588 8.21436 16.9131V17.25C8.21436 17.3974 8.21607 18.2897 8.73464 19.1331C9.1975 19.8849 10.96 20.7017 13 20.7789C13.1997 21.2374 13.4509 21.6677 13.7457 22.062C13.6091 22.0683 12.6441 22.0714 12.5001 22.0714C9.83778 22.0714 8.38578 21.0189 7.64007 19.8069C6.92864 18.6506 6.92864 17.4583 6.92864 17.2517V16.9131C6.92864 15.9746 7.68893 15.2143 8.6275 15.2143ZM17.2144 2.78571C16.9611 2.78571 16.7103 2.83559 16.4763 2.93251C16.2423 3.02943 16.0297 3.17149 15.8506 3.35057C15.6716 3.52966 15.5295 3.74226 15.4326 3.97625C15.3357 4.21023 15.2858 4.46101 15.2858 4.71428C15.2858 4.96754 15.3357 5.21833 15.4326 5.45231C15.5295 5.6863 15.6716 5.8989 15.8506 6.07798C16.0297 6.25707 16.2423 6.39913 16.4763 6.49605C16.7103 6.59297 16.9611 6.64285 17.2144 6.64285C17.7258 6.64285 18.2164 6.43966 18.5781 6.07798C18.9397 5.71631 19.1429 5.22577 19.1429 4.71428C19.1429 4.20279 18.9397 3.71225 18.5781 3.35057C18.2164 2.98889 17.7258 2.78571 17.2144 2.78571ZM14.0001 4.71428C14.0001 3.8618 14.3387 3.04423 14.9415 2.44143C15.5443 1.83864 16.3619 1.49999 17.2144 1.49999C18.0668 1.49999 18.8844 1.83864 19.4872 2.44143C20.09 3.04423 20.4286 3.8618 20.4286 4.71428C20.4286 5.56676 20.09 6.38433 19.4872 6.98712C18.8844 7.58992 18.0668 7.92856 17.2144 7.92856C16.3619 7.92856 15.5443 7.58992 14.9415 6.98712C14.3387 6.38433 14.0001 5.56676 14.0001 4.71428ZM10.5715 10.7143C10.5715 10.9675 10.6214 11.2183 10.7183 11.4523C10.8152 11.6863 10.9573 11.8989 11.1364 12.078C11.3154 12.2571 11.5281 12.3991 11.762 12.496C11.996 12.593 12.2468 12.6428 12.5001 12.6428C12.7533 12.6428 13.0041 12.593 13.2381 12.496C13.4721 12.3991 13.6847 12.2571 13.8638 12.078C14.0429 11.8989 14.1849 11.6863 14.2818 11.4523C14.3788 11.2183 14.4286 10.9675 14.4286 10.7143C14.4286 10.2028 14.2255 9.71225 13.8638 9.35057C13.5021 8.9889 13.0116 8.78571 12.5001 8.78571C11.9886 8.78571 11.498 8.9889 11.1364 9.35057C10.7747 9.71225 10.5715 10.2028 10.5715 10.7143ZM52.5 30.5C52.5 31.9776 34.5448 20.9011 33.5 21.9459C32.4552 22.9907 32.4776 22.5 31 22.5C29.5224 22.5 38.0448 23.5448 37 22.5C35.9552 21.4551 35.5 25.9776 35.5 24.5C35.5 23.0224 31.5859 22.6877 32.6307 21.6428C33.6756 20.598 33.5 16.8881 33.5 16.531C33.5 16.1738 62.9552 33.7209 64 34.7657C65.0448 35.8106 52.5 29.0224 52.5 30.5ZM49.5 30.5C49.5 30.3863 52.0804 28.8548 52 28.7744C51.9196 28.694 114.928 50.1428 83.5 40C115.928 53.4297 45.5804 24.4196 45.5 24.5C45.4196 24.5804 78.8571 45.7143 48 29L59 34.018L99 40C98.8863 40 84.1601 44.5888 52 36.5C84.1601 46.5888 101.286 44.2857 62.5 36.5C62.5 36.6137 44.4196 23.4196 44.5 23.5C44.5804 23.5804 83.8571 47.5218 48 32L64.5 39.5L54.2388 31.5C54.2388 31.6137 54.4196 36.4196 54.5 36.5C54.5804 36.5804 96.5972 52.4286 59.6687 34.5C98.5972 47.9286 84.4196 36.5804 84.5 36.5C84.5804 36.4196 49 31.1137 49 31L68.8599 34.5L65.5 33.5678C65.6137 33.5678 67.4196 37.1799 67.5 37.0996C67.5804 37.0192 64.5 34.6137 64.5 34.5C111.431 58.7857 109.197 59.0442 65 36.2943C101.959 55.4827 58.1137 36 58 36L46 21.6428L49.5 30.5Z" fill="#EDEDF5" stroke="#48494D" stroke-width="2" mask="url(#path-1-inside-1_205_1052)"/>
<path d="M16.5 17.6H19.7" stroke="#48494D" stroke-linecap="round" stroke-linejoin="round"/>
<path d="M18.1001 19.2V16" stroke="#48494D" stroke-linecap="round" stroke-linejoin="round"/>
<path d="M16.95 21.5H19.05C19.9743 21.5 20.7514 21.3182 21.2848 20.7848C21.8182 20.2514 22 19.4743 22 18.55V16.45C22 15.5257 21.8182 14.7486 21.2848 14.2152C20.7514 13.6818 19.9743 13.5 19.05 13.5H16.95C16.0257 13.5 15.2486 13.6818 14.7152 14.2152C14.1818 14.7486 14 15.5257 14 16.45V18.55C14 19.4743 14.1818 20.2514 14.7152 20.7848C15.2486 21.3182 16.0257 21.5 16.95 21.5Z" stroke="#48494D" stroke-linecap="round" stroke-linejoin="round"/>
</g>
<defs>
<clipPath id="clip0_205_1052">
<rect width="24" height="24" fill="white" transform="translate(0.5)"/>
</clipPath>
</defs>
</svg>
