<svg width="18" height="20" viewBox="0 0 18 20" fill="none" xmlns="http://www.w3.org/2000/svg">
  <path d="M4.5 15.55C4.5 15.55 5.2515 12.4667 6 12.4667C6.7485 12.4667 7.605 15.55 8.25 15.55C8.895 15.55 9.0525 14.3167 9.75 14.3167C10.4475 14.3167 10.596 15.55 11.25 15.55C11.904 15.55 13.5 14.3167 13.5 14.3167M4.5 3.88269H13.5M4.5 6.60836H13.5M4.5 9.38336H13.5" 
    stroke="currentColor" stroke-width="1.5" stroke-linecap="round" stroke-linejoin="round"/>
  <path d="M15 0.75H3C1.75736 0.75 0.75 1.57827 0.75 2.6V17.4C0.75 18.4217 1.75736 19.25 3 19.25H15C16.2426 19.25 17.25 18.4217 17.25 17.4V2.6C17.25 1.57827 16.2426 0.75 15 0.75Z" 
    stroke="currentColor" stroke-width="1.5"/>
</svg>
