<svg width="40" height="40" viewBox="0 0 40 40" fill="none" xmlns="http://www.w3.org/2000/svg">
  <path 
    d="M5.26171 18.3333C3.77258 20.6112 3.11279 23.3322 3.39316 26.0392C3.67353 28.7462 4.877 31.2742 6.80137 33.1986C8.72574 35.123 11.2538 36.3264 13.9608 36.6068C16.6678 36.8872 19.3888 36.2274 21.6667 34.7383M23.3334 29.9999C26.8696 29.9999 30.261 28.5952 32.7615 26.0947C35.262 23.5942 36.6667 20.2028 36.6667 16.6666C36.6667 13.1304 35.262 9.73898 32.7615 7.2385C30.261 4.73801 26.8696 3.33325 23.3334 3.33325C19.7972 3.33325 16.4058 4.73801 13.9053 7.2385C11.4048 9.73898 10 13.1304 10 16.6666C10 20.2028 11.4048 23.5942 13.9053 26.0947C16.4058 28.5952 19.7972 29.9999 23.3334 29.9999Z" 
    stroke="currentColor" 
    stroke-width="3" 
    stroke-linecap="round" 
    stroke-linejoin="round"
  />
  <path 
    d="M26.2856 13.6749C25.9256 12.1549 24.0922 10.7833 21.8906 11.8083C19.6889 12.8349 19.3389 16.1383 22.6689 16.4883C24.1739 16.6466 25.1556 16.3049 26.0522 17.2733C26.9522 18.2416 27.1189 20.9366 24.8222 21.6633C22.5256 22.3899 20.2522 21.2549 20.0039 19.6433M23.3106 10.0066V11.4566M23.3106 21.8866V23.3399" 
    stroke="currentColor" 
    stroke-width="2" 
    stroke-linecap="round" 
    stroke-linejoin="round"
  />
</svg>
