<svg width="24" height="24" viewBox="0 0 24 24" fill="none" xmlns="http://www.w3.org/2000/svg">
  <path d="M8.74994 12.81V11.6029L7.89639 12.4564L7.17639 13.1764L7.52994 13.53L7.17639 13.1764C7.08165 13.2712 6.91823 13.2712 6.82349 13.1764C6.72876 13.0817 6.72876 12.9183 6.82349 12.8235L8.8235 10.8235C8.89301 10.754 9.00616 10.7324 9.09298 10.7696L9.1 10.7726L9.10712 10.7754C9.18463 10.8058 9.24994 10.8933 9.24994 11V17C9.24994 17.1338 9.1338 17.25 8.99994 17.25C8.86608 17.25 8.74994 17.1338 8.74994 17V12.81Z" stroke="currentColor"/>
  <path d="M10.9999 13.2499C10.9354 13.2499 10.8748 13.2277 10.8235 13.1764L8.82349 11.1764C8.72876 11.0816 8.72876 10.9182 8.82349 10.8235C8.91823 10.7288 9.08165 10.7288 9.17639 10.8235L11.1764 12.8235C11.2711 12.9182 11.2711 13.0816 11.1764 13.1764C11.1251 13.2277 11.0645 13.2499 10.9999 13.2499Z" fill="#EDEDF5" stroke="currentColor"/>
  <path d="M15 22.25H9C6.3424 22.25 4.56492 21.6803 3.4423 20.5577C2.31968 19.4351 1.75 17.6576 1.75 15V9C1.75 6.3424 2.31968 4.56492 3.4423 3.4423C4.56492 2.31968 6.3424 1.75 9 1.75H14C14.1339 1.75 14.25 1.86614 14.25 2C14.25 2.13386 14.1339 2.25 14 2.25H9C6.65972 2.25 4.92432 2.66107 3.7927 3.7927C2.66107 4.92432 2.25 6.65972 2.25 9V15C2.25 17.3403 2.66107 19.0757 3.7927 20.2073C4.92432 21.3389 6.65972 21.75 9 21.75H15C17.3403 21.75 19.0757 21.3389 20.2073 20.2073C21.3389 19.0757 21.75 17.3403 21.75 15V10C21.75 9.86614 21.8661 9.75 22 9.75C22.1339 9.75 22.25 9.86614 22.25 10V15C22.25 17.6576 21.6803 19.4351 20.5577 20.5577C19.4351 21.6803 17.6576 22.25 15 22.25Z" fill="#EDEDF5" stroke="currentColor"/>
  <path d="M13.8928 1.77536L13.8999 1.77257L13.907 1.76956C13.9871 1.7352 14.0949 1.74812 14.1815 1.82858L22.1764 9.82354C22.246 9.89306 22.2676 10.0062 22.2304 10.093C22.1876 10.1929 22.096 10.25 22 10.25H18C16.3359 10.25 15.315 9.92285 14.6961 9.30394C14.0771 8.68502 13.75 7.66409 13.75 5.99999V1.99999C13.75 1.89333 13.8153 1.80582 13.8928 1.77536ZM15.1036 3.45644L14.25 2.60288V3.80999V5.99999C14.25 7.29032 14.4062 8.29827 15.0539 8.94604C15.7017 9.59381 16.7097 9.74999 18 9.74999H20.19H21.3971L20.5436 8.89644L15.1036 3.45644Z" fill="#EDEDF5" stroke="currentColor"/>
</svg>
