<svg width="14" height="14" viewBox="0 0 14 14" fill="none" xmlns="http://www.w3.org/2000/svg">
<path d="M8.45703 0.834961V3.23229C8.45703 3.55696 8.58636 3.86896 8.81703 4.09896C9.04829 4.32921 9.36137 4.45842 9.6877 4.45829H12.4377" stroke="#1D1D1D" stroke-width="1.5" stroke-linecap="round" stroke-linejoin="round"/>
<path d="M4.098 4.09786H6.27467M4.098 6.99986H9.902M4.098 9.90186H9.902M12.5 4.71186V10.4239C12.4868 10.7975 12.3997 11.1648 12.2439 11.5046C12.088 11.8444 11.8665 12.15 11.592 12.4039C11.3173 12.6588 10.995 12.8572 10.6436 12.9876C10.2922 13.118 9.91856 13.1779 9.544 13.1639H4.484C4.10716 13.1811 3.73063 13.1238 3.37598 12.9952C3.02134 12.8666 2.69557 12.6693 2.41733 12.4145C2.14018 12.16 1.91636 11.853 1.75888 11.5113C1.60141 11.1695 1.51341 10.7999 1.5 10.4239V3.57452C1.51324 3.20091 1.60028 2.8336 1.75612 2.49378C1.91196 2.15395 2.13351 1.84833 2.408 1.59452C2.68272 1.33954 3.00499 1.14118 3.35639 1.01077C3.70779 0.880371 4.08144 0.82048 4.456 0.834523H8.26533C8.84685 0.832469 9.40818 1.04763 9.83933 1.43786L11.8127 3.25252C12.0232 3.43391 12.1933 3.65759 12.3117 3.90902C12.4301 4.16045 12.4943 4.43399 12.5 4.71186Z" stroke="#1D1D1D" stroke-width="1.5" stroke-linecap="round" stroke-linejoin="round"/>
</svg>
