<svg width="24" height="24" viewBox="0 0 24 24" fill="none" xmlns="http://www.w3.org/2000/svg">
<path d="M22.0233 10.3332C22.0233 10.7752 21.8477 11.1991 21.5352 11.5117C21.2226 11.8242 20.7987 11.9998 20.3567 11.9998H20.3533L23.69 13.6665C23.69 14.1085 23.5144 14.5325 23.2018 14.845C22.8893 15.1576 22.4654 15.3332 22.0233 15.3332H21.1667L22.19 16.9998C22.19 17.4419 22.0144 17.8658 21.7018 18.1784C21.3893 18.4909 20.9654 18.6665 20.5233 18.6665H18.1667L12 19.3332V10.3052L22.0233 10.3332Z" fill="#EF9645"/>
<path d="M13.1873 3.08347C13.5947 4.00414 13.0487 5.31947 11.7287 6.25014C10.862 6.86147 9.628 7.04147 9.49933 7.84414C9.45067 8.15081 9.708 8.66681 10.4307 8.66681H21C21 8.66681 22.3333 8.66681 22.3333 10.0001C22.3333 11.3335 21 11.3335 21 11.3335H13.2447C13.264 11.3335 13.2873 12.0001 13.2993 12.0001H22.6667C22.6667 12.0001 24 12.0001 24 13.3335C24 14.6668 22.6667 14.6668 22.6667 14.6668H13.298C13.2867 14.6668 13.2707 15.3335 13.252 15.3335H21.1667C21.1667 15.3335 22.5 15.3335 22.5 16.6668C22.5 18.0001 21.1667 18.0001 21.1667 18.0001H12.7413C12.6627 18.0001 12.574 18.6668 12.476 18.6668H18.1667C18.1667 18.6668 19.5 18.6668 19.5 20.0001C19.5 21.3335 18.1667 21.3335 18.1667 21.3335H8C3.582 21.3335 0 17.7515 0 13.3335C0 10.1501 1.732 7.96014 3.528 6.73614C5.05133 5.69814 6.63267 5.39747 7.11067 5.33347C7.11067 5.33347 8.09667 5.25147 9.02067 4.56281C9.90916 3.90552 10.7691 3.21043 11.598 2.47947C11.8373 2.26814 12.736 2.06281 13.1873 3.08347Z" fill="#FFDC5D"/>
</svg>
