<svg width="32" height="32" viewBox="0 0 32 32" fill="none" xmlns="http://www.w3.org/2000/svg">
<path d="M15.9998 21.3333C17.4143 21.3333 18.7709 20.7714 19.7711 19.7712C20.7713 18.771 21.3332 17.4144 21.3332 16C21.3332 14.5855 20.7713 13.2289 19.7711 12.2287C18.7709 11.2285 17.4143 10.6666 15.9998 10.6666C14.5853 10.6666 13.2288 11.2285 12.2286 12.2287C11.2284 13.2289 10.6665 14.5855 10.6665 16C10.6665 17.4144 11.2284 18.771 12.2286 19.7712C13.2288 20.7714 14.5853 21.3333 15.9998 21.3333Z" stroke="#EDEDF5" stroke-width="1.5" stroke-linecap="round" stroke-linejoin="round"/>
<path d="M4 21.3333V10.6667C4 8.89856 4.70238 7.20286 5.95262 5.95262C7.20286 4.70238 8.89856 4 10.6667 4H21.3333C23.1014 4 24.7971 4.70238 26.0474 5.95262C27.2976 7.20286 28 8.89856 28 10.6667V21.3333C28 23.1014 27.2976 24.7971 26.0474 26.0474C24.7971 27.2976 23.1014 28 21.3333 28H10.6667C8.89856 28 7.20286 27.2976 5.95262 26.0474C4.70238 24.7971 4 23.1014 4 21.3333Z" stroke="#EDEDF5" stroke-width="1.5"/>
<path d="M23.3335 8.67995L23.3468 8.66528" stroke="#EDEDF5" stroke-width="1.5" stroke-linecap="round" stroke-linejoin="round"/>
</svg>
