<svg width="56" height="24" viewBox="0 0 57 24" fill="none" xmlns="http://www.w3.org/2000/svg">
<path d="M1.00024 0.666666V8M1.00024 23.3333V8M1.00024 8H9.33358V0.666666V23.3333" stroke="#EDEDF5" stroke-linejoin="bevel"/>
<path d="M48.3335 6.66667H52.3335M56.3335 6.66667H52.3335M52.3335 6.66667V23.8073" stroke="#EDEDF5" stroke-linejoin="round"/>
<path d="M44.3335 6.66667H42.3335C41.2289 6.66667 40.3335 7.5621 40.3335 8.66667V12.3039M40.3335 12.3039H44.3335M40.3335 12.3039V21.3333C40.3335 22.4379 41.2289 23.3333 42.3335 23.3333H44.3335" stroke="#EDEDF5" stroke-linejoin="round"/>
<path d="M29.0002 9.26471V19.2602C29.0002 22.9651 33.6022 24.679 36.0257 21.8768L36.9274 20.8342C38.4196 19.1088 38.1691 16.4868 36.3771 15.0753L29.0002 9.26471ZM29.0002 9.26471V3.47668C29.0002 1.79192 30.452 0.473831 32.129 0.636114V0.636114C34.7069 0.885588 35.6462 4.16358 33.5917 5.74053L29.0002 9.26471Z" stroke="#EDEDF5" stroke-linejoin="round"/>
<path d="M24.0296 19.6667L24.5156 19.5487L24.5129 19.5387L24.0296 19.6667ZM14.3335 19.1667C14.0574 19.1667 13.8335 19.3905 13.8335 19.6667C13.8335 19.9428 14.0574 20.1667 14.3335 20.1667V19.1667ZM21.0031 8.2332L20.5197 8.36115L21.0031 8.2332ZM13.819 23.7863L17.6132 8.38615L16.6422 8.14692L12.848 23.5471L13.819 23.7863ZM20.5197 8.36115L23.5462 19.7946L24.5129 19.5387L21.4864 8.10526L20.5197 8.36115ZM23.5437 19.7846L24.5143 23.7846L25.4861 23.5488L24.5155 19.5488L23.5437 19.7846ZM24.0296 19.1667H14.3335V20.1667H24.0296V19.1667ZM17.6132 8.38615C17.9848 6.87804 20.1223 6.85964 20.5197 8.36115L21.4864 8.10526C20.824 5.60276 17.2615 5.63339 16.6422 8.14692L17.6132 8.38615Z" fill="#EDEDF5"/>
</svg>
