<svg width="24" height="24" viewBox="0 0 24 24" fill="none" xmlns="http://www.w3.org/2000/svg">
<g clip-path="url(#clip0_9_14183)">
<path d="M3.4906 9.90077C2.7992 10.2846 2.20255 10.8135 1.73832 11.4597L1.73832 11.4597C1.09213 12.3592 0.75 13.4179 0.75 14.5199V15.9894C0.75 16.2751 0.840566 16.6107 1.12176 16.9405C1.39906 17.2657 1.8513 17.5734 2.55533 17.8323L2.64161 17.5977L2.55533 17.8323C3.53626 18.193 4.81875 18.3872 6.1661 18.3872C6.3051 18.3872 6.44426 18.385 6.58299 18.3807V18.8522C6.58299 19.1379 6.67355 19.4735 6.95475 19.8033C7.23204 20.1285 7.68428 20.4363 8.38831 20.6952L8.4746 20.4605L8.38832 20.6952C9.36922 21.0558 10.6517 21.25 11.9991 21.25C13.3464 21.25 14.6289 21.0558 15.6098 20.6952C16.3138 20.4363 16.7661 20.1285 17.0434 19.8033C17.3246 19.4735 17.4151 19.1379 17.4151 18.8522V18.3807C17.5545 18.385 17.6943 18.3872 17.8339 18.3872C19.1813 18.3872 20.4637 18.193 21.4447 17.8323C22.1487 17.5734 22.6009 17.2657 22.8782 16.9405C23.1594 16.6107 23.25 16.2751 23.25 15.9893V14.5199C23.25 13.4179 22.9079 12.3591 22.2617 11.4597C21.7974 10.8135 21.2008 10.2846 20.5094 9.90077C20.952 9.25356 21.2136 8.4438 21.2136 7.56917C21.2136 5.49492 19.7275 3.75 17.8339 3.75C15.9403 3.75 14.4542 5.49492 14.4542 7.56917C14.4542 7.65277 14.4566 7.73578 14.4613 7.8181C13.8491 7.08019 12.9785 6.61289 11.9991 6.61289C11.0207 6.61289 10.1509 7.07918 9.53882 7.81571C9.54344 7.73417 9.54578 7.65196 9.54578 7.56917C9.54578 5.49492 8.05973 3.75 6.1661 3.75C4.27245 3.75 2.78639 5.49492 2.78639 7.56917C2.78639 8.4438 3.04804 9.25356 3.4906 9.90077ZM17.8339 4.98236C19.0376 4.98236 20.0714 6.11115 20.0714 7.56917C20.0714 9.02714 19.0376 10.1559 17.8339 10.1559C16.6302 10.1559 15.5964 9.02714 15.5964 7.56917C15.5964 6.11114 16.6302 4.98236 17.8339 4.98236ZM11.9991 7.84525C13.2028 7.84525 14.2366 8.97402 14.2366 10.432C14.2366 11.89 13.2028 13.0188 11.9991 13.0188C10.7954 13.0188 9.76157 11.89 9.76157 10.432C9.76157 8.97402 10.7954 7.84525 11.9991 7.84525ZM6.16611 4.98236C7.36981 4.98236 8.4036 6.11114 8.4036 7.56917C8.4036 9.02714 7.3698 10.1559 6.16611 10.1559C4.96241 10.1559 3.9286 9.02714 3.9286 7.56917C3.9286 6.11115 4.96242 4.98236 6.16611 4.98236ZM6.16611 17.1548C4.9246 17.1548 3.77389 16.9782 2.92501 16.666C2.52939 16.5205 2.25714 16.3635 2.089 16.2256C1.91257 16.081 1.89338 15.9946 1.89226 15.9896C1.89222 15.9894 1.89221 15.9893 1.89221 15.9894V14.5199C1.89221 12.9337 2.87749 11.4757 4.38404 10.8137C4.89969 11.1764 5.51047 11.3883 6.16611 11.3883C6.82174 11.3883 7.43252 11.1764 7.94817 10.8137C8.21132 10.929 8.4609 11.0694 8.69435 11.2331C8.80151 11.7986 9.01986 12.3194 9.32359 12.7636C8.63219 13.1475 8.03555 13.6764 7.57133 14.3226C6.97125 15.1579 6.63338 16.1305 6.58822 17.1476C6.4478 17.1524 6.30685 17.1548 6.16611 17.1548ZM15.2402 19.5289C14.3913 19.841 13.2406 20.0177 11.9991 20.0177C10.7575 20.0177 9.60684 19.841 8.75798 19.5289C8.36236 19.3834 8.09012 19.2263 7.92198 19.0885C7.7455 18.9438 7.72635 18.8574 7.72525 18.8524C7.72521 18.8522 7.72519 18.8522 7.72519 18.8522V17.3828C7.72519 15.7965 8.71045 14.3386 10.217 13.6766C10.7326 14.0393 11.3434 14.2512 11.9991 14.2512C12.6547 14.2512 13.2654 14.0393 13.781 13.6767C15.2871 14.3386 16.273 15.798 16.273 17.3828V18.8522C16.273 18.8522 16.2729 18.8522 16.2729 18.8524C16.2718 18.8574 16.2526 18.9439 16.0762 19.0885C15.908 19.2263 15.6358 19.3834 15.2402 19.5289ZM22.1078 15.9894C22.1078 15.9885 22.0938 16.0759 21.911 16.2257C21.7429 16.3635 21.4706 16.5205 21.075 16.666C20.2261 16.9782 19.0754 17.1548 17.8339 17.1548C17.6926 17.1548 17.5511 17.1524 17.4099 17.1476C17.3649 16.1335 17.0288 15.1634 16.432 14.3297C15.9672 13.6805 15.3686 13.1491 14.6745 12.7637C14.978 12.3199 15.1963 11.7996 15.3036 11.2346C15.5376 11.0702 15.7879 10.9294 16.0519 10.8137C16.5675 11.1764 17.1783 11.3883 17.8339 11.3883C18.4895 11.3883 19.1003 11.1764 19.616 10.8137C21.1225 11.4758 22.1078 12.9337 22.1078 14.5199V15.9894Z" fill="#EDEDF5" stroke="#EDEDF5" stroke-width="0.5"/>
</g>
<defs>
<clipPath id="clip0_9_14183">
<rect width="24" height="24" fill="white"/>
</clipPath>
</defs>
</svg>
