<svg width="24" height="24" viewBox="0 0 24 24" fill="none" xmlns="http://www.w3.org/2000/svg">
<path d="M20.3501 8.92299L19.9841 8.71899L19.8711 8.65499C19.5985 8.49137 19.3688 8.26512 19.2011 7.99499C19.1831 7.96799 19.1671 7.93899 19.1351 7.88299C18.9195 7.53692 18.8148 7.13322 18.8351 6.72599L18.8411 6.30099C18.8531 5.62099 18.8591 5.27899 18.7631 4.97299C18.6781 4.70073 18.536 4.44978 18.3461 4.23699C18.1321 3.99699 17.8351 3.82499 17.2401 3.48299L16.7461 3.19799C16.1541 2.85699 15.8571 2.68599 15.5421 2.62099C15.2638 2.5634 14.9764 2.56579 14.6991 2.62799C14.3861 2.69799 14.0931 2.87399 13.5081 3.22399L13.5051 3.22599L13.1511 3.43699C13.0951 3.47099 13.0661 3.48699 13.0381 3.50299C12.7601 3.65799 12.4501 3.74299 12.1311 3.75299C12.0991 3.75499 12.0661 3.75499 12.0011 3.75499L11.8711 3.75399C11.552 3.74382 11.24 3.65742 10.9611 3.50199C10.9331 3.48699 10.9061 3.46999 10.8501 3.43599L10.4931 3.22199C9.90408 2.86799 9.60908 2.69199 9.29408 2.62099C9.01573 2.55868 8.72728 2.55664 8.44808 2.61499C8.13208 2.68099 7.83608 2.85299 7.24308 3.19699L7.24008 3.19799L6.75208 3.48099L6.74708 3.48499C6.15908 3.82499 5.86408 3.99699 5.65208 4.23599C5.46316 4.44838 5.32168 4.69861 5.23708 4.96999C5.14208 5.27699 5.14708 5.61899 5.15908 6.30299L5.16608 6.72699C5.16608 6.79199 5.16908 6.82399 5.16808 6.85499C5.1629 7.21831 5.05884 7.57335 4.86708 7.88199C4.83408 7.93799 4.81908 7.96599 4.80208 7.99199C4.63347 8.26416 4.40198 8.49187 4.12708 8.65599L4.01508 8.71899L3.65408 8.91899C3.05208 9.25199 2.75108 9.41899 2.53308 9.65699C2.33926 9.86682 2.19264 10.1157 2.10308 10.387C2.00308 10.694 2.00308 11.037 2.00408 11.725L2.00608 12.288C2.00708 12.971 2.00908 13.312 2.11008 13.617C2.19926 13.8866 2.34483 14.134 2.53708 14.343C2.75508 14.579 3.05308 14.745 3.65008 15.077L4.00808 15.276C4.06908 15.31 4.10008 15.326 4.12908 15.344C4.44245 15.5318 4.69838 15.8019 4.86908 16.125L4.93608 16.245C5.10499 16.5639 5.18447 16.9226 5.16608 17.283L5.15908 17.69C5.14708 18.376 5.14208 18.72 5.23808 19.027C5.32308 19.299 5.46508 19.55 5.65508 19.763C5.86908 20.003 6.16708 20.174 6.76108 20.517L7.25508 20.802C7.84808 21.143 8.14408 21.314 8.45908 21.379C8.73738 21.4366 9.02477 21.4342 9.30208 21.372C9.61608 21.302 9.90908 21.126 10.4961 20.774L10.8501 20.562L10.9631 20.496C11.2411 20.342 11.5511 20.256 11.8701 20.246L12.0001 20.245H12.1301C12.4481 20.255 12.7601 20.342 13.0401 20.497L13.1321 20.552L13.5081 20.778C14.0981 21.132 14.3921 21.308 14.7071 21.378C14.9853 21.441 15.2737 21.4437 15.5531 21.386C15.8681 21.32 16.1661 21.147 16.7591 20.803L17.2541 20.516C17.8421 20.174 18.1371 20.003 18.3491 19.764C18.5391 19.551 18.6791 19.301 18.7641 19.03C18.8591 18.725 18.8541 18.386 18.8421 17.712L18.8341 17.272V17.145C18.8388 16.7814 18.9425 16.426 19.1341 16.117L19.1991 16.007C19.3677 15.7348 19.5992 15.5071 19.8741 15.343L19.9841 15.282L19.9861 15.281L20.3471 15.081C20.9491 14.747 21.2501 14.581 21.4691 14.343C21.6631 14.133 21.8091 13.883 21.8981 13.613C21.9981 13.308 21.9981 12.966 21.9961 12.286L21.9941 11.712C21.9931 11.029 21.9921 10.687 21.8911 10.382C21.8015 10.1127 21.6556 9.86555 21.4631 9.65699C21.2461 9.42099 20.9481 9.25499 20.3521 8.92399L20.3501 8.92299Z" stroke="#EDEDF5" stroke-width="2" stroke-linecap="round" stroke-linejoin="round"/>
<path d="M8 12C8 13.0609 8.42143 14.0783 9.17157 14.8284C9.92172 15.5786 10.9391 16 12 16C13.0609 16 14.0783 15.5786 14.8284 14.8284C15.5786 14.0783 16 13.0609 16 12C16 10.9391 15.5786 9.92172 14.8284 9.17157C14.0783 8.42143 13.0609 8 12 8C10.9391 8 9.92172 8.42143 9.17157 9.17157C8.42143 9.92172 8 10.9391 8 12Z" stroke="#EDEDF5" stroke-width="2" stroke-linecap="round" stroke-linejoin="round"/>
</svg>
