<svg width="24" height="24" viewBox="0 0 24 24" fill="none" xmlns="http://www.w3.org/2000/svg">
<path d="M9.19539 15.5023L9.54894 15.8583L9.90373 15.5036L18.3787 7.02855C18.4913 6.91601 18.5998 6.875 18.7252 6.875C18.8506 6.875 18.9591 6.91601 19.0716 7.02855C19.1807 7.13765 19.2252 7.24927 19.2252 7.388C19.2252 7.52668 19.1808 7.63765 19.0722 7.74586L19.0711 7.74693L9.89663 16.9464C9.89659 16.9465 9.89655 16.9465 9.89651 16.9466C9.784 17.059 9.67552 17.1 9.55018 17.1C9.42479 17.1 9.31628 17.059 9.20373 16.9464L4.90373 12.6464L4.55238 12.9978L4.90373 12.6464C4.79785 12.5406 4.75811 12.4351 4.76197 12.3026C4.76612 12.16 4.815 12.0423 4.92873 11.9286C5.03883 11.8185 5.15019 11.7747 5.28697 11.775C5.42531 11.7753 5.53716 11.8198 5.64641 11.9283C5.64668 11.9286 5.64695 11.9289 5.64722 11.9291L9.19539 15.5023Z" stroke="#1D1D1D"/>
</svg>
