<svg width="32" height="32" viewBox="0 0 32 32" fill="none" xmlns="http://www.w3.org/2000/svg">
<path d="M14.6034 26.9609C15.0495 27.2731 15.6015 27.3953 16.1377 27.3006C16.674 27.2059 17.1507 26.9021 17.4629 26.456C17.571 26.3014 17.6133 26.1103 17.5804 25.9246C17.5476 25.7389 17.4423 25.5738 17.2878 25.4657L15.6434 23.7333L19.3963 26.36C19.5396 26.4607 19.7014 26.5321 19.8724 26.5702C20.0435 26.6082 20.2203 26.6121 20.3928 26.5816C20.5654 26.5512 20.7302 26.4869 20.8778 26.3926C21.0254 26.2983 21.153 26.1757 21.2532 26.032C21.3535 25.8885 21.4247 25.7267 21.4625 25.5557C21.5004 25.3848 21.5042 25.208 21.4737 25.0356C21.4433 24.8632 21.3792 24.6984 21.285 24.5508C21.1909 24.4031 21.0686 24.2755 20.9252 24.1751L17.7287 21.2373L22.5065 24.5822C22.6498 24.6829 22.8117 24.7544 22.9827 24.7924C23.1537 24.8304 23.3305 24.8343 23.5031 24.8039C23.6756 24.7734 23.8404 24.7091 23.988 24.6148C24.1357 24.5205 24.2632 24.3979 24.3634 24.2542C24.4638 24.1107 24.5349 23.9489 24.5728 23.7779C24.6106 23.607 24.6144 23.4302 24.584 23.2578C24.5535 23.0854 24.4894 22.9206 24.3953 22.773C24.3011 22.6254 24.1788 22.4977 24.0354 22.3973L19.7989 18.7769L25.0114 22.4257C25.1547 22.5265 25.3165 22.5979 25.4876 22.636C25.6586 22.674 25.8354 22.6779 26.0079 22.6474C26.1805 22.6169 26.3453 22.5527 26.4929 22.4584C26.6406 22.364 26.7681 22.2415 26.8683 22.0978C26.9687 21.9543 27.0398 21.7925 27.0777 21.6215C27.1155 21.4505 27.1193 21.2738 27.0888 21.1014C27.0584 20.9289 26.9943 20.7642 26.9001 20.6166C26.806 20.4689 26.6837 20.3412 26.5403 20.2409L4.20782 9.9502L1.12604 14.8578C0.780267 15.3911 0.874489 16.1138 1.37138 16.5386L8.29227 22.4684C8.60812 22.7386 8.93612 22.9932 9.27627 23.232L14.6034 26.9609Z" fill="#EF9645"/>
<path d="M26.4905 19.3349L16.4442 12.0895L16.3918 12.0184L16.4389 11.9473L16.486 11.9002L17.2451 12.3171C18.0967 12.8682 20.0425 13.6824 21.5171 13.6824C22.526 13.6824 23.1305 13.3046 23.3109 12.5651C23.3655 12.2382 23.2884 11.903 23.0965 11.6328C22.9046 11.3626 22.6135 11.1794 22.2869 11.1233C21.395 10.9898 20.5443 10.6585 19.7971 10.1535L19.3038 9.82198C18.7491 9.44776 18.1207 9.02376 17.6567 8.74998C17.0789 8.39976 16.4505 8.22998 15.734 8.22998C14.6709 8.22998 13.5909 8.60509 12.5474 8.96776L11.422 9.35531C10.9363 9.51862 10.4269 9.60002 9.91446 9.5962C8.54202 9.5962 7.19891 9.07531 5.90024 8.5722L5.76958 8.52065C5.50228 8.41847 5.2078 8.41224 4.93642 8.50302C4.66504 8.59381 4.43359 8.77597 4.28158 9.01842L1.1998 13.9278C1.04345 14.1726 0.98049 14.4655 1.02244 14.753C1.06439 15.0404 1.20844 15.3032 1.42824 15.4931L8.34824 21.4238C8.66113 21.6913 8.99002 21.9464 9.32602 22.1811L14.806 26.0175C14.9973 26.1515 15.213 26.2465 15.441 26.2971C15.669 26.3477 15.9047 26.3529 16.1347 26.3123C16.3646 26.2718 16.5844 26.1864 16.7813 26.0609C16.9782 25.9354 17.1485 25.7724 17.2825 25.5811C17.3902 25.4264 17.4324 25.2353 17.3997 25.0496C17.3671 24.8639 17.2623 24.6987 17.1082 24.59L15.4789 23.4495C15.4363 23.4196 15.4004 23.3811 15.3734 23.3366C15.3464 23.2921 15.329 23.2424 15.3221 23.1908C15.3153 23.1392 15.3192 23.0868 15.3336 23.0367C15.3481 22.9867 15.3727 22.9402 15.406 22.9002C15.4661 22.8275 15.5514 22.7802 15.6449 22.7678C15.7384 22.7555 15.8331 22.7789 15.91 22.8335L19.4469 25.3091C19.7173 25.4984 20.0518 25.5725 20.3769 25.5152C20.702 25.4578 20.9909 25.2737 21.1802 25.0033C21.3695 24.7329 21.4437 24.3984 21.3863 24.0733C21.329 23.7483 21.1449 23.4593 20.8745 23.27L17.5642 20.9535C17.5217 20.9236 17.4857 20.8851 17.4588 20.8406C17.4318 20.7961 17.4143 20.7464 17.4075 20.6948C17.4006 20.6432 17.4045 20.5908 17.419 20.5407C17.4334 20.4907 17.4581 20.4442 17.4914 20.4042C17.5518 20.332 17.6371 20.2851 17.7304 20.2728C17.8237 20.2604 17.9182 20.2835 17.9954 20.3375L22.5571 23.5313C22.691 23.625 22.8421 23.6915 23.0016 23.7269C23.1612 23.7622 23.3262 23.7658 23.4871 23.7374C23.6481 23.709 23.8019 23.6492 23.9397 23.5614C24.0775 23.4735 24.1967 23.3594 24.2905 23.2255C24.3842 23.0916 24.4506 22.9406 24.486 22.781C24.5214 22.6215 24.525 22.4565 24.4966 22.2955C24.4682 22.1346 24.4083 21.9808 24.3205 21.843C24.2327 21.7051 24.1186 21.5859 23.9847 21.4922L19.6576 18.4638C19.6146 18.4341 19.5784 18.3957 19.5511 18.3512C19.5239 18.3066 19.5064 18.2569 19.4996 18.2051C19.4928 18.1533 19.4969 18.1007 19.5117 18.0506C19.5266 18.0006 19.5517 17.9542 19.5856 17.9144C19.6395 17.85 19.7157 17.8083 19.799 17.7974C19.8823 17.7866 19.9667 17.8074 20.0354 17.8558L25.0629 21.3749C25.1969 21.4686 25.348 21.535 25.5076 21.5704C25.6672 21.6057 25.8322 21.6093 25.9932 21.5808C26.1542 21.5524 26.308 21.4925 26.4459 21.4047C26.5838 21.3168 26.703 21.2026 26.7967 21.0686C26.8904 20.9347 26.9569 20.7836 26.9922 20.624C27.0275 20.4644 27.0311 20.2993 27.0027 20.1383C26.9742 19.9773 26.9144 19.8235 26.8265 19.6857C26.7386 19.5478 26.6244 19.4286 26.4905 19.3349Z" fill="#FFDC5D"/>
<path d="M14.6987 24.8257C14.6365 25.0631 14.5147 25.2684 14.3529 25.4311L13.4605 26.3164C13.2967 26.4813 13.0927 26.6005 12.8686 26.6623C12.6446 26.724 12.4082 26.7261 12.1831 26.6684C11.9559 26.6092 11.7483 26.4911 11.5813 26.326C11.4144 26.1608 11.2941 25.9545 11.2324 25.7279C11.1708 25.5013 11.1702 25.2625 11.2305 25.0355C11.2908 24.8086 11.41 24.6016 11.576 24.4355L12.4685 23.5502C12.6322 23.3853 12.8363 23.266 13.0603 23.2043C13.2844 23.1425 13.5207 23.1404 13.7458 23.1982C13.9152 23.2424 14.0743 23.3197 14.2139 23.4254C14.3535 23.5312 14.4709 23.6634 14.5594 23.8145C14.6479 23.9657 14.7057 24.1328 14.7296 24.3063C14.7535 24.4798 14.743 24.6563 14.6987 24.8257ZM5.32624 20.4515L6.66224 19.1208C6.815 18.9683 6.92842 18.7809 6.99276 18.5748C7.05711 18.3687 7.07044 18.1501 7.03162 17.9377C6.9928 17.7253 6.90298 17.5255 6.76989 17.3555C6.63681 17.1855 6.46443 17.0504 6.26757 16.9617C6.02097 16.8508 5.74639 16.8178 5.48052 16.867C5.21464 16.9162 4.97011 17.0454 4.77957 17.2373L3.44357 18.568C3.29084 18.7206 3.17746 18.908 3.11318 19.1142C3.04891 19.3203 3.03565 19.539 3.07456 19.7513C3.11347 19.9637 3.20338 20.1635 3.33656 20.3335C3.46974 20.5034 3.6422 20.6385 3.83913 20.7271C4.08574 20.8371 4.35998 20.8697 4.62553 20.8205C4.89108 20.7713 5.13543 20.6426 5.32624 20.4515ZM9.95201 20.4977C10.0829 20.3755 10.1878 20.2282 10.2605 20.0646C10.3333 19.901 10.3723 19.7244 10.3753 19.5454C10.3783 19.3663 10.3452 19.1885 10.2779 19.0226C10.2107 18.8566 10.1108 18.7059 9.98404 18.5794C9.85731 18.4529 9.7064 18.3533 9.54032 18.2864C9.37423 18.2195 9.19637 18.1867 9.01735 18.19C8.83833 18.1933 8.66181 18.2327 8.49832 18.3057C8.33484 18.3787 8.18774 18.4839 8.06579 18.6151L5.39735 21.28C5.26647 21.4021 5.16154 21.5494 5.08882 21.7131C5.0161 21.8767 4.97708 22.0533 4.9741 22.2323C4.97111 22.4113 5.00421 22.5891 5.07142 22.7551C5.13864 22.921 5.2386 23.0718 5.36532 23.1983C5.49205 23.3248 5.64296 23.4244 5.80905 23.4913C5.97513 23.5582 6.15299 23.591 6.33201 23.5877C6.51104 23.5843 6.68756 23.545 6.85104 23.472C7.01453 23.3989 7.16163 23.2937 7.28357 23.1626L9.95201 20.4977ZM11.952 23.1644C12.132 22.9841 12.2565 22.756 12.3108 22.5071C12.3652 22.2582 12.3471 21.999 12.2588 21.76C12.1704 21.5211 12.0154 21.3125 11.8122 21.1589C11.609 21.0053 11.366 20.9131 11.112 20.8933C10.9202 20.8789 10.7276 20.9064 10.5476 20.9739C10.3675 21.0415 10.2043 21.1474 10.0693 21.2844L8.28713 23.0577C8.1069 23.238 7.98214 23.4662 7.92762 23.7152C7.87309 23.9642 7.8911 24.2236 7.9795 24.4627C8.0679 24.7018 8.22299 24.9106 8.42639 25.0642C8.62979 25.2179 8.87297 25.31 9.12713 25.3297C9.53157 25.3617 9.90402 25.2044 10.1698 24.9386L11.952 23.1644ZM26.6676 19.4871L27.2249 19.0053L21.08 9.36084L10.1733 11.1253C9.99988 11.1546 9.83389 11.2178 9.68484 11.3112C9.53579 11.4046 9.40661 11.5265 9.30467 11.6699C9.20273 11.8133 9.13003 11.9753 9.09072 12.1468C9.05141 12.3183 9.04627 12.4958 9.07557 12.6693C9.66046 15.0648 14.4116 13.2853 16.5022 12.1351L26.6676 19.4871Z" fill="#EF9645"/>
<path d="M14.6987 23.9369C14.6365 24.1742 14.5147 24.3796 14.3529 24.5422L13.4605 25.4276C13.2967 25.5925 13.0927 25.7117 12.8686 25.7734C12.6446 25.8352 12.4082 25.8373 12.1831 25.7796C11.9559 25.7204 11.7483 25.6023 11.5813 25.4371C11.4144 25.272 11.2941 25.0657 11.2324 24.8391C11.1708 24.6125 11.1702 24.3736 11.2305 24.1467C11.2908 23.9197 11.41 23.7128 11.576 23.5467L12.4685 22.6613C12.6322 22.4964 12.8363 22.3772 13.0603 22.3154C13.2844 22.2537 13.5207 22.2516 13.7458 22.3093C13.9152 22.3536 14.0743 22.4308 14.2139 22.5366C14.3535 22.6423 14.4709 22.7746 14.5594 22.9257C14.6479 23.0769 14.7057 23.2439 14.7296 23.4174C14.7535 23.591 14.743 23.7675 14.6987 23.9369ZM5.32624 19.5627L6.66224 18.232C6.815 18.0794 6.92842 17.8921 6.99276 17.686C7.05711 17.4799 7.07044 17.2612 7.03162 17.0489C6.9928 16.8365 6.90298 16.6367 6.76989 16.4667C6.63681 16.2967 6.46443 16.1616 6.26757 16.0729C6.02084 15.9626 5.74643 15.9299 5.48069 15.9791C5.21495 16.0283 4.97045 16.1571 4.77957 16.3484L3.44357 17.6791C3.29084 17.8317 3.17746 18.0192 3.11318 18.2253C3.04891 18.4315 3.03565 18.6501 3.07456 18.8625C3.11347 19.0749 3.20338 19.2747 3.33656 19.4446C3.46974 19.6146 3.6422 19.7497 3.83913 19.8382C4.08574 19.9483 4.35998 19.9809 4.62553 19.9317C4.89108 19.8825 5.13543 19.7538 5.32624 19.5627ZM9.95201 19.6089C10.0829 19.4867 10.1878 19.3394 10.2605 19.1758C10.3333 19.0122 10.3723 18.8356 10.3753 18.6565C10.3783 18.4775 10.3452 18.2997 10.2779 18.1338C10.2107 17.9678 10.1108 17.8171 9.98404 17.6906C9.85731 17.5641 9.7064 17.4644 9.54032 17.3975C9.37423 17.3306 9.19637 17.2979 9.01735 17.3012C8.83833 17.3045 8.66181 17.3439 8.49832 17.4169C8.33484 17.4899 8.18774 17.5951 8.06579 17.7262L5.39735 20.3911C5.26647 20.5133 5.16154 20.6606 5.08882 20.8242C5.0161 20.9879 4.97708 21.1644 4.9741 21.3435C4.97111 21.5225 5.00421 21.7003 5.07142 21.8663C5.13864 22.0322 5.2386 22.1829 5.36532 22.3094C5.49205 22.4359 5.64296 22.5356 5.80905 22.6025C5.97513 22.6694 6.15299 22.7022 6.33201 22.6988C6.51104 22.6955 6.68756 22.6562 6.85104 22.5831C7.01453 22.5101 7.16163 22.4049 7.28357 22.2738L9.95201 19.6089ZM11.952 22.2756C12.132 22.0952 12.2565 21.8671 12.3108 21.6183C12.3652 21.3694 12.3471 21.1101 12.2588 20.8712C12.1704 20.6323 12.0154 20.4237 11.8122 20.2701C11.609 20.1165 11.366 20.0243 11.112 20.0044C10.9202 19.99 10.7276 20.0176 10.5476 20.0851C10.3675 20.1526 10.2043 20.2586 10.0693 20.3956L8.28713 22.1689C8.1069 22.3492 7.98214 22.5773 7.92762 22.8264C7.87309 23.0754 7.8911 23.3348 7.9795 23.5739C8.0679 23.813 8.22299 24.0218 8.42639 24.1754C8.62979 24.3291 8.87297 24.4212 9.12713 24.4409C9.53157 24.4729 9.90402 24.3156 10.1698 24.0498L11.952 22.2756ZM31.1138 15.648C31.3491 15.4446 31.503 15.1629 31.5469 14.855C31.5909 14.547 31.522 14.2336 31.3529 13.9724L31.3502 13.968L28.2685 8.17156C28.1055 7.9118 27.8574 7.71664 27.5666 7.61937C27.2758 7.52211 26.9602 7.52877 26.6738 7.63823C24.9031 8.32356 22.9636 9.11112 21.0809 8.47112L20.1049 8.136C18.3733 7.536 16.4907 6.83289 14.7716 7.87467C14.1538 8.23823 13.2267 8.88178 12.6285 9.27912C11.889 9.77203 11.0513 10.0984 10.1733 10.2356C9.99952 10.2641 9.83306 10.3268 9.6836 10.42C9.53414 10.5132 9.40463 10.6351 9.30255 10.7787C9.20048 10.9223 9.12787 11.0846 9.08891 11.2564C9.04995 11.4282 9.04541 11.606 9.07557 11.7796C9.62046 14.0124 13.7867 12.5867 16.0427 11.4516C16.1836 11.3811 16.3411 11.3505 16.4981 11.3632C16.6551 11.3759 16.8056 11.4313 16.9333 11.5236L27.2302 19.0044L31.1138 15.648Z" fill="#FFCC4D"/>
</svg>
