<svg width="57" height="24" viewBox="0 0 57 24" fill="none" xmlns="http://www.w3.org/2000/svg">
<path d="M1 0.666626V7.99996M1 23.3333V7.99996M1 7.99996H9.33333V0.666626V23.3333" stroke="#48494D" stroke-linejoin="bevel"/>
<path d="M48.3335 6.66663H52.3335M56.3335 6.66663H52.3335M52.3335 6.66663V23.8073" stroke="#48494D" stroke-linejoin="round"/>
<path d="M46.4287 6.66675H44.4287C43.3241 6.66675 42.4287 7.56218 42.4287 8.66675V12.304M42.4287 12.304H46.4287M42.4287 12.304V21.3334C42.4287 22.438 43.3241 23.3334 44.4287 23.3334H46.4287" stroke="#48494D" stroke-linejoin="round"/>
<path d="M29 9.26475V19.2603C29 22.9651 33.6019 24.6791 36.0255 21.8769L36.9272 20.8342C38.4194 19.1089 38.1688 16.4869 36.3768 15.0754L29 9.26475ZM29 9.26475V3.47672C29 1.79196 30.4518 0.473871 32.1287 0.636154V0.636154C34.7066 0.885628 35.646 4.16362 33.5915 5.74057L29 9.26475Z" stroke="#48494D" stroke-linejoin="round"/>
<path d="M24.0296 19.6666L24.5156 19.5487L24.5129 19.5387L24.0296 19.6666ZM14.3335 19.1666C14.0574 19.1666 13.8335 19.3905 13.8335 19.6666C13.8335 19.9428 14.0574 20.1666 14.3335 20.1666V19.1666ZM21.0031 8.23316L20.5197 8.36111L21.0031 8.23316ZM13.819 23.7862L17.6132 8.38611L16.6422 8.14688L12.848 23.547L13.819 23.7862ZM20.5197 8.36111L23.5462 19.7946L24.5129 19.5387L21.4864 8.10522L20.5197 8.36111ZM23.5437 19.7845L24.5143 23.7845L25.4861 23.5487L24.5155 19.5487L23.5437 19.7845ZM24.0296 19.1666H14.3335V20.1666H24.0296V19.1666ZM17.6132 8.38611C17.9848 6.878 20.1223 6.8596 20.5197 8.36111L21.4864 8.10522C20.824 5.60272 17.2615 5.63335 16.6422 8.14688L17.6132 8.38611Z" fill="#48494D"/>
</svg>
