<svg width="25" height="24" viewBox="0 0 25 24" fill="none" xmlns="http://www.w3.org/2000/svg">
<path d="M12.5201 2.91C9.21009 2.91 6.52009 5.6 6.52009 8.91V11.8C6.52009 12.41 6.26009 13.34 5.95009 13.86L4.80009 15.77C4.09009 16.95 4.58009 18.26 5.88009 18.7C10.1901 20.14 14.8401 20.14 19.1501 18.7C20.3601 18.3 20.8901 16.87 20.2301 15.77L19.0801 13.86C18.7801 13.34 18.5201 12.41 18.5201 11.8V8.91C18.5201 5.61 15.8201 2.91 12.5201 2.91Z" stroke="#48494D" stroke-width="1.5" stroke-miterlimit="10" stroke-linecap="round"/>
<path d="M14.3699 3.2C14.0599 3.11 13.7399 3.04 13.4099 3C12.4499 2.88 11.5299 2.95 10.6699 3.2C10.9599 2.46 11.6799 1.94 12.5199 1.94C13.3599 1.94 14.0799 2.46 14.3699 3.2Z" stroke="#48494D" stroke-width="1.5" stroke-miterlimit="10" stroke-linecap="round" stroke-linejoin="round"/>
<path d="M15.52 19.06C15.52 20.71 14.17 22.06 12.52 22.06C11.7 22.06 10.94 21.72 10.4 21.18C9.86002 20.64 9.52002 19.88 9.52002 19.06" stroke="#48494D" stroke-width="1.5" stroke-miterlimit="10"/>
</svg>
