<svg width="16" height="16" viewBox="0 0 16 16" fill="none" xmlns="http://www.w3.org/2000/svg">
<g clip-path="url(#clip0_958_18795)">
<mask id="path-1-outside-1_958_18795" maskUnits="userSpaceOnUse" x="-0.333008" y="1.66663" width="17" height="13" fill="black">
<rect fill="white" x="-0.333008" y="1.66663" width="17" height="13"/>
<path d="M14.7061 7.737C14.3738 7.27447 13.9348 6.90649 13.4228 6.65808C13.766 6.23384 13.9761 5.66744 13.9761 5.04607C13.9761 3.73404 13.0401 2.66663 11.8896 2.66663C10.7391 2.66663 9.80314 3.73404 9.80314 5.04607C9.80314 5.66753 10.0132 6.23401 10.3566 6.65826C10.2628 6.70387 10.1712 6.75357 10.0821 6.80736C10.0151 5.56369 9.10681 4.57522 7.9997 4.57522C6.89281 4.57522 5.98465 5.5633 5.91739 6.80664C5.82866 6.75313 5.73747 6.70366 5.6441 6.65825C5.98742 6.234 6.19751 5.66753 6.19751 5.04607C6.19751 3.73404 5.26153 2.66663 4.11106 2.66663C2.96057 2.66663 2.02459 3.73404 2.02459 5.04607C2.02459 5.66744 2.23462 6.23384 2.57786 6.65808C2.06586 6.90649 1.62686 7.27448 1.29456 7.737C0.884002 8.30848 0.666992 8.98033 0.666992 9.67991V10.6595C0.666992 10.9651 0.856859 11.3991 1.7614 11.7317C2.39214 11.9637 3.22659 12.0914 4.11106 12.0914C4.2595 12.0914 4.40828 12.0876 4.55565 12.0802V12.5681C4.55565 12.8736 4.74552 13.3077 5.65006 13.6403C6.28078 13.8722 7.11523 14 7.9997 14C8.88416 14 9.71861 13.8722 10.3493 13.6403C11.2539 13.3077 11.4438 12.8736 11.4438 12.5681V12.0802C11.5916 12.0876 11.7408 12.0914 11.8896 12.0914C12.7741 12.0914 13.6085 11.9637 14.2392 11.7317C15.1438 11.3991 15.3337 10.9651 15.3337 10.6595V9.6799C15.3337 8.98033 15.1167 8.30847 14.7061 7.737ZM11.8896 3.15487C12.804 3.15487 13.548 4.00326 13.548 5.04607C13.548 6.08886 12.804 6.93722 11.8896 6.93722C10.9752 6.93722 10.2313 6.08886 10.2313 5.04607C10.2313 4.00326 10.9752 3.15487 11.8896 3.15487ZM7.99971 5.06346C8.91414 5.06346 9.65806 5.91184 9.65806 6.95465C9.65806 7.99745 8.91414 8.84583 7.99971 8.84583C7.0853 8.84583 6.34137 7.99745 6.34137 6.95465C6.34137 5.91184 7.08531 5.06346 7.99971 5.06346ZM4.11106 3.15487C5.02548 3.15487 5.76939 4.00326 5.76939 5.04607C5.76939 6.08886 5.02547 6.93722 4.11106 6.93722C3.19666 6.93722 2.45273 6.08886 2.45273 5.04607C2.45273 4.00326 3.19666 3.15487 4.11106 3.15487ZM4.11106 11.6032C3.27001 11.6032 2.48222 11.4838 1.89281 11.2671C1.34178 11.0644 1.09513 10.8159 1.09513 10.6595V9.67991C1.09513 8.52112 1.83405 7.46564 2.94563 7.01879C3.27863 7.27546 3.67977 7.42547 4.11106 7.42547C4.54233 7.42547 4.94344 7.27548 5.27642 7.01885C5.51673 7.11528 5.74218 7.24073 5.94887 7.39295C6.02229 7.84069 6.20597 8.24463 6.46651 8.56664C5.95452 8.81504 5.51552 9.18305 5.18323 9.64559C4.77268 10.2171 4.55567 10.8889 4.55567 11.5885V11.5915C4.40842 11.5992 4.2596 11.6032 4.11106 11.6032ZM10.218 13.1756C9.62856 13.3924 8.84077 13.5117 7.99971 13.5117C7.15865 13.5117 6.37085 13.3924 5.78146 13.1756C5.23043 12.973 4.98379 12.7245 4.98379 12.5681V11.5885C4.98379 10.4297 5.72269 9.37421 6.83424 8.92737C7.16724 9.18405 7.56841 9.33407 7.99971 9.33407C8.43098 9.33407 8.83209 9.18408 9.16508 8.92744C10.2763 9.37415 11.0156 10.4307 11.0156 11.5885V12.5681C11.0156 12.7245 10.769 12.973 10.218 13.1756ZM14.9055 10.6595C14.9055 10.8159 14.6589 11.0644 14.1079 11.2671C13.5184 11.4838 12.7307 11.6032 11.8896 11.6032C11.7408 11.6032 11.5915 11.5992 11.4438 11.5914V11.5885C11.4438 10.8909 11.2279 10.2206 10.8195 9.65012C10.4869 9.18562 10.0466 8.816 9.53289 8.56672C9.79325 8.24494 9.97688 7.84135 10.0504 7.394C10.2575 7.24132 10.4834 7.11552 10.7243 7.01886C11.0572 7.27549 11.4583 7.42548 11.8896 7.42548C12.3209 7.42548 12.722 7.27547 13.055 7.0188C14.1666 7.46566 14.9055 8.52113 14.9055 9.67992V10.6595Z"/>
</mask>
<path d="M14.7061 7.737C14.3738 7.27447 13.9348 6.90649 13.4228 6.65808C13.766 6.23384 13.9761 5.66744 13.9761 5.04607C13.9761 3.73404 13.0401 2.66663 11.8896 2.66663C10.7391 2.66663 9.80314 3.73404 9.80314 5.04607C9.80314 5.66753 10.0132 6.23401 10.3566 6.65826C10.2628 6.70387 10.1712 6.75357 10.0821 6.80736C10.0151 5.56369 9.10681 4.57522 7.9997 4.57522C6.89281 4.57522 5.98465 5.5633 5.91739 6.80664C5.82866 6.75313 5.73747 6.70366 5.6441 6.65825C5.98742 6.234 6.19751 5.66753 6.19751 5.04607C6.19751 3.73404 5.26153 2.66663 4.11106 2.66663C2.96057 2.66663 2.02459 3.73404 2.02459 5.04607C2.02459 5.66744 2.23462 6.23384 2.57786 6.65808C2.06586 6.90649 1.62686 7.27448 1.29456 7.737C0.884002 8.30848 0.666992 8.98033 0.666992 9.67991V10.6595C0.666992 10.9651 0.856859 11.3991 1.7614 11.7317C2.39214 11.9637 3.22659 12.0914 4.11106 12.0914C4.2595 12.0914 4.40828 12.0876 4.55565 12.0802V12.5681C4.55565 12.8736 4.74552 13.3077 5.65006 13.6403C6.28078 13.8722 7.11523 14 7.9997 14C8.88416 14 9.71861 13.8722 10.3493 13.6403C11.2539 13.3077 11.4438 12.8736 11.4438 12.5681V12.0802C11.5916 12.0876 11.7408 12.0914 11.8896 12.0914C12.7741 12.0914 13.6085 11.9637 14.2392 11.7317C15.1438 11.3991 15.3337 10.9651 15.3337 10.6595V9.6799C15.3337 8.98033 15.1167 8.30847 14.7061 7.737ZM11.8896 3.15487C12.804 3.15487 13.548 4.00326 13.548 5.04607C13.548 6.08886 12.804 6.93722 11.8896 6.93722C10.9752 6.93722 10.2313 6.08886 10.2313 5.04607C10.2313 4.00326 10.9752 3.15487 11.8896 3.15487ZM7.99971 5.06346C8.91414 5.06346 9.65806 5.91184 9.65806 6.95465C9.65806 7.99745 8.91414 8.84583 7.99971 8.84583C7.0853 8.84583 6.34137 7.99745 6.34137 6.95465C6.34137 5.91184 7.08531 5.06346 7.99971 5.06346ZM4.11106 3.15487C5.02548 3.15487 5.76939 4.00326 5.76939 5.04607C5.76939 6.08886 5.02547 6.93722 4.11106 6.93722C3.19666 6.93722 2.45273 6.08886 2.45273 5.04607C2.45273 4.00326 3.19666 3.15487 4.11106 3.15487ZM4.11106 11.6032C3.27001 11.6032 2.48222 11.4838 1.89281 11.2671C1.34178 11.0644 1.09513 10.8159 1.09513 10.6595V9.67991C1.09513 8.52112 1.83405 7.46564 2.94563 7.01879C3.27863 7.27546 3.67977 7.42547 4.11106 7.42547C4.54233 7.42547 4.94344 7.27548 5.27642 7.01885C5.51673 7.11528 5.74218 7.24073 5.94887 7.39295C6.02229 7.84069 6.20597 8.24463 6.46651 8.56664C5.95452 8.81504 5.51552 9.18305 5.18323 9.64559C4.77268 10.2171 4.55567 10.8889 4.55567 11.5885V11.5915C4.40842 11.5992 4.2596 11.6032 4.11106 11.6032ZM10.218 13.1756C9.62856 13.3924 8.84077 13.5117 7.99971 13.5117C7.15865 13.5117 6.37085 13.3924 5.78146 13.1756C5.23043 12.973 4.98379 12.7245 4.98379 12.5681V11.5885C4.98379 10.4297 5.72269 9.37421 6.83424 8.92737C7.16724 9.18405 7.56841 9.33407 7.99971 9.33407C8.43098 9.33407 8.83209 9.18408 9.16508 8.92744C10.2763 9.37415 11.0156 10.4307 11.0156 11.5885V12.5681C11.0156 12.7245 10.769 12.973 10.218 13.1756ZM14.9055 10.6595C14.9055 10.8159 14.6589 11.0644 14.1079 11.2671C13.5184 11.4838 12.7307 11.6032 11.8896 11.6032C11.7408 11.6032 11.5915 11.5992 11.4438 11.5914V11.5885C11.4438 10.8909 11.2279 10.2206 10.8195 9.65012C10.4869 9.18562 10.0466 8.816 9.53289 8.56672C9.79325 8.24494 9.97688 7.84135 10.0504 7.394C10.2575 7.24132 10.4834 7.11552 10.7243 7.01886C11.0572 7.27549 11.4583 7.42548 11.8896 7.42548C12.3209 7.42548 12.722 7.27547 13.055 7.0188C14.1666 7.46566 14.9055 8.52113 14.9055 9.67992V10.6595Z" fill="#7F8CB9"/>
<path d="M14.7061 7.737L15.1122 7.44527L15.1122 7.44527L14.7061 7.737ZM13.4228 6.65808L13.0341 6.34358L12.6381 6.83308L13.2045 7.10793L13.4228 6.65808ZM10.3566 6.65826L10.5752 7.10794L11.141 6.83284L10.7452 6.34373L10.3566 6.65826ZM10.0821 6.80736L9.58279 6.83424L9.62755 7.66579L10.3405 7.23541L10.0821 6.80736ZM5.91739 6.80664L5.65918 7.23481L6.37171 7.6645L6.41666 6.83365L5.91739 6.80664ZM5.6441 6.65825L5.25542 6.34372L4.85965 6.83278L5.42544 7.10791L5.6441 6.65825ZM2.57786 6.65808L2.79611 7.10793L3.36261 6.83308L2.96656 6.34358L2.57786 6.65808ZM1.29456 7.737L0.888494 7.44527L0.888488 7.44528L1.29456 7.737ZM1.7614 11.7317L1.58883 12.201L1.58883 12.201L1.7614 11.7317ZM4.55565 12.0802H5.05565V11.5546L4.53067 11.5809L4.55565 12.0802ZM5.65006 13.6403L5.47749 14.1096L5.4775 14.1096L5.65006 13.6403ZM10.3493 13.6403L10.5219 14.1096L10.5219 14.1096L10.3493 13.6403ZM11.4438 12.0802L11.4688 11.5808L10.9438 11.5545V12.0802H11.4438ZM14.2392 11.7317L14.0667 11.2624L14.0667 11.2625L14.2392 11.7317ZM15.3337 9.6799L14.8337 9.67989V9.6799H15.3337ZM1.89281 11.2671L1.72023 11.7363L1.72025 11.7363L1.89281 11.2671ZM2.94563 7.01879L3.25087 6.62278L3.02442 6.44823L2.75914 6.55487L2.94563 7.01879ZM5.27642 7.01885L5.46262 6.55481L5.19748 6.44842L4.9712 6.62282L5.27642 7.01885ZM5.94887 7.39295L6.44229 7.31204L6.40934 7.1111L6.24538 6.99035L5.94887 7.39295ZM6.46651 8.56664L6.68476 9.01649L7.25126 8.74165L6.85522 8.25215L6.46651 8.56664ZM5.18323 9.64559L5.58931 9.93732L5.58931 9.93731L5.18323 9.64559ZM4.55567 11.5915L4.58173 12.0908L5.05567 12.0661V11.5915H4.55567ZM10.218 13.1756L10.0454 12.7063L10.0454 12.7063L10.218 13.1756ZM5.78146 13.1756L5.95403 12.7063L5.95402 12.7063L5.78146 13.1756ZM6.83424 8.92737L7.1395 8.53136L6.91304 8.3568L6.64775 8.46345L6.83424 8.92737ZM9.16508 8.92744L9.35158 8.46353L9.08631 8.35688L8.85985 8.53141L9.16508 8.92744ZM11.0156 12.5681H11.5156H11.0156ZM14.1079 11.2671L14.2804 11.7363L14.2805 11.7363L14.1079 11.2671ZM11.4438 11.5914H10.9438V12.066L11.4176 12.0908L11.4438 11.5914ZM10.8195 9.65012L10.4129 9.94117L10.4129 9.94117L10.8195 9.65012ZM9.53289 8.56672L9.14419 8.25222L8.74815 8.74171L9.31463 9.01656L9.53289 8.56672ZM10.0504 7.394L9.75366 6.99158L9.59 7.11226L9.55703 7.31291L10.0504 7.394ZM10.7243 7.01886L11.0295 6.62282L10.8032 6.44842L10.538 6.55483L10.7243 7.01886ZM13.055 7.0188L13.2415 6.55488L12.9763 6.44824L12.7498 6.62279L13.055 7.0188ZM15.1122 7.44527C14.731 6.91467 14.2272 6.4926 13.6411 6.20823L13.2045 7.10793C13.6424 7.32037 14.0166 7.63428 14.3 8.02874L15.1122 7.44527ZM13.8115 6.97257C14.2281 6.45764 14.4761 5.77971 14.4761 5.04607H13.4761C13.4761 5.55516 13.304 6.01005 13.0341 6.34358L13.8115 6.97257ZM14.4761 5.04607C14.4761 3.52163 13.3759 2.16663 11.8896 2.16663V3.16663C12.7042 3.16663 13.4761 3.94644 13.4761 5.04607H14.4761ZM11.8896 2.16663C10.4033 2.16663 9.30314 3.52164 9.30314 5.04607H10.3031C10.3031 3.94644 11.075 3.16663 11.8896 3.16663V2.16663ZM9.30314 5.04607C9.30314 5.77983 9.55116 6.45784 9.96789 6.9728L10.7452 6.34373C10.4753 6.01018 10.3031 5.55523 10.3031 5.04607H9.30314ZM10.138 6.20859C10.0307 6.2607 9.92588 6.31761 9.82366 6.37931L10.3405 7.23541C10.4165 7.18953 10.4948 7.14703 10.5752 7.10794L10.138 6.20859ZM10.5813 6.78049C10.5034 5.33203 9.42917 4.07522 7.9997 4.07522V5.07522C8.78445 5.07522 9.52687 5.79536 9.58279 6.83424L10.5813 6.78049ZM7.9997 4.07522C6.57051 4.07522 5.49645 5.33155 5.41812 6.77963L6.41666 6.83365C6.47284 5.79506 7.21511 5.07522 7.9997 5.07522V4.07522ZM6.1756 6.37847C6.07384 6.31711 5.96945 6.26048 5.86276 6.2086L5.42544 7.10791C5.50549 7.14684 5.58347 7.18915 5.65918 7.23481L6.1756 6.37847ZM6.03277 6.97279C6.4495 6.45783 6.69751 5.77983 6.69751 5.04607H5.69751C5.69751 5.55524 5.52535 6.01017 5.25542 6.34372L6.03277 6.97279ZM6.69751 5.04607C6.69751 3.52164 5.59737 2.16663 4.11106 2.16663V3.16663C4.92569 3.16663 5.69751 3.94644 5.69751 5.04607H6.69751ZM4.11106 2.16663C2.62473 2.16663 1.52459 3.52164 1.52459 5.04607H2.52459C2.52459 3.94644 3.29641 3.16663 4.11106 3.16663V2.16663ZM1.52459 5.04607C1.52459 5.77971 1.77253 6.45764 2.18915 6.97257L2.96656 6.34358C2.69671 6.01005 2.52459 5.55516 2.52459 5.04607H1.52459ZM2.3596 6.20823C1.77347 6.4926 1.26969 6.91468 0.888494 7.44527L1.70063 8.02874C1.98402 7.63429 2.35825 7.32037 2.79611 7.10793L2.3596 6.20823ZM0.888488 7.44528C0.417238 8.10123 0.166992 8.875 0.166992 9.67991H1.16699C1.16699 9.08566 1.35077 8.51573 1.70063 8.02873L0.888488 7.44528ZM0.166992 9.67991V10.6595H1.16699V9.67991H0.166992ZM0.166992 10.6595C0.166992 10.9255 0.253191 11.2268 0.494518 11.5099C0.728036 11.7838 1.08531 12.0158 1.58883 12.201L1.93397 11.2625C1.53295 11.115 1.34302 10.9637 1.25547 10.8611C1.17573 10.7675 1.16699 10.6991 1.16699 10.6595H0.166992ZM1.58883 12.201C2.28922 12.4586 3.18528 12.5914 4.11106 12.5914V11.5914C3.2679 11.5914 2.49505 11.4688 1.93397 11.2625L1.58883 12.201ZM4.11106 12.5914C4.26798 12.5914 4.4251 12.5874 4.58063 12.5796L4.53067 11.5809C4.39146 11.5878 4.25101 11.5914 4.11106 11.5914V12.5914ZM4.05565 12.0802V12.5681H5.05565V12.0802H4.05565ZM4.05565 12.5681C4.05565 12.834 4.14184 13.1354 4.38317 13.4184C4.61669 13.6923 4.97397 13.9244 5.47749 14.1096L5.82263 13.171C5.42161 13.0236 5.23168 12.8723 5.14413 12.7696C5.06439 12.6761 5.05565 12.6077 5.05565 12.5681H4.05565ZM5.4775 14.1096C6.17786 14.3671 7.07392 14.5 7.9997 14.5V13.5C7.15654 13.5 6.38369 13.3773 5.82262 13.171L5.4775 14.1096ZM7.9997 14.5C8.92547 14.5 9.82153 14.3671 10.5219 14.1096L10.1768 13.171C9.6157 13.3773 8.84285 13.5 7.9997 13.5V14.5ZM10.5219 14.1096C11.0254 13.9244 11.3827 13.6923 11.6162 13.4184C11.8576 13.1354 11.9438 12.834 11.9438 12.5681H10.9438C10.9438 12.6077 10.935 12.6761 10.8553 12.7696C10.7677 12.8723 10.5778 13.0236 10.1768 13.171L10.5219 14.1096ZM11.9438 12.5681V12.0802H10.9438V12.5681H11.9438ZM11.4187 12.5795C11.5748 12.5874 11.7323 12.5914 11.8896 12.5914V11.5914C11.7493 11.5914 11.6085 11.5878 11.4688 11.5808L11.4187 12.5795ZM11.8896 12.5914C12.8154 12.5914 13.7114 12.4586 14.4118 12.201L14.0667 11.2625C13.5056 11.4688 12.7327 11.5914 11.8896 11.5914V12.5914ZM14.4118 12.201C14.9153 12.0158 15.2726 11.7837 15.5061 11.5099C15.7475 11.2268 15.8337 10.9255 15.8337 10.6595H14.8337C14.8337 10.6991 14.8249 10.7675 14.7452 10.8611C14.6576 10.9637 14.4677 11.115 14.0667 11.2624L14.4118 12.201ZM15.8337 10.6595V9.6799H14.8337V10.6595H15.8337ZM15.8337 9.67991C15.8337 8.875 15.5834 8.10122 15.1122 7.44527L14.3 8.02874C14.6499 8.51572 14.8337 9.08566 14.8337 9.67989L15.8337 9.67991ZM11.8896 3.65487C12.4682 3.65487 13.048 4.21566 13.048 5.04607H14.048C14.048 3.79085 13.1399 2.65487 11.8896 2.65487V3.65487ZM13.048 5.04607C13.048 5.87644 12.4682 6.43723 11.8896 6.43723V7.43722C13.1399 7.43722 14.048 6.30127 14.048 5.04607H13.048ZM11.8896 6.43723C11.311 6.43723 10.7313 5.87645 10.7313 5.04607H9.73127C9.73127 6.30127 10.6394 7.43722 11.8896 7.43722V6.43723ZM10.7313 5.04607C10.7313 4.21565 11.311 3.65487 11.8896 3.65487V2.65487C10.6394 2.65487 9.73127 3.79086 9.73127 5.04607H10.7313ZM7.99971 5.56346C8.5783 5.56346 9.15806 6.12425 9.15806 6.95465H10.1581C10.1581 5.69943 9.24997 4.56346 7.99971 4.56346V5.56346ZM9.15806 6.95465C9.15806 7.78504 8.5783 8.34583 7.99971 8.34583V9.34583C9.24997 9.34583 10.1581 8.20986 10.1581 6.95465H9.15806ZM7.99971 8.34583C7.42113 8.34583 6.84137 7.78505 6.84137 6.95465H5.84137C5.84137 8.20986 6.74946 9.34583 7.99971 9.34583V8.34583ZM6.84137 6.95465C6.84137 6.12425 7.42114 5.56346 7.99971 5.56346V4.56346C6.74947 4.56346 5.84137 5.69943 5.84137 6.95465H6.84137ZM4.11106 3.65487C4.68964 3.65487 5.26939 4.21565 5.26939 5.04607H6.26939C6.26939 3.79086 5.36132 2.65487 4.11106 2.65487V3.65487ZM5.26939 5.04607C5.26939 5.87645 4.68964 6.43723 4.11106 6.43723V7.43722C5.3613 7.43722 6.26939 6.30127 6.26939 5.04607H5.26939ZM4.11106 6.43723C3.53249 6.43723 2.95273 5.87644 2.95273 5.04607H1.95273C1.95273 6.30127 2.86083 7.43722 4.11106 7.43722V6.43723ZM2.95273 5.04607C2.95273 4.21566 3.5325 3.65487 4.11106 3.65487V2.65487C2.86082 2.65487 1.95273 3.79085 1.95273 5.04607H2.95273ZM4.11106 11.1032C3.31016 11.1032 2.58431 10.9886 2.06537 10.7978L1.72025 11.7363C2.38013 11.979 3.22987 12.1032 4.11106 12.1032V11.1032ZM2.06538 10.7978C1.82516 10.7094 1.67951 10.6209 1.6043 10.5593C1.56667 10.5284 1.55724 10.5129 1.56056 10.518C1.56177 10.5198 1.59513 10.5698 1.59513 10.6595H0.595129C0.595129 10.974 0.813694 11.2042 0.970367 11.3326C1.15624 11.485 1.40943 11.622 1.72023 11.7363L2.06538 10.7978ZM1.59513 10.6595V9.67991H0.595129V10.6595H1.59513ZM1.59513 9.67991C1.59513 8.73659 2.19922 7.85773 3.13212 7.48271L2.75914 6.55487C1.46889 7.07354 0.595129 8.30565 0.595129 9.67991H1.59513ZM2.64039 7.41481C3.05341 7.73315 3.56028 7.92547 4.11106 7.92547V6.92547C3.79925 6.92547 3.50385 6.81776 3.25087 6.62278L2.64039 7.41481ZM4.11106 7.92547C4.66181 7.92547 5.16864 7.73318 5.58164 7.41488L4.9712 6.62282C4.71824 6.81778 4.42285 6.92547 4.11106 6.92547V7.92547ZM5.09022 7.48288C5.29162 7.5637 5.47997 7.66858 5.65237 7.79555L6.24538 6.99035C6.0044 6.81288 5.74184 6.66685 5.46262 6.55481L5.09022 7.48288ZM5.45546 7.47385C5.54257 8.00511 5.76136 8.49002 6.0778 8.88114L6.85522 8.25215C6.65059 7.99924 6.50201 7.67626 6.44229 7.31204L5.45546 7.47385ZM6.24826 8.11679C5.66212 8.40116 5.15835 8.82325 4.77716 9.35386L5.58931 9.93731C5.8727 9.54284 6.24691 9.22892 6.68476 9.01649L6.24826 8.11679ZM4.77716 9.35386C4.30591 10.0098 4.05567 10.7836 4.05567 11.5885H5.05567C5.05567 10.9942 5.23944 10.4243 5.58931 9.93732L4.77716 9.35386ZM4.05567 11.5885V11.5915H5.05567V11.5885H4.05567ZM4.52961 11.0922C4.39086 11.0994 4.25073 11.1032 4.11106 11.1032V12.1032C4.26847 12.1032 4.42598 12.099 4.58173 12.0908L4.52961 11.0922ZM10.0454 12.7063C9.52648 12.8972 8.80064 13.0117 7.99971 13.0117V14.0117C8.88091 14.0117 9.73065 13.8876 10.3905 13.6449L10.0454 12.7063ZM7.99971 13.0117C7.19878 13.0117 6.47294 12.8972 5.95403 12.7063L5.60889 13.6449C6.26877 13.8876 7.11851 14.0117 7.99971 14.0117V13.0117ZM5.95402 12.7063C5.71381 12.618 5.56817 12.5295 5.49296 12.4678C5.45533 12.437 5.44591 12.4215 5.44923 12.4266C5.45043 12.4284 5.48379 12.4784 5.48379 12.5681H4.48379C4.48379 12.8826 4.70232 13.1128 4.85901 13.2412C5.04489 13.3936 5.29809 13.5306 5.6089 13.6449L5.95402 12.7063ZM5.48379 12.5681V11.5885H4.48379V12.5681H5.48379ZM5.48379 11.5885C5.48379 10.6452 6.08787 9.7663 7.02074 9.39128L6.64775 8.46345C5.35752 8.98212 4.48379 10.2142 4.48379 11.5885H5.48379ZM6.52899 9.32337C6.94202 9.64175 7.44892 9.83407 7.99971 9.83407V8.83407C7.6879 8.83407 7.39247 8.72636 7.1395 8.53136L6.52899 9.32337ZM7.99971 9.83407C8.55046 9.83407 9.05729 9.64178 9.4703 9.32347L8.85985 8.53141C8.60688 8.72638 8.31149 8.83407 7.99971 8.83407V9.83407ZM8.97858 9.39136C9.91108 9.76623 10.5156 10.6461 10.5156 11.5885H11.5156C11.5156 10.2153 10.6415 8.98207 9.35158 8.46353L8.97858 9.39136ZM10.5156 11.5885V12.5681H11.5156V11.5885H10.5156ZM10.5156 12.5681C10.5156 12.4784 10.549 12.4284 10.5502 12.4266C10.5535 12.4215 10.5441 12.437 10.5064 12.4678C10.4312 12.5295 10.2856 12.618 10.0454 12.7063L10.3905 13.6449C10.7013 13.5306 10.9545 13.3936 11.1404 13.2412C11.2971 13.1128 11.5156 12.8826 11.5156 12.5681H10.5156ZM14.4055 10.6595C14.4055 10.5698 14.4389 10.5198 14.4401 10.518C14.4434 10.5129 14.434 10.5284 14.3964 10.5593C14.3212 10.6209 14.1755 10.7095 13.9353 10.7978L14.2805 11.7363C14.5912 11.622 14.8444 11.485 15.0303 11.3327C15.187 11.2042 15.4055 10.9741 15.4055 10.6595H14.4055ZM13.9353 10.7978C13.4164 10.9886 12.6905 11.1032 11.8896 11.1032V12.1032C12.7708 12.1032 13.6205 11.979 14.2804 11.7363L13.9353 10.7978ZM11.8896 11.1032C11.7497 11.1032 11.6091 11.0994 11.4699 11.0921L11.4176 12.0908C11.5739 12.0989 11.7319 12.1032 11.8896 12.1032V11.1032ZM11.9438 11.5914V11.5885H10.9438V11.5914H11.9438ZM11.9438 11.5885C11.9438 10.7859 11.6948 10.0139 11.226 9.35906L10.4129 9.94117C10.7609 10.4273 10.9438 10.996 10.9438 11.5885H11.9438ZM11.226 9.35907C10.8445 8.82614 10.3392 8.40222 9.75116 8.11688L9.31463 9.01656C9.75405 9.22977 10.1293 9.54509 10.4129 9.94117L11.226 9.35907ZM9.9216 8.88122C10.2378 8.4904 10.4565 8.00591 10.5438 7.4751L9.55703 7.31291C9.49722 7.67679 9.34868 7.99948 9.14419 8.25222L9.9216 8.88122ZM10.3471 7.79643C10.5199 7.66908 10.7086 7.5639 10.9105 7.48288L10.538 6.55483C10.2582 6.66714 9.99508 6.81356 9.75366 6.99158L10.3471 7.79643ZM10.419 7.41489C10.832 7.73319 11.3389 7.92548 11.8896 7.92548V6.92548C11.5778 6.92548 11.2824 6.81779 11.0295 6.62282L10.419 7.41489ZM11.8896 7.92548C12.4404 7.92548 12.9473 7.73317 13.3603 7.41482L12.7498 6.62279C12.4968 6.81777 12.2014 6.92548 11.8896 6.92548V7.92548ZM12.8685 7.48272C13.8014 7.85775 14.4055 8.73661 14.4055 9.67992H15.4055C15.4055 8.30565 14.5318 7.07356 13.2415 6.55488L12.8685 7.48272ZM14.4055 9.67992V10.6595H15.4055V9.67992H14.4055Z" fill="#7F8CB9" mask="url(#path-1-outside-1_958_18795)"/>
</g>
<defs>
<clipPath id="clip0_958_18795">
<rect width="16" height="16" fill="white"/>
</clipPath>
</defs>
</svg>
