<svg width="24" height="24" viewBox="0 0 24 24" fill="none" xmlns="http://www.w3.org/2000/svg">
<g id="Icons / Search">
<path id="Vector" d="M16.1634 15.3313L15.8614 15.6828L16.1891 16.0106L20.6956 20.5182L20.5483 20.6656L20.4009 20.8129L15.8838 16.2958L15.5626 15.9746L15.2122 16.2636C13.6669 17.5378 11.6893 18.1661 9.69197 18.0172C7.69465 17.8684 5.83197 16.954 4.49265 15.4648C3.15332 13.9756 2.44083 12.0267 2.50385 10.0249C2.56688 8.02301 3.40055 6.12282 4.8309 4.72085C6.26125 3.31887 8.17776 2.52343 10.1805 2.50052C12.1832 2.47762 14.1174 3.22901 15.5795 4.5979C17.0415 5.96679 17.9184 7.84742 18.0272 9.84731C18.136 11.8472 17.4683 13.8119 16.1634 15.3313ZM17.6215 10.269C17.6215 8.31918 16.847 6.44924 15.4683 5.07052C14.0895 3.6918 12.2196 2.91724 10.2698 2.91724C8.32 2.91724 6.45005 3.6918 5.07133 5.07052C3.69261 6.44924 2.91806 8.31918 2.91806 10.269C2.91806 12.2188 3.69261 14.0887 5.07133 15.4675C6.45005 16.8462 8.32 17.6207 10.2698 17.6207C12.2196 17.6207 14.0895 16.8462 15.4683 15.4675C16.847 14.0887 17.6215 12.2188 17.6215 10.269Z" fill="#48494D" stroke="#48494D"/>
</g>
</svg>
