<svg width="16" height="16" viewBox="0 0 16 16" fill="none" xmlns="http://www.w3.org/2000/svg">
<mask id="path-1-inside-1_1368_2217" fill="white">
<path fill-rule="evenodd" clip-rule="evenodd" d="M11.407 10.7428L15.052 14.3887L14.6764 14.7643L14.3007 15.14L10.6477 11.487C9.41418 12.5042 7.8355 13.0057 6.24111 12.8869C4.64672 12.7681 3.1598 12.0381 2.09066 10.8493C1.02152 9.66058 0.452764 8.10487 0.503074 6.50685C0.553385 4.90882 1.21888 3.39197 2.36068 2.27282C3.50248 1.15367 5.03236 0.518693 6.63107 0.500406C8.22978 0.482119 9.77379 1.08193 10.9409 2.17467C12.108 3.26741 12.808 4.76865 12.8949 6.3651C12.9817 7.96156 12.4487 9.52988 11.407 10.7428ZM11.8412 6.70173C11.8412 5.33883 11.2997 4.03176 10.336 3.06804C9.37232 2.10433 8.06524 1.56292 6.70235 1.56292C5.33945 1.56292 4.03238 2.10433 3.06867 3.06804C2.10495 4.03176 1.56354 5.33883 1.56354 6.70173C1.56354 8.06462 2.10495 9.3717 3.06867 10.3354C4.03238 11.2991 5.33945 11.8405 6.70235 11.8405C8.06524 11.8405 9.37232 11.2991 10.336 10.3354C11.2997 9.3717 11.8412 8.06462 11.8412 6.70173Z"/>
</mask>
<path fill-rule="evenodd" clip-rule="evenodd" d="M11.407 10.7428L15.052 14.3887L14.6764 14.7643L14.3007 15.14L10.6477 11.487C9.41418 12.5042 7.8355 13.0057 6.24111 12.8869C4.64672 12.7681 3.1598 12.0381 2.09066 10.8493C1.02152 9.66058 0.452764 8.10487 0.503074 6.50685C0.553385 4.90882 1.21888 3.39197 2.36068 2.27282C3.50248 1.15367 5.03236 0.518693 6.63107 0.500406C8.22978 0.482119 9.77379 1.08193 10.9409 2.17467C12.108 3.26741 12.808 4.76865 12.8949 6.3651C12.9817 7.96156 12.4487 9.52988 11.407 10.7428ZM11.8412 6.70173C11.8412 5.33883 11.2997 4.03176 10.336 3.06804C9.37232 2.10433 8.06524 1.56292 6.70235 1.56292C5.33945 1.56292 4.03238 2.10433 3.06867 3.06804C2.10495 4.03176 1.56354 5.33883 1.56354 6.70173C1.56354 8.06462 2.10495 9.3717 3.06867 10.3354C4.03238 11.2991 5.33945 11.8405 6.70235 11.8405C8.06524 11.8405 9.37232 11.2991 10.336 10.3354C11.2997 9.3717 11.8412 8.06462 11.8412 6.70173Z" fill="#1D1D1D"/>
<path d="M11.407 10.7428L10.2691 9.76549L9.36331 10.8202L10.3462 11.8033L11.407 10.7428ZM15.052 14.3887L16.1127 15.4493L17.1732 14.3888L16.1128 13.3281L15.052 14.3887ZM14.3007 15.14L13.24 16.2007L14.3007 17.2613L15.3614 16.2007L14.3007 15.14ZM10.6477 11.487L11.7084 10.4264L10.7448 9.46277L9.69341 10.3297L10.6477 11.487ZM11.8412 6.70173H13.3412H11.8412ZM6.70235 1.56292V0.0629208V1.56292ZM1.56354 6.70173L0.0635436 6.70173L1.56354 6.70173ZM6.70235 11.8405V13.3405V11.8405ZM10.3462 11.8033L13.9912 15.4492L16.1128 13.3281L12.4678 9.68225L10.3462 11.8033ZM15.3614 14.0793L11.7084 10.4264L9.58705 12.5477L13.24 16.2007L15.3614 14.0793ZM9.69341 10.3297C8.75822 11.1009 7.56136 11.4811 6.35258 11.391L6.12964 14.3827C8.10965 14.5303 10.0701 13.9075 11.602 12.6443L9.69341 10.3297ZM6.35258 11.391C5.14381 11.3009 4.01651 10.7475 3.20595 9.84628L0.975377 11.8524C2.30309 13.3287 4.14963 14.2352 6.12964 14.3827L6.35258 11.391ZM3.20595 9.84628C2.39539 8.94503 1.96419 7.76558 2.00233 6.55405L-0.996183 6.45965C-1.05866 8.44416 -0.352342 10.3761 0.975377 11.8524L3.20595 9.84628ZM2.00233 6.55405C2.04047 5.34252 2.54501 4.19252 3.41066 3.34405L1.3107 1.20158C-0.107255 2.59141 -0.933704 4.47513 -0.996183 6.45965L2.00233 6.55405ZM3.41066 3.34405C4.27631 2.49557 5.43618 2.01417 6.64823 2.00031L6.61392 -0.999496C4.62855 -0.976786 2.72865 -0.18824 1.3107 1.20158L3.41066 3.34405ZM6.64823 2.00031C7.86028 1.98644 9.03086 2.44119 9.91569 3.26964L11.9661 1.0797C10.5167 -0.277323 8.59928 -1.02221 6.61392 -0.999496L6.64823 2.00031ZM9.91569 3.26964C10.8005 4.09809 11.3312 5.23625 11.3971 6.44659L14.3926 6.28362C14.2848 4.30106 13.4155 2.43673 11.9661 1.0797L9.91569 3.26964ZM11.3971 6.44659C11.4629 7.65693 11.0588 8.84594 10.2691 9.76549L12.545 11.7201C13.8386 10.2138 14.5005 8.26619 14.3926 6.28362L11.3971 6.44659ZM13.3412 6.70173C13.3412 4.94101 12.6417 3.2524 11.3967 2.00738L9.27537 4.1287C9.95778 4.81111 10.3412 5.73666 10.3412 6.70173L13.3412 6.70173ZM11.3967 2.00738C10.1517 0.762365 8.46307 0.0629208 6.70235 0.0629208V3.06292C7.66742 3.06292 8.59296 3.44629 9.27537 4.1287L11.3967 2.00738ZM6.70235 0.0629208C4.94163 0.0629208 3.25302 0.762365 2.008 2.00738L4.12933 4.1287C4.81173 3.44629 5.73728 3.06292 6.70235 3.06292V0.0629208ZM2.008 2.00738C0.762987 3.2524 0.0635436 4.94101 0.0635436 6.70173L3.06354 6.70173C3.06354 5.73666 3.44692 4.81111 4.12933 4.1287L2.008 2.00738ZM0.0635436 6.70173C0.0635436 8.46245 0.762988 10.1511 2.008 11.3961L4.12933 9.27475C3.44692 8.59234 3.06354 7.6668 3.06354 6.70173L0.0635436 6.70173ZM2.008 11.3961C3.25302 12.6411 4.94163 13.3405 6.70235 13.3405V10.3405C5.73728 10.3405 4.81173 9.95716 4.12933 9.27475L2.008 11.3961ZM6.70235 13.3405C8.46307 13.3405 10.1517 12.6411 11.3967 11.3961L9.27537 9.27475C8.59297 9.95716 7.66742 10.3405 6.70235 10.3405V13.3405ZM11.3967 11.3961C12.6417 10.1511 13.3412 8.46245 13.3412 6.70173H10.3412C10.3412 7.6668 9.95778 8.59234 9.27537 9.27475L11.3967 11.3961ZM13.9914 13.328L13.6157 13.7037L15.737 15.825L16.1127 15.4493L13.9914 13.328ZM13.6157 13.7037L13.24 14.0793L15.3614 16.2007L15.737 15.825L13.6157 13.7037Z" fill="#9798A2" mask="url(#path-1-inside-1_1368_2217)"/>
</svg>
