<svg width="27" height="26" viewBox="0 0 27 26" fill="none" xmlns="http://www.w3.org/2000/svg">
<g clip-path="url(#clip0_1439_16341)">
<path d="M8.00056 25.5134C7.48795 25.1724 7.03363 24.751 6.65506 24.2654C6.23864 23.7642 5.85282 23.2384 5.49969 22.6908C4.671 21.4767 4.02113 20.1499 3.57 18.751C3.02806 17.126 2.76562 15.5684 2.76562 14.045C2.76562 12.3436 3.13369 10.8583 3.85356 9.61033C4.38719 8.63488 5.17177 7.81972 6.12612 7.24921C7.051 6.67474 8.11369 6.36037 9.20225 6.33921C9.58331 6.33921 9.99362 6.39446 10.4291 6.50008C10.7419 6.58864 11.123 6.72839 11.5886 6.90227C12.1809 7.13058 12.5067 7.27033 12.6172 7.30446C12.9641 7.43121 13.2558 7.48645 13.4849 7.48645C13.6588 7.48645 13.9042 7.43121 14.1829 7.34671C14.3397 7.29146 14.6354 7.19395 15.0587 7.01277C15.478 6.86002 15.8079 6.72921 16.0703 6.63171C16.4725 6.51308 16.8617 6.40339 17.2086 6.34814C17.6199 6.2833 18.0373 6.26612 18.4526 6.29696C19.1721 6.34399 19.8809 6.49647 20.5561 6.74952C21.6603 7.19396 22.5532 7.88783 23.2179 8.87421C22.937 9.04735 22.6733 9.24705 22.4306 9.47058C21.9021 9.93905 21.452 10.489 21.0972 11.0996C20.6336 11.9341 20.3932 12.8742 20.3993 13.8288C20.4164 15.0013 20.717 16.034 21.3093 16.9269C21.7448 17.5887 22.3107 18.1546 22.9725 18.5901C23.3113 18.8184 23.603 18.9752 23.8825 19.0808C23.7517 19.4871 23.6119 19.8803 23.447 20.2703C23.0729 21.1449 22.6196 21.9834 22.0926 22.7753C21.6229 23.457 21.2549 23.9648 20.9754 24.3028C20.5399 24.8187 20.1206 25.2128 19.6973 25.4874C19.2317 25.7961 18.6817 25.9611 18.1227 25.9611C17.7441 25.9756 17.3656 25.9298 17.0014 25.8254C16.6886 25.7198 16.3791 25.6052 16.0744 25.4744C15.7576 25.3289 15.431 25.2059 15.0969 25.1063C14.2712 24.8942 13.4054 24.8928 12.579 25.1023C12.2402 25.1998 11.9144 25.3135 11.5926 25.4533C11.1401 25.6434 10.8394 25.771 10.6656 25.8254C10.3186 25.927 9.95869 25.9903 9.59469 26.0115C9.03162 26.0115 8.50675 25.8506 7.98675 25.5248L8.00056 25.5134ZM15.4268 5.5137C14.6907 5.88177 13.9879 6.03858 13.2899 5.98739C13.1802 5.28458 13.2899 4.56552 13.5816 3.77821C13.83 3.1112 14.1969 2.4946 14.6647 1.95821C15.1587 1.39354 15.7581 0.930698 16.4294 0.595643C17.1444 0.22758 17.8261 0.0285176 18.4777 -0.000732422C18.5622 0.735393 18.4777 1.45933 18.2072 2.24177C17.9568 2.93344 17.5906 3.57746 17.1241 4.14627C16.648 4.71171 16.0638 5.17634 15.4057 5.51289L15.4268 5.5137Z" fill="black"/>
</g>
<defs>
<clipPath id="clip0_1439_16341">
<rect width="26" height="26" fill="white" transform="translate(0.332031)"/>
</clipPath>
</defs>
</svg>
