<svg width="24" height="24" viewBox="0 0 24 24" fill="none" xmlns="http://www.w3.org/2000/svg">
<g clip-path="url(#clip0_1204_4163)">
<mask id="path-1-inside-1_1204_4163" fill="white">
<path d="M14.8152 13.3212C15.8712 13.3212 16.9044 13.4964 17.8812 13.8348C17.9842 13.8691 18.0793 13.9236 18.161 13.9951C18.2427 14.0666 18.3093 14.1536 18.3569 14.2512C18.4045 14.3488 18.4322 14.4548 18.4383 14.5632C18.4444 14.6716 18.4288 14.7801 18.3924 14.8824C18.316 15.0896 18.1612 15.2584 17.9613 15.3523C17.7614 15.4462 17.5326 15.4576 17.3244 15.384C16.5175 15.1056 15.6699 14.9637 14.8164 14.964C10.656 14.964 7.2852 18.2724 7.2852 22.3548C7.2852 22.6044 7.2972 22.852 7.3212 23.0976C7.34088 23.316 7.27308 23.5334 7.1327 23.7019C6.99231 23.8704 6.7908 23.9763 6.5724 23.9964C6.35337 24.0196 6.13406 23.9551 5.96246 23.8171C5.79087 23.679 5.68096 23.4785 5.6568 23.2596C5.62737 22.9589 5.61215 22.6569 5.6112 22.3548C5.6112 17.3664 9.732 13.3212 14.8152 13.3212ZM19.7904 14.964C20.0113 14.9661 20.2226 15.0544 20.3795 15.2099C20.5363 15.3654 20.6263 15.5759 20.6304 15.7968V18.5076L23.1672 18.5016C23.3669 18.5059 23.5588 18.5802 23.7092 18.7116C23.8597 18.843 23.9592 19.0231 23.9904 19.2204L24 19.3428C24.0008 19.451 23.98 19.5583 23.9386 19.6583C23.8973 19.7583 23.8364 19.849 23.7594 19.925C23.6825 20.0011 23.591 20.061 23.4906 20.1011C23.3901 20.1413 23.2826 20.1609 23.1744 20.1588L20.6304 20.1648V23.0088C20.6327 23.117 20.6132 23.2246 20.5731 23.3252C20.533 23.4257 20.4731 23.5172 20.397 23.5942C20.3209 23.6712 20.2301 23.7321 20.1301 23.7734C20.03 23.8146 19.9226 23.8354 19.8144 23.8344C19.5935 23.8322 19.3822 23.744 19.2253 23.5885C19.0685 23.433 18.9785 23.2224 18.9744 23.0016L18.9732 20.1684L15.9612 20.1768C15.7619 20.1723 15.5704 20.098 15.4203 19.9669C15.2701 19.8357 15.1706 19.6561 15.1392 19.4592L15.1296 19.3356C15.1288 19.2275 15.1496 19.1203 15.1909 19.0204C15.2321 18.9205 15.2929 18.8298 15.3698 18.7538C15.4466 18.6777 15.5379 18.6178 15.6382 18.5776C15.7385 18.5374 15.8459 18.5177 15.954 18.5196L18.9732 18.5112V15.7884C18.9713 15.6802 18.991 15.5727 19.0313 15.4723C19.0716 15.3719 19.1316 15.2806 19.2078 15.2037C19.284 15.1269 19.3748 15.0661 19.4748 15.0249C19.5749 14.9837 19.6822 14.963 19.7904 14.964ZM9.2052 9.864C9.31404 9.86289 9.42202 9.88325 9.52298 9.92392C9.62394 9.96458 9.71589 10.0248 9.79358 10.101C9.87126 10.1772 9.93315 10.268 9.97571 10.3682C10.0183 10.4684 10.0407 10.576 10.0416 10.6848C10.0408 10.7937 10.0185 10.9015 9.97605 11.0018C9.93357 11.1021 9.8717 11.193 9.794 11.2694C9.7163 11.3457 9.6243 11.406 9.52326 11.4468C9.42222 11.4875 9.31414 11.5079 9.2052 11.5068C5.0448 11.5068 1.674 14.8152 1.674 18.8976C1.674 19.1464 1.686 19.3936 1.71 19.6392C1.73001 19.8578 1.66237 20.0755 1.52195 20.2442C1.38153 20.413 1.17983 20.5191 0.9612 20.5392C0.742171 20.5624 0.52286 20.4979 0.351264 20.3599C0.179667 20.2218 0.0697617 20.0213 0.0456 19.8024C0.0161696 19.5017 0.000952662 19.1997 0 18.8976C0 13.908 4.122 9.864 9.2052 9.864ZM15.1296 3.5592C17.7492 3.5592 19.872 5.6436 19.872 8.2128C19.872 10.782 17.748 12.8664 15.1296 12.8664C12.5112 12.8664 10.3884 10.7832 10.3884 8.2128C10.3884 5.6436 12.5112 3.5592 15.1296 3.5592ZM15.1296 5.202C13.4352 5.202 12.0612 6.5496 12.0612 8.214C12.0612 9.876 13.4352 11.2236 15.1296 11.2236C16.824 11.2236 18.198 9.876 18.198 8.2128C18.198 6.5496 16.824 5.202 15.1296 5.202ZM9.63 0C11.124 0 12.504 0.684 13.3956 1.824C13.6764 2.184 13.6068 2.7 13.2396 2.976C13.0629 3.10841 12.8414 3.16658 12.6224 3.13811C12.4034 3.10964 12.2042 2.99679 12.0672 2.8236C11.7776 2.45431 11.4075 2.15599 10.9851 1.95137C10.5628 1.74674 10.0993 1.6412 9.63 1.6428C7.9356 1.6428 6.5616 2.9904 6.5616 4.6536C6.5616 6.108 7.62 7.3476 9.0588 7.6128C9.5124 7.6968 9.8124 8.1252 9.7272 8.5716C9.68342 8.78765 9.55612 8.97769 9.37298 9.10038C9.18984 9.22308 8.96566 9.26851 8.7492 9.2268C6.5232 8.8164 4.8876 6.9012 4.8876 4.6536C4.8876 2.0832 7.0116 0 9.63 0Z"/>
</mask>
<path d="M14.8152 13.3212C15.8712 13.3212 16.9044 13.4964 17.8812 13.8348C17.9842 13.8691 18.0793 13.9236 18.161 13.9951C18.2427 14.0666 18.3093 14.1536 18.3569 14.2512C18.4045 14.3488 18.4322 14.4548 18.4383 14.5632C18.4444 14.6716 18.4288 14.7801 18.3924 14.8824C18.316 15.0896 18.1612 15.2584 17.9613 15.3523C17.7614 15.4462 17.5326 15.4576 17.3244 15.384C16.5175 15.1056 15.6699 14.9637 14.8164 14.964C10.656 14.964 7.2852 18.2724 7.2852 22.3548C7.2852 22.6044 7.2972 22.852 7.3212 23.0976C7.34088 23.316 7.27308 23.5334 7.1327 23.7019C6.99231 23.8704 6.7908 23.9763 6.5724 23.9964C6.35337 24.0196 6.13406 23.9551 5.96246 23.8171C5.79087 23.679 5.68096 23.4785 5.6568 23.2596C5.62737 22.9589 5.61215 22.6569 5.6112 22.3548C5.6112 17.3664 9.732 13.3212 14.8152 13.3212ZM19.7904 14.964C20.0113 14.9661 20.2226 15.0544 20.3795 15.2099C20.5363 15.3654 20.6263 15.5759 20.6304 15.7968V18.5076L23.1672 18.5016C23.3669 18.5059 23.5588 18.5802 23.7092 18.7116C23.8597 18.843 23.9592 19.0231 23.9904 19.2204L24 19.3428C24.0008 19.451 23.98 19.5583 23.9386 19.6583C23.8973 19.7583 23.8364 19.849 23.7594 19.925C23.6825 20.0011 23.591 20.061 23.4906 20.1011C23.3901 20.1413 23.2826 20.1609 23.1744 20.1588L20.6304 20.1648V23.0088C20.6327 23.117 20.6132 23.2246 20.5731 23.3252C20.533 23.4257 20.4731 23.5172 20.397 23.5942C20.3209 23.6712 20.2301 23.7321 20.1301 23.7734C20.03 23.8146 19.9226 23.8354 19.8144 23.8344C19.5935 23.8322 19.3822 23.744 19.2253 23.5885C19.0685 23.433 18.9785 23.2224 18.9744 23.0016L18.9732 20.1684L15.9612 20.1768C15.7619 20.1723 15.5704 20.098 15.4203 19.9669C15.2701 19.8357 15.1706 19.6561 15.1392 19.4592L15.1296 19.3356C15.1288 19.2275 15.1496 19.1203 15.1909 19.0204C15.2321 18.9205 15.2929 18.8298 15.3698 18.7538C15.4466 18.6777 15.5379 18.6178 15.6382 18.5776C15.7385 18.5374 15.8459 18.5177 15.954 18.5196L18.9732 18.5112V15.7884C18.9713 15.6802 18.991 15.5727 19.0313 15.4723C19.0716 15.3719 19.1316 15.2806 19.2078 15.2037C19.284 15.1269 19.3748 15.0661 19.4748 15.0249C19.5749 14.9837 19.6822 14.963 19.7904 14.964ZM9.2052 9.864C9.31404 9.86289 9.42202 9.88325 9.52298 9.92392C9.62394 9.96458 9.71589 10.0248 9.79358 10.101C9.87126 10.1772 9.93315 10.268 9.97571 10.3682C10.0183 10.4684 10.0407 10.576 10.0416 10.6848C10.0408 10.7937 10.0185 10.9015 9.97605 11.0018C9.93357 11.1021 9.8717 11.193 9.794 11.2694C9.7163 11.3457 9.6243 11.406 9.52326 11.4468C9.42222 11.4875 9.31414 11.5079 9.2052 11.5068C5.0448 11.5068 1.674 14.8152 1.674 18.8976C1.674 19.1464 1.686 19.3936 1.71 19.6392C1.73001 19.8578 1.66237 20.0755 1.52195 20.2442C1.38153 20.413 1.17983 20.5191 0.9612 20.5392C0.742171 20.5624 0.52286 20.4979 0.351264 20.3599C0.179667 20.2218 0.0697617 20.0213 0.0456 19.8024C0.0161696 19.5017 0.000952662 19.1997 0 18.8976C0 13.908 4.122 9.864 9.2052 9.864ZM15.1296 3.5592C17.7492 3.5592 19.872 5.6436 19.872 8.2128C19.872 10.782 17.748 12.8664 15.1296 12.8664C12.5112 12.8664 10.3884 10.7832 10.3884 8.2128C10.3884 5.6436 12.5112 3.5592 15.1296 3.5592ZM15.1296 5.202C13.4352 5.202 12.0612 6.5496 12.0612 8.214C12.0612 9.876 13.4352 11.2236 15.1296 11.2236C16.824 11.2236 18.198 9.876 18.198 8.2128C18.198 6.5496 16.824 5.202 15.1296 5.202ZM9.63 0C11.124 0 12.504 0.684 13.3956 1.824C13.6764 2.184 13.6068 2.7 13.2396 2.976C13.0629 3.10841 12.8414 3.16658 12.6224 3.13811C12.4034 3.10964 12.2042 2.99679 12.0672 2.8236C11.7776 2.45431 11.4075 2.15599 10.9851 1.95137C10.5628 1.74674 10.0993 1.6412 9.63 1.6428C7.9356 1.6428 6.5616 2.9904 6.5616 4.6536C6.5616 6.108 7.62 7.3476 9.0588 7.6128C9.5124 7.6968 9.8124 8.1252 9.7272 8.5716C9.68342 8.78765 9.55612 8.97769 9.37298 9.10038C9.18984 9.22308 8.96566 9.26851 8.7492 9.2268C6.5232 8.8164 4.8876 6.9012 4.8876 4.6536C4.8876 2.0832 7.0116 0 9.63 0Z" fill="#15AB94"/>
<path d="M17.8812 13.8348L17.2265 15.7246L17.2381 15.7286L17.2497 15.7325L17.8812 13.8348ZM18.3924 14.8824L20.2691 15.5739L20.273 15.5632L20.2768 15.5524L18.3924 14.8824ZM17.3244 15.384L17.9906 13.4982L17.9837 13.4958L17.9767 13.4934L17.3244 15.384ZM14.8164 14.964V16.964H14.8172L14.8164 14.964ZM7.3212 23.0976L9.31314 22.9182L9.31246 22.9106L9.31172 22.9031L7.3212 23.0976ZM6.5724 23.9964L6.38916 22.0048L6.37531 22.0061L6.36148 22.0076L6.5724 23.9964ZM5.6568 23.2596L3.66631 23.4544L3.66751 23.4667L3.66887 23.479L5.6568 23.2596ZM5.6112 22.3548H3.61119L3.61121 22.3611L5.6112 22.3548ZM19.7904 14.964L19.8099 12.9641L19.8085 12.9641L19.7904 14.964ZM20.6304 15.7968H22.6304V15.7785L22.6301 15.7601L20.6304 15.7968ZM20.6304 18.5076H18.6304V20.5123L20.6351 20.5076L20.6304 18.5076ZM23.1672 18.5016L23.2103 16.5021L23.1864 16.5015L23.1625 16.5016L23.1672 18.5016ZM23.9904 19.2204L25.9843 19.064L25.9781 18.9857L25.9659 18.9082L23.9904 19.2204ZM24 19.3428L25.9999 19.3276L25.9994 19.2569L25.9939 19.1864L24 19.3428ZM23.1744 20.1588L23.213 18.1592L23.1913 18.1588L23.1697 18.1588L23.1744 20.1588ZM20.6304 20.1648L20.6257 18.1648L18.6304 18.1695V20.1648H20.6304ZM20.6304 23.0088H18.6304V23.0296L18.6308 23.0504L20.6304 23.0088ZM19.8144 23.8344L19.7949 25.8343L19.7962 25.8343L19.8144 23.8344ZM18.9744 23.0016L16.9744 23.0024L16.9744 23.0204L16.9747 23.0383L18.9744 23.0016ZM18.9732 20.1684L20.9732 20.1676L20.9724 18.1628L18.9676 18.1684L18.9732 20.1684ZM15.9612 20.1768L15.9157 22.1763L15.9413 22.1769L15.9668 22.1768L15.9612 20.1768ZM15.1392 19.4592L13.1452 19.6141L13.1515 19.6945L13.1642 19.7742L15.1392 19.4592ZM15.1296 19.3356L13.1297 19.3507L13.1302 19.4207L13.1356 19.4905L15.1296 19.3356ZM15.954 18.5196L15.9184 20.5193L15.939 20.5196L15.9596 20.5196L15.954 18.5196ZM18.9732 18.5112L18.9788 20.5112L20.9732 20.5056V18.5112H18.9732ZM18.9732 15.7884H20.9732V15.7706L20.9729 15.7528L18.9732 15.7884ZM9.2052 9.864V11.864H9.21538L9.22556 11.8639L9.2052 9.864ZM10.0416 10.6848L12.0415 10.6992L12.0417 10.6834L12.0415 10.6675L10.0416 10.6848ZM9.2052 11.5068L9.22554 9.5069L9.21537 9.5068H9.2052V11.5068ZM1.71 19.6392L3.70171 19.4569L3.70052 19.4447L1.71 19.6392ZM0.9612 20.5392L0.778221 18.5476L0.764242 18.5489L0.750283 18.5504L0.9612 20.5392ZM0.0456 19.8024L-1.94489 19.9972L-1.94369 20.0095L-1.94233 20.0218L0.0456 19.8024ZM0 18.8976H-2.00001L-1.99999 18.9039L0 18.8976ZM13.3956 1.824L14.9726 0.593935L14.971 0.591875L13.3956 1.824ZM13.2396 2.976L14.4388 4.57662L14.4413 4.57475L13.2396 2.976ZM12.0672 2.8236L10.4934 4.05784L10.4987 4.06445L12.0672 2.8236ZM9.63 1.6428V3.64281L9.6368 3.64279L9.63 1.6428ZM9.0588 7.6128L9.42298 5.64623L9.42133 5.64593L9.0588 7.6128ZM9.7272 8.5716L11.6874 8.96876L11.6896 8.95767L11.6917 8.94655L9.7272 8.5716ZM8.7492 9.2268L9.12762 7.26293L9.11973 7.26141L9.11182 7.25995L8.7492 9.2268ZM4.8876 4.6536H2.8876H4.8876ZM14.8152 15.3212C15.6491 15.3212 16.461 15.4594 17.2265 15.7246L18.5359 11.945C17.3478 11.5334 16.0933 11.3212 14.8152 11.3212V15.3212ZM17.2497 15.7325C17.1002 15.6827 16.9622 15.6037 16.8437 15.4999L19.4783 12.4902C19.1964 12.2434 18.8682 12.0554 18.5127 11.9371L17.2497 15.7325ZM16.8437 15.4999C16.7252 15.3962 16.6285 15.2698 16.5595 15.1283L20.1543 13.3741C19.99 13.0374 19.7602 12.7369 19.4783 12.4902L16.8437 15.4999ZM16.5595 15.1283C16.4904 14.9867 16.4503 14.8328 16.4414 14.6756L20.4351 14.4509C20.4141 14.0769 20.3186 13.7108 20.1543 13.3741L16.5595 15.1283ZM16.4414 14.6756C16.4326 14.5183 16.4552 14.3608 16.508 14.2124L20.2768 15.5524C20.4023 15.1994 20.4561 14.8249 20.4351 14.4509L16.4414 14.6756ZM16.5157 14.1909C16.6212 13.9048 16.8351 13.6716 17.1111 13.542L18.8115 17.1626C19.4873 16.8452 20.0109 16.2745 20.2691 15.5739L16.5157 14.1909ZM17.1111 13.542C17.3871 13.4124 17.7031 13.3966 17.9906 13.4982L16.6582 17.2698C17.3622 17.5185 18.1357 17.48 18.8115 17.1626L17.1111 13.542ZM17.9767 13.4934C16.9598 13.1425 15.8914 12.9636 14.8156 12.964L14.8172 16.964C15.4485 16.9637 16.0753 17.0687 16.6721 17.2746L17.9767 13.4934ZM14.8164 12.964C9.587 12.964 5.2852 17.1326 5.2852 22.3548H9.2852C9.2852 19.4122 11.725 16.964 14.8164 16.964V12.964ZM5.2852 22.3548C5.2852 22.6686 5.30029 22.9811 5.33068 23.2921L9.31172 22.9031C9.29411 22.7229 9.2852 22.5402 9.2852 22.3548H5.2852ZM5.32926 23.277C5.30141 22.9678 5.39737 22.6602 5.59609 22.4217L8.66931 24.982C9.14879 24.4065 9.38034 23.6642 9.31314 22.9182L5.32926 23.277ZM5.59609 22.4217C5.7948 22.1832 6.08003 22.0333 6.38916 22.0048L6.75564 25.988C7.50158 25.9194 8.18982 25.5576 8.66931 24.982L5.59609 22.4217ZM6.36148 22.0076C6.66846 21.975 6.97583 22.0654 7.21633 22.2589L4.7086 25.3752C5.29229 25.8449 6.03828 26.0643 6.78332 25.9852L6.36148 22.0076ZM7.21633 22.2589C7.45683 22.4524 7.61087 22.7334 7.64473 23.0402L3.66887 23.479C3.75106 24.2237 4.1249 24.9055 4.7086 25.3752L7.21633 22.2589ZM7.64729 23.0648C7.62399 22.8267 7.61194 22.5877 7.61119 22.3485L3.61121 22.3611C3.61236 22.7262 3.63075 23.091 3.66631 23.4544L7.64729 23.0648ZM7.6112 22.3548C7.6112 18.5059 10.8013 15.3212 14.8152 15.3212V11.3212C8.66273 11.3212 3.6112 16.2269 3.6112 22.3548H7.6112ZM19.7709 16.9639C19.4711 16.961 19.1843 16.8413 18.9714 16.6302L21.7876 13.7896C21.2609 13.2675 20.5514 12.9713 19.8099 12.9641L19.7709 16.9639ZM18.9714 16.6302C18.7584 16.4191 18.6362 16.1333 18.6307 15.8335L22.6301 15.7601C22.6165 15.0186 22.3142 14.3117 21.7876 13.7896L18.9714 16.6302ZM18.6304 15.7968V18.5076H22.6304V15.7968H18.6304ZM20.6351 20.5076L23.1719 20.5016L23.1625 16.5016L20.6257 16.5076L20.6351 20.5076ZM23.1241 20.5011C22.855 20.4953 22.5965 20.3952 22.3938 20.2181L25.0247 17.2051C24.521 16.7653 23.8788 16.5165 23.2103 16.5021L23.1241 20.5011ZM22.3938 20.2181C22.191 20.0411 22.0569 19.7985 22.0149 19.5326L25.9659 18.9082C25.8615 18.2477 25.5284 17.6449 25.0247 17.2051L22.3938 20.2181ZM21.9965 19.3768L22.0061 19.4992L25.9939 19.1864L25.9843 19.064L21.9965 19.3768ZM22.0001 19.358C21.9989 19.199 22.0295 19.0414 22.0902 18.8945L25.7871 20.422C25.9304 20.0751 26.0028 19.703 25.9999 19.3276L22.0001 19.358ZM22.0902 18.8945C22.1509 18.7476 22.2405 18.6143 22.3535 18.5026L25.1653 21.3475C25.4323 21.0836 25.6437 20.769 25.7871 20.422L22.0902 18.8945ZM22.3535 18.5026C22.4666 18.3908 22.6009 18.3029 22.7485 18.2439L24.2327 21.9584C24.5812 21.8191 24.8984 21.6114 25.1653 21.3475L22.3535 18.5026ZM22.7485 18.2439C22.8961 18.1849 23.0541 18.1561 23.213 18.1592L23.1358 22.1584C23.5111 22.1657 23.8841 22.0976 24.2327 21.9584L22.7485 18.2439ZM23.1697 18.1588L20.6257 18.1648L20.6351 22.1648L23.1791 22.1588L23.1697 18.1588ZM18.6304 20.1648V23.0088H22.6304V20.1648H18.6304ZM18.6308 23.0504C18.6275 22.891 18.6562 22.7326 18.7153 22.5845L22.4309 24.0658C22.5701 23.7166 22.6378 23.343 22.63 22.9672L18.6308 23.0504ZM18.7153 22.5845C18.7743 22.4364 18.8625 22.3017 18.9746 22.1883L21.8195 25.0001C22.0837 24.7327 22.2916 24.415 22.4309 24.0658L18.7153 22.5845ZM18.9746 22.1883C19.0866 22.0749 19.2203 21.9851 19.3677 21.9244L20.8924 25.6224C21.24 25.4791 21.5552 25.2675 21.8195 25.0001L18.9746 22.1883ZM19.3677 21.9244C19.5151 21.8636 19.6732 21.833 19.8326 21.8345L19.7962 25.8343C20.1721 25.8377 20.5448 25.7657 20.8924 25.6224L19.3677 21.9244ZM19.8339 21.8345C20.1337 21.8374 20.4205 21.9571 20.6334 22.1682L17.8172 25.0088C18.3439 25.5309 19.0534 25.8271 19.7949 25.8343L19.8339 21.8345ZM20.6334 22.1682C20.8464 22.3793 20.9686 22.6651 20.9741 22.9649L16.9747 23.0383C16.9883 23.7797 17.2906 24.4867 17.8172 25.0088L20.6334 22.1682ZM20.9744 23.0007L20.9732 20.1676L16.9732 20.1692L16.9744 23.0024L20.9744 23.0007ZM18.9676 18.1684L15.9556 18.1768L15.9668 22.1768L18.9788 22.1684L18.9676 18.1684ZM16.0067 18.1773C16.2752 18.1834 16.5332 18.2835 16.7355 18.4602L14.105 21.4735C14.6077 21.9124 15.2485 22.1611 15.9157 22.1763L16.0067 18.1773ZM16.7355 18.4602C16.9379 18.6369 17.0719 18.8789 17.1142 19.1442L13.1642 19.7742C13.2693 20.4333 13.6022 21.0346 14.105 21.4735L16.7355 18.4602ZM17.1332 19.3043L17.1236 19.1807L13.1356 19.4905L13.1452 19.6141L17.1332 19.3043ZM17.1295 19.3205C17.1307 19.4793 17.1001 19.6367 17.0395 19.7835L13.3422 18.2573C13.1991 18.604 13.1268 18.9757 13.1297 19.3507L17.1295 19.3205ZM17.0395 19.7835C16.979 19.9303 16.8896 20.0635 16.7767 20.1752L13.9628 17.3324C13.6963 17.5962 13.4853 17.9107 13.3422 18.2573L17.0395 19.7835ZM16.7767 20.1752C16.6638 20.2869 16.5298 20.3749 16.3823 20.434L14.8941 16.7212C14.546 16.8607 14.2293 17.0685 13.9628 17.3324L16.7767 20.1752ZM16.3823 20.434C16.2349 20.4931 16.0772 20.5221 15.9184 20.5193L15.9896 16.5199C15.6147 16.5132 15.2422 16.5817 14.8941 16.7212L16.3823 20.434ZM15.9596 20.5196L18.9788 20.5112L18.9676 16.5112L15.9484 16.5196L15.9596 20.5196ZM20.9732 18.5112V15.7884H16.9732V18.5112H20.9732ZM20.9729 15.7528C20.9757 15.9117 20.9467 16.0696 20.8875 16.2171L17.1752 14.7275C17.0354 15.0759 16.9668 15.4487 16.9735 15.824L20.9729 15.7528ZM20.8875 16.2171C20.8283 16.3647 20.7401 16.4988 20.6282 16.6117L17.7874 13.7957C17.5232 14.0623 17.315 14.3791 17.1752 14.7275L20.8875 16.2171ZM20.6282 16.6117C20.5163 16.7246 20.3829 16.8139 20.2359 16.8744L18.7138 13.1754C18.3667 13.3182 18.0517 13.5291 17.7874 13.7957L20.6282 16.6117ZM20.2359 16.8744C20.0889 16.9349 19.9313 16.9654 19.7723 16.9639L19.8085 12.9641C19.4332 12.9607 19.0609 13.0325 18.7138 13.1754L20.2359 16.8744ZM9.22556 11.8639C9.07152 11.8655 8.91866 11.8366 8.77576 11.7791L10.2702 8.06875C9.92538 7.92986 9.55656 7.86032 9.18484 7.8641L9.22556 11.8639ZM8.77576 11.7791C8.63286 11.7215 8.5027 11.6364 8.39274 11.5284L11.1944 8.67352C10.9291 8.41314 10.615 8.20763 10.2702 8.06875L8.77576 11.7791ZM8.39274 11.5284C8.28277 11.4205 8.19517 11.292 8.13494 11.1502L11.8165 9.58618C11.6711 9.24404 11.4597 8.93391 11.1944 8.67352L8.39274 11.5284ZM8.13494 11.1502C8.0747 11.0084 8.04301 10.8561 8.04168 10.7021L12.0415 10.6675C12.0383 10.2958 11.9618 9.92833 11.8165 9.58618L8.13494 11.1502ZM8.04165 10.6704C8.04276 10.5162 8.07429 10.3637 8.13443 10.2218L11.8177 11.7818C11.9628 11.4392 12.0389 11.0713 12.0415 10.6992L8.04165 10.6704ZM8.13443 10.2218C8.19457 10.0798 8.28214 9.95104 8.39212 9.84295L11.1959 12.6958C11.4613 12.435 11.6726 12.1244 11.8177 11.7818L8.13443 10.2218ZM8.39212 9.84295C8.50209 9.73487 8.63232 9.64954 8.77534 9.59188L10.2712 13.3017C10.6163 13.1625 10.9305 12.9566 11.1959 12.6958L8.39212 9.84295ZM8.77534 9.59188C8.91837 9.53421 9.07136 9.50533 9.22554 9.5069L9.18486 13.5067C9.55692 13.5105 9.92607 13.4408 10.2712 13.3017L8.77534 9.59188ZM9.2052 9.5068C3.9758 9.5068 -0.326 13.6754 -0.326 18.8976H3.674C3.674 15.955 6.1138 13.5068 9.2052 13.5068V9.5068ZM-0.326 18.8976C-0.326 19.2108 -0.310888 19.5229 -0.280519 19.8337L3.70052 19.4447C3.68289 19.2643 3.674 19.082 3.674 18.8976H-0.326ZM-0.281674 19.8215C-0.310001 19.512 -0.214258 19.204 -0.0154989 18.9651L3.0594 21.5234C3.539 20.947 3.77002 20.2036 3.70167 19.4569L-0.281674 19.8215ZM-0.0154989 18.9651C0.183261 18.7262 0.468762 18.576 0.778221 18.5476L1.14418 22.5308C1.8909 22.4622 2.5798 22.0998 3.0594 21.5234L-0.0154989 18.9651ZM0.750283 18.5504C1.05725 18.5178 1.36462 18.6082 1.60513 18.8017L-0.902604 21.918C-0.318904 22.3877 0.427094 22.6071 1.17212 22.528L0.750283 18.5504ZM1.60513 18.8017C1.84563 18.9952 1.99967 19.2762 2.03353 19.583L-1.94233 20.0218C-1.86014 20.7665 -1.48629 21.4483 -0.902604 21.918L1.60513 18.8017ZM2.03609 19.6076C2.01279 19.3695 2.00074 19.1305 1.99999 18.8913L-1.99999 18.9039C-1.99884 19.269 -1.98045 19.6338 -1.94489 19.9972L2.03609 19.6076ZM2 18.8976C2 15.048 5.19075 11.864 9.2052 11.864V7.864C3.05325 7.864 -2 12.768 -2 18.8976H2ZM15.1296 5.5592C16.6801 5.5592 17.872 6.78327 17.872 8.2128H21.872C21.872 4.50393 18.8183 1.5592 15.1296 1.5592V5.5592ZM17.872 8.2128C17.872 9.64201 16.6792 10.8664 15.1296 10.8664V14.8664C18.8168 14.8664 21.872 11.922 21.872 8.2128H17.872ZM15.1296 10.8664C13.5803 10.8664 12.3884 9.64353 12.3884 8.2128H8.3884C8.3884 11.9229 11.4421 14.8664 15.1296 14.8664V10.8664ZM12.3884 8.2128C12.3884 6.78294 13.5807 5.5592 15.1296 5.5592V1.5592C11.4417 1.5592 8.3884 4.50426 8.3884 8.2128H12.3884ZM15.1296 3.202C12.3663 3.202 10.0612 5.40972 10.0612 8.214H14.0612C14.0612 7.68948 14.5041 7.202 15.1296 7.202V3.202ZM10.0612 8.214C10.0612 11.0169 12.3673 13.2236 15.1296 13.2236V9.2236C14.5031 9.2236 14.0612 8.73509 14.0612 8.214H10.0612ZM15.1296 13.2236C17.8924 13.2236 20.198 11.0164 20.198 8.2128H16.198C16.198 8.73561 15.7556 9.2236 15.1296 9.2236V13.2236ZM20.198 8.2128C20.198 5.40921 17.8924 3.202 15.1296 3.202V7.202C15.7556 7.202 16.198 7.68999 16.198 8.2128H20.198ZM9.63 2C10.5087 2 11.3077 2.40081 11.8202 3.05612L14.971 0.591875C13.7003 -1.03281 11.7393 -2 9.63 -2V2ZM11.8186 3.05406C11.4055 2.52451 11.5187 1.76755 12.0379 1.37725L14.4413 4.57475C15.6949 3.63245 15.9473 1.84349 14.9726 0.593936L11.8186 3.05406ZM12.0404 1.37538C12.2809 1.19521 12.5822 1.11606 12.8802 1.15479L12.3646 5.12142C13.1006 5.21709 13.8448 5.02161 14.4388 4.57662L12.0404 1.37538ZM12.8802 1.15479C13.1782 1.19353 13.4493 1.34709 13.6357 1.58275L10.4987 4.06445C10.9591 4.6465 11.6286 5.02575 12.3646 5.12142L12.8802 1.15479ZM13.6409 1.58937C13.1635 0.980594 12.5534 0.488812 11.8572 0.151484L10.1131 3.75125C10.2616 3.82317 10.3917 3.92803 10.4935 4.05783L13.6409 1.58937ZM11.8572 0.151484C11.1609 -0.185844 10.3969 -0.359818 9.6232 -0.357189L9.6368 3.64279C9.80176 3.64223 9.96467 3.67932 10.1131 3.75125L11.8572 0.151484ZM9.63 -0.3572C6.8672 -0.3572 4.5616 1.85001 4.5616 4.6536H8.5616C8.5616 4.13079 9.004 3.6428 9.63 3.6428V-0.3572ZM4.5616 4.6536C4.5616 7.10168 6.33744 9.14489 8.69627 9.57967L9.42133 5.64593C8.90256 5.55031 8.5616 5.11432 8.5616 4.6536H4.5616ZM8.69462 9.57936C8.0949 9.4683 7.63299 8.87604 7.76266 8.19665L11.6917 8.94655C11.9918 7.37436 10.9299 5.92529 9.42298 5.64624L8.69462 9.57936ZM7.76703 8.17444C7.82793 7.87387 8.00503 7.60949 8.25982 7.4388L10.4861 10.762C11.1072 10.3459 11.5389 9.70144 11.6874 8.96876L7.76703 8.17444ZM8.25982 7.4388C8.51461 7.2681 8.82648 7.2049 9.12762 7.26293L8.37078 11.1907C9.10484 11.3321 9.86507 11.1781 10.4861 10.762L8.25982 7.4388ZM9.11182 7.25995C7.80488 7.01899 6.8876 5.90664 6.8876 4.6536H2.8876C2.8876 7.89576 5.24152 10.6138 8.38658 11.1937L9.11182 7.25995ZM6.8876 4.6536C6.8876 3.22353 8.08007 2 9.63 2V-2C5.94313 -2 2.8876 0.942874 2.8876 4.6536H6.8876Z" fill="#15AB94" mask="url(#path-1-inside-1_1204_4163)"/>
</g>
<defs>
<clipPath id="clip0_1204_4163">
<rect width="24" height="24" fill="white"/>
</clipPath>
</defs>
</svg>
