<svg width="24" height="24" viewBox="0 0 24 24" fill="none" xmlns="http://www.w3.org/2000/svg">
<path d="M1.97721 10.3332C1.97721 10.7752 2.15281 11.1991 2.46537 11.5117C2.77793 11.8242 3.20185 11.9998 3.64388 11.9998H3.64721L0.310547 13.6665C0.310547 14.1085 0.486142 14.5325 0.798702 14.845C1.11126 15.1576 1.53519 15.3332 1.97721 15.3332H2.83388L1.81055 16.9998C1.81055 17.4419 1.98614 17.8658 2.2987 18.1784C2.61126 18.4909 3.03519 18.6665 3.47721 18.6665H5.83388L12.0005 19.3332V10.3052L1.97721 10.3332Z" fill="#EF9645"/>
<path d="M10.8127 3.08347C10.4053 4.00414 10.9513 5.31947 12.2713 6.25014C13.138 6.86147 14.372 7.04147 14.5007 7.84414C14.5493 8.15081 14.292 8.66681 13.5693 8.66681H3C3 8.66681 1.66667 8.66681 1.66667 10.0001C1.66667 11.3335 3 11.3335 3 11.3335H10.7553C10.736 11.3335 10.7127 12.0001 10.7007 12.0001H1.33333C1.33333 12.0001 0 12.0001 0 13.3335C0 14.6668 1.33333 14.6668 1.33333 14.6668H10.702C10.7133 14.6668 10.7293 15.3335 10.748 15.3335H2.83333C2.83333 15.3335 1.5 15.3335 1.5 16.6668C1.5 18.0001 2.83333 18.0001 2.83333 18.0001H11.2587C11.3373 18.0001 11.426 18.6668 11.524 18.6668H5.83333C5.83333 18.6668 4.5 18.6668 4.5 20.0001C4.5 21.3335 5.83333 21.3335 5.83333 21.3335H16C20.418 21.3335 24 17.7515 24 13.3335C24 10.1501 22.268 7.96014 20.472 6.73614C18.9487 5.69814 17.3673 5.39747 16.8893 5.33347C16.8893 5.33347 15.9033 5.25147 14.9793 4.56281C14.0908 3.90552 13.2309 3.21043 12.402 2.47947C12.1627 2.26814 11.264 2.06281 10.8127 3.08347Z" fill="#FFDC5D"/>
<path d="M14.3141 8.37404C14.1367 8.57204 13.9461 8.62204 13.7754 8.65204C13.9481 9.91337 14.3014 11.6234 15.5854 12.9367C17.2514 14.6407 19.0521 14.9314 20.2567 14.9174C21.2281 14.906 21.6881 14.376 20.2487 14.2207C18.4447 14.026 14.8734 12.718 14.5287 8.3647L14.5054 7.9707C14.5054 7.9707 14.4654 8.20537 14.3141 8.37404Z" fill="#EF9645"/>
</svg>
