<svg width="18" height="18" viewBox="0 0 18 18" fill="none" xmlns="http://www.w3.org/2000/svg">
<mask id="path-1-inside-1_1909_4392" fill="white">
<path fill-rule="evenodd" clip-rule="evenodd" d="M12.407 11.7428L16.052 15.3887L15.6764 15.7643L15.3007 16.14L11.6477 12.487C10.4142 13.5042 8.8355 14.0057 7.24111 13.8869C5.64672 13.7681 4.1598 13.0381 3.09066 11.8493C2.02152 10.6606 1.45276 9.10487 1.50307 7.50685C1.55338 5.90882 2.21888 4.39197 3.36068 3.27282C4.50248 2.15367 6.03236 1.51869 7.63107 1.50041C9.22978 1.48212 10.7738 2.08193 11.9409 3.17467C13.108 4.26741 13.808 5.76865 13.8949 7.3651C13.9817 8.96156 13.4487 10.5299 12.407 11.7428ZM12.8412 7.70173C12.8412 6.33883 12.2997 5.03176 11.336 4.06804C10.3723 3.10433 9.06524 2.56292 7.70235 2.56292C6.33945 2.56292 5.03238 3.10433 4.06867 4.06804C3.10495 5.03176 2.56354 6.33883 2.56354 7.70173C2.56354 9.06462 3.10495 10.3717 4.06867 11.3354C5.03238 12.2991 6.33945 12.8405 7.70235 12.8405C9.06524 12.8405 10.3723 12.2991 11.336 11.3354C12.2997 10.3717 12.8412 9.06462 12.8412 7.70173Z"/>
</mask>
<path fill-rule="evenodd" clip-rule="evenodd" d="M12.407 11.7428L16.052 15.3887L15.6764 15.7643L15.3007 16.14L11.6477 12.487C10.4142 13.5042 8.8355 14.0057 7.24111 13.8869C5.64672 13.7681 4.1598 13.0381 3.09066 11.8493C2.02152 10.6606 1.45276 9.10487 1.50307 7.50685C1.55338 5.90882 2.21888 4.39197 3.36068 3.27282C4.50248 2.15367 6.03236 1.51869 7.63107 1.50041C9.22978 1.48212 10.7738 2.08193 11.9409 3.17467C13.108 4.26741 13.808 5.76865 13.8949 7.3651C13.9817 8.96156 13.4487 10.5299 12.407 11.7428ZM12.8412 7.70173C12.8412 6.33883 12.2997 5.03176 11.336 4.06804C10.3723 3.10433 9.06524 2.56292 7.70235 2.56292C6.33945 2.56292 5.03238 3.10433 4.06867 4.06804C3.10495 5.03176 2.56354 6.33883 2.56354 7.70173C2.56354 9.06462 3.10495 10.3717 4.06867 11.3354C5.03238 12.2991 6.33945 12.8405 7.70235 12.8405C9.06524 12.8405 10.3723 12.2991 11.336 11.3354C12.2997 10.3717 12.8412 9.06462 12.8412 7.70173Z" fill="#1D1D1D"/>
<path d="M12.407 11.7428L11.2691 10.7655L10.3633 11.8202L11.3462 12.8033L12.407 11.7428ZM16.052 15.3887L17.1127 16.4493L18.1732 15.3888L17.1128 14.3281L16.052 15.3887ZM15.3007 16.14L14.24 17.2007L15.3007 18.2613L16.3614 17.2007L15.3007 16.14ZM11.6477 12.487L12.7084 11.4264L11.7448 10.4628L10.6934 11.3297L11.6477 12.487ZM12.8412 7.70173H14.3412H12.8412ZM7.70235 2.56292V1.06292V2.56292ZM2.56354 7.70173L1.06354 7.70173L2.56354 7.70173ZM7.70235 12.8405V14.3405V12.8405ZM11.3462 12.8033L14.9912 16.4492L17.1128 14.3281L13.4678 10.6822L11.3462 12.8033ZM16.3614 15.0793L12.7084 11.4264L10.5871 13.5477L14.24 17.2007L16.3614 15.0793ZM10.6934 11.3297C9.75822 12.1009 8.56136 12.4811 7.35258 12.391L7.12964 15.3827C9.10965 15.5303 11.0701 14.9075 12.602 13.6443L10.6934 11.3297ZM7.35258 12.391C6.14381 12.3009 5.01651 11.7475 4.20595 10.8463L1.97538 12.8524C3.30309 14.3287 5.14963 15.2352 7.12964 15.3827L7.35258 12.391ZM4.20595 10.8463C3.39539 9.94503 2.96419 8.76558 3.00233 7.55405L0.00381732 7.45965C-0.0586611 9.44416 0.647658 11.3761 1.97538 12.8524L4.20595 10.8463ZM3.00233 7.55405C3.04047 6.34252 3.54501 5.19252 4.41066 4.34405L2.3107 2.20158C0.892745 3.59141 0.0662957 5.47513 0.00381732 7.45965L3.00233 7.55405ZM4.41066 4.34405C5.27631 3.49557 6.43618 3.01417 7.64823 3.00031L7.61392 0.000504255C5.62855 0.0232137 3.72865 0.81176 2.3107 2.20158L4.41066 4.34405ZM7.64823 3.00031C8.86028 2.98644 10.0309 3.44119 10.9157 4.26964L12.9661 2.0797C11.5167 0.722677 9.59928 -0.0222052 7.61392 0.000504255L7.64823 3.00031ZM10.9157 4.26964C11.8005 5.09809 12.3312 6.23625 12.3971 7.44659L15.3926 7.28362C15.2848 5.30106 14.4155 3.43673 12.9661 2.0797L10.9157 4.26964ZM12.3971 7.44659C12.4629 8.65693 12.0588 9.84594 11.2691 10.7655L13.545 12.7201C14.8386 11.2138 15.5005 9.26619 15.3926 7.28362L12.3971 7.44659ZM14.3412 7.70173C14.3412 5.94101 13.6417 4.2524 12.3967 3.00738L10.2754 5.1287C10.9578 5.81111 11.3412 6.73666 11.3412 7.70173L14.3412 7.70173ZM12.3967 3.00738C11.1517 1.76236 9.46307 1.06292 7.70235 1.06292V4.06292C8.66742 4.06292 9.59296 4.44629 10.2754 5.1287L12.3967 3.00738ZM7.70235 1.06292C5.94163 1.06292 4.25302 1.76237 3.008 3.00738L5.12933 5.1287C5.81173 4.44629 6.73728 4.06292 7.70235 4.06292V1.06292ZM3.008 3.00738C1.76299 4.2524 1.06354 5.94101 1.06354 7.70173L4.06354 7.70173C4.06354 6.73666 4.44692 5.81111 5.12933 5.1287L3.008 3.00738ZM1.06354 7.70173C1.06354 9.46245 1.76299 11.1511 3.008 12.3961L5.12933 10.2748C4.44692 9.59234 4.06354 8.6668 4.06354 7.70173L1.06354 7.70173ZM3.008 12.3961C4.25302 13.6411 5.94163 14.3405 7.70235 14.3405V11.3405C6.73728 11.3405 5.81173 10.9572 5.12933 10.2748L3.008 12.3961ZM7.70235 14.3405C9.46307 14.3405 11.1517 13.6411 12.3967 12.3961L10.2754 10.2748C9.59297 10.9572 8.66742 11.3405 7.70235 11.3405V14.3405ZM12.3967 12.3961C13.6417 11.1511 14.3412 9.46245 14.3412 7.70173H11.3412C11.3412 8.6668 10.9578 9.59234 10.2754 10.2748L12.3967 12.3961ZM14.9914 14.328L14.6157 14.7037L16.737 16.825L17.1127 16.4493L14.9914 14.328ZM14.6157 14.7037L14.24 15.0793L16.3614 17.2007L16.737 16.825L14.6157 14.7037Z" fill="#9798A2" mask="url(#path-1-inside-1_1909_4392)"/>
</svg>
