<svg width="24" height="24" viewBox="0 0 24 24" fill="none" xmlns="http://www.w3.org/2000/svg">
  <path d="M8.80659 21H5.32306C4.03976 21 3 19.9499 3 18.6539V11.7523C3.00078 11.2495 3.10794 10.7527 3.31428 10.2951C3.52063 9.83759 3.82141 9.42985 4.19647 9.09923L10.4753 3.57605C10.8981 3.20459 11.4396 3 12 3C12.5604 3 13.1019 3.20459 13.5247 3.57605L19.8035 9.1003C20.1785 9.4308 20.4792 9.83837 20.6855 10.2957C20.8918 10.7531 20.9991 11.2497 21 11.7523V18.6539C21 19.2759 20.7554 19.8725 20.32 20.3125C19.8845 20.7524 19.2939 20.9997 18.678 21H15.4835V13.9626C15.4835 12.9917 14.7042 12.2035 13.7418 12.2035H10.5494C9.58694 12.2035 8.80765 12.9917 8.80765 13.9626L8.80659 21ZM8.80659 21H15.4846" stroke="currentColor" stroke-width="1.5" stroke-linejoin="round"/>
</svg>