<svg width="27" height="26" viewBox="0 0 27 26" fill="none" xmlns="http://www.w3.org/2000/svg">
<path d="M7.08988 15.4656L6.26713 18.537L3.26 18.6006C2.36131 16.9338 1.85156 15.0266 1.85156 13C1.85156 11.0403 2.32817 9.1922 3.17298 7.56494H3.17363L5.85082 8.05576L7.02359 10.7169C6.77813 11.4325 6.64434 12.2007 6.64434 13C6.64444 13.8675 6.80158 14.6987 7.08988 15.4656Z" fill="#FBBB00"/>
<path d="M25.2816 10.7922C25.4173 11.5071 25.4881 12.2455 25.4881 13C25.4881 13.8461 25.3991 14.6715 25.2296 15.4676C24.6543 18.1767 23.1511 20.5422 21.0686 22.2163L21.068 22.2156L17.6959 22.0436L17.2187 19.0643C18.6005 18.2539 19.6803 16.9857 20.2492 15.4676H13.9297V10.7922H20.3414H25.2816Z" fill="#518EF8"/>
<path d="M21.0695 22.2158L21.0701 22.2164C19.0449 23.8444 16.4721 24.8184 13.6715 24.8184C9.17081 24.8184 5.25784 22.3028 3.26172 18.6009L7.09159 15.4658C8.08963 18.1294 10.6591 20.0256 13.6715 20.0256C14.9662 20.0256 16.1793 19.6755 17.2201 19.0645L21.0695 22.2158Z" fill="#28B446"/>
<path d="M21.2121 3.90265L17.3836 7.03706C16.3063 6.3637 15.0329 5.97471 13.6686 5.97471C10.5881 5.97471 7.97057 7.95781 7.02253 10.7169L3.17252 7.565H3.17188C5.13877 3.77279 9.10109 1.18188 13.6686 1.18188C16.5362 1.18188 19.1654 2.20333 21.2121 3.90265Z" fill="#F14336"/>
</svg>
