<svg width="16" height="17" viewBox="0 0 16 17" fill="none" xmlns="http://www.w3.org/2000/svg">
<path d="M2.10468 7.83325C1.50903 8.74442 1.24511 9.83283 1.35726 10.9156C1.46941 11.9984 1.9508 13.0096 2.72055 13.7794C3.4903 14.5491 4.50151 15.0305 5.58431 15.1427C6.66711 15.2548 7.75551 14.9909 8.66668 14.3953M9.33335 12.4999C10.7478 12.4999 12.1044 11.938 13.1046 10.9378C14.1048 9.93763 14.6667 8.58107 14.6667 7.16659C14.6667 5.7521 14.1048 4.39554 13.1046 3.39535C12.1044 2.39516 10.7478 1.83325 9.33335 1.83325C7.91886 1.83325 6.56231 2.39516 5.56211 3.39535C4.56192 4.39554 4.00002 5.7521 4.00002 7.16659C4.00002 8.58107 4.56192 9.93763 5.56211 10.9378C6.56231 11.938 7.91886 12.4999 9.33335 12.4999Z" stroke="#1D1D1D" stroke-width="1.5" stroke-linecap="round" stroke-linejoin="round"/>
<path d="M10.5146 5.97002C10.3706 5.36202 9.63729 4.81335 8.75662 5.22335C7.87595 5.63402 7.73595 6.95535 9.06795 7.09535C9.66995 7.15869 10.0626 7.02202 10.4213 7.40935C10.7813 7.79669 10.848 8.87469 9.92929 9.16535C9.01062 9.45602 8.10129 9.00202 8.00195 8.35735M9.32462 4.50269V5.08269M9.32462 9.25469V9.83602" stroke="#1D1D1D" stroke-linecap="round" stroke-linejoin="round"/>
</svg>
