<svg width="16" height="16" viewBox="0 0 16 16" fill="none" xmlns="http://www.w3.org/2000/svg">
<path d="M13 3C12.4552 3.52114 11.8073 3.92241 11.098 4.178C10.35 4.31 8.28 3.35 7.26 4.33C7.09 4.5 6.88 4.67 6.66 4.84C6.18 4.63 5.44 4.31 4.9 4C4.36 3.69 3 3 3 3L0 6.5C0 6.5 0.74 7.5 1.2 8.16C1.5 8.6 1.87 9.27 2.11 9.72L1.77 10.12C1.68916 10.2819 1.66019 10.4648 1.68703 10.6437C1.71387 10.8226 1.79522 10.989 1.92 11.12C2.06442 11.2289 2.24046 11.2876 2.42134 11.2873C2.60221 11.2869 2.77801 11.2275 2.922 11.118C2.86854 11.1806 2.82807 11.2532 2.80297 11.3316C2.77787 11.41 2.76864 11.4926 2.7758 11.5746C2.78297 11.6567 2.8064 11.7364 2.84472 11.8093C2.88304 11.8821 2.93549 11.9466 2.999 11.999C3.15191 12.0876 3.32556 12.1341 3.50227 12.1337C3.67898 12.1334 3.85245 12.0862 4.005 11.997C3.89075 12.1394 3.82823 12.3164 3.82768 12.499C3.82714 12.6816 3.8886 12.8589 4.002 13.002C4.14939 13.0532 4.30663 13.0695 4.46139 13.0498C4.61615 13.03 4.76423 12.9746 4.894 12.888C4.82903 13.041 4.81213 13.2102 4.84553 13.3731C4.87892 13.536 4.96105 13.6849 5.081 13.8C5.25026 13.8745 5.43556 13.9051 5.61979 13.889C5.80401 13.873 5.98121 13.8107 6.135 13.708L6.651 13.241C7.123 13.711 7.774 14.002 8.493 14.002L8.554 14.001C8.79098 13.9809 9.01801 13.8966 9.21074 13.7573C9.40347 13.6179 9.55463 13.4287 9.648 13.21C9.794 13.266 9.96 13.304 10.136 13.304C10.372 13.304 10.591 13.236 10.776 13.119C11.361 12.732 11.221 12.432 11.221 12.432C11.429 12.5215 11.6601 12.5428 11.8809 12.4926C12.1018 12.4425 12.301 12.3236 12.45 12.153C12.6048 11.9946 12.7024 11.7892 12.7274 11.5692C12.7524 11.3491 12.7033 11.127 12.588 10.938C12.5944 10.9416 12.6017 10.9433 12.609 10.943C13.03 10.943 13.396 10.711 13.587 10.369C13.6814 10.126 13.7133 9.86322 13.6799 9.60468C13.6466 9.34614 13.549 9.10009 13.396 8.889L13.399 8.894C14.219 8.734 14.189 8.324 14.589 7.724C14.9673 7.23392 15.4386 6.82339 15.976 6.516L13 3ZM12.95 10.06C12.51 10.5 12.17 10.31 11.42 9.74C10.67 9.17 9.18 8.1 9.18 8.1C9.241 8.405 9.382 8.67 9.581 8.881C9.9 9.24 10.85 10.06 11.3 10.48C11.58 10.74 12.3 11.26 11.88 11.66C11.46 12.06 11.13 11.66 10.44 11.1C9.75 10.54 8.21 9.16 8.21 9.16C8.20171 9.29226 8.22148 9.42479 8.26801 9.54887C8.31454 9.67296 8.38679 9.7858 8.48 9.88C8.65 10.08 9.6 11 10 11.42C10.4 11.84 10.75 12.09 10.41 12.42C10.07 12.75 9.38 12.23 9 11.84C8.41 11.27 7.24 10.21 7.24 10.21L7.239 10.263C7.239 10.547 7.337 10.807 7.502 11.013C7.79 11.391 8.35 11.881 8.69 12.261C9.03 12.641 9.23 12.961 8.69 13.261C8.15 13.561 7.35 12.821 7 12.461V12.459C7.00109 12.3601 6.96546 12.2642 6.9 12.19C6.78015 12.0796 6.63258 12.0038 6.47301 11.9707C6.31345 11.9375 6.14789 11.9484 5.994 12.002C6.05716 11.9453 6.10777 11.8759 6.1426 11.7985C6.17743 11.7211 6.19571 11.6372 6.19628 11.5523C6.19684 11.4674 6.17968 11.3833 6.14588 11.3054C6.11208 11.2276 6.06239 11.1576 6 11.1C5.86874 11.0005 5.70852 10.9468 5.54383 10.947C5.37915 10.9472 5.21905 11.0013 5.088 11.101C5.15426 11.0377 5.20542 10.9603 5.23766 10.8745C5.2699 10.7887 5.2824 10.6968 5.27423 10.6055C5.26607 10.5143 5.23744 10.426 5.19049 10.3473C5.14353 10.2686 5.07945 10.2015 5.003 10.151C4.82398 10.0385 4.61392 9.98567 4.40299 10C4.19205 10.0144 3.9911 10.0953 3.829 10.231C3.93734 10.0997 3.99076 9.9316 3.97808 9.76183C3.96541 9.59207 3.88764 9.43377 3.761 9.32C3.60329 9.17409 3.40279 9.08285 3.18918 9.05979C2.97556 9.03674 2.76021 9.0831 2.575 9.192L1.91 8.069C1.45 7.339 0.91 6.579 0.91 6.579L3.19 3.809C3.19 3.809 4 4.309 4.67 4.689C5 4.879 5.57 5.129 6 5.329C5.32 5.839 4.75 6.329 4.92 6.669C5.22273 6.88701 5.58486 7.00729 5.95786 7.01373C6.33087 7.02016 6.69693 6.91244 7.007 6.705C7.40457 6.43998 7.8722 6.29965 8.35 6.302C8.697 6.302 9.027 6.374 9.326 6.505C9.88 6.879 10.9 7.799 11.83 8.379C13 9.229 13.23 9.779 12.95 10.059V10.06Z" fill="#1D1D1D"/>
</svg>
