<svg width="25" height="17" viewBox="0 0 25 17" fill="none" xmlns="http://www.w3.org/2000/svg">
<path d="M19.832 0.5C19.0148 1.2817 18.043 1.88362 16.979 2.267C15.857 2.465 12.752 1.025 11.222 2.495C10.967 2.75 10.652 3.005 10.322 3.26C9.60203 2.945 8.49203 2.465 7.68203 2C6.87203 1.535 4.83203 0.5 4.83203 0.5L0.332031 5.75C0.332031 5.75 1.44203 7.25 2.13203 8.24C2.58203 8.9 3.13703 9.905 3.49703 10.58L2.98703 11.18C2.86577 11.4228 2.82231 11.6971 2.86257 11.9655C2.90284 12.234 3.02486 12.4834 3.21203 12.68C3.42867 12.8433 3.69273 12.9314 3.96404 12.9309C4.23534 12.9304 4.49905 12.8412 4.71503 12.677C4.63484 12.7709 4.57414 12.8798 4.53649 12.9974C4.49884 13.115 4.48499 13.2389 4.49574 13.362C4.50649 13.485 4.54163 13.6046 4.59911 13.7139C4.65659 13.8232 4.73526 13.9199 4.83053 13.9985C5.05989 14.1314 5.32037 14.2011 5.58544 14.2006C5.85051 14.2 6.1107 14.1293 6.33953 13.9955C6.16815 14.2091 6.07437 14.4746 6.07355 14.7485C6.07274 15.0223 6.16493 15.2884 6.33503 15.503C6.55611 15.5798 6.79197 15.6043 7.02411 15.5746C7.25626 15.545 7.47837 15.4619 7.67303 15.332C7.57558 15.5616 7.55022 15.8153 7.60032 16.0597C7.65042 16.304 7.7736 16.5273 7.95353 16.7C8.20742 16.8117 8.48538 16.8577 8.76171 16.8336C9.03805 16.8094 9.30385 16.716 9.53453 16.562L10.3085 15.8615C11.0165 16.5665 11.993 17.003 13.0715 17.003L13.163 17.0015C13.5185 16.9713 13.859 16.8449 14.1481 16.6359C14.4372 16.4269 14.664 16.1431 14.804 15.815C15.023 15.899 15.272 15.956 15.536 15.956C15.89 15.956 16.2185 15.854 16.496 15.6785C17.3735 15.098 17.1635 14.648 17.1635 14.648C17.4756 14.7823 17.8222 14.8142 18.1534 14.739C18.4847 14.6638 18.7836 14.4854 19.007 14.2295C19.2392 13.992 19.3857 13.6838 19.4231 13.3538C19.4606 13.0237 19.387 12.6906 19.214 12.407C19.2236 12.4123 19.2345 12.4149 19.2455 12.4145C19.877 12.4145 20.426 12.0665 20.7125 11.5535C20.8541 11.189 20.902 10.7948 20.8519 10.407C20.8019 10.0192 20.6555 9.65013 20.426 9.3335L20.4305 9.341C21.6605 9.101 21.6155 8.486 22.2155 7.586C22.7829 6.85087 23.49 6.23508 24.296 5.774L19.832 0.5ZM19.757 11.09C19.097 11.75 18.587 11.465 17.462 10.61C16.337 9.755 14.102 8.15 14.102 8.15C14.1935 8.6075 14.405 9.005 14.7035 9.3215C15.182 9.86 16.607 11.09 17.282 11.72C17.702 12.11 18.782 12.89 18.152 13.49C17.522 14.09 17.027 13.49 15.992 12.65C14.957 11.81 12.647 9.74 12.647 9.74C12.6346 9.9384 12.6642 10.1372 12.734 10.3233C12.8038 10.5094 12.9122 10.6787 13.052 10.82C13.307 11.12 14.732 12.5 15.332 13.13C15.932 13.76 16.457 14.135 15.947 14.63C15.437 15.125 14.402 14.345 13.832 13.76C12.947 12.905 11.192 11.315 11.192 11.315L11.1905 11.3945C11.1905 11.8205 11.3375 12.2105 11.585 12.5195C12.017 13.0865 12.857 13.8215 13.367 14.3915C13.877 14.9615 14.177 15.4415 13.367 15.8915C12.557 16.3415 11.357 15.2315 10.832 14.6915V14.6885C10.8337 14.5401 10.7802 14.3963 10.682 14.285C10.5023 14.1194 10.2809 14.0056 10.0415 13.956C9.8022 13.9063 9.55386 13.9226 9.32303 14.003C9.41776 13.9179 9.49368 13.8139 9.54593 13.6978C9.59818 13.5816 9.6256 13.4558 9.62645 13.3285C9.62729 13.2011 9.60155 13.075 9.55085 12.9582C9.50015 12.8413 9.42562 12.7364 9.33203 12.65C9.13513 12.5008 8.89481 12.4202 8.64778 12.4205C8.40075 12.4207 8.1606 12.5019 7.96403 12.6515C8.06343 12.5566 8.14016 12.4404 8.18852 12.3118C8.23688 12.1831 8.25563 12.0452 8.24338 11.9083C8.23113 11.7714 8.18819 11.639 8.11776 11.521C8.04733 11.4029 7.9512 11.3023 7.83653 11.2265C7.56801 11.0578 7.25291 10.9785 6.93651 11.0001C6.62011 11.0216 6.31869 11.1429 6.07553 11.3465C6.23804 11.1495 6.31816 10.8974 6.29916 10.6428C6.28015 10.3881 6.16348 10.1507 5.97353 9.98C5.73697 9.76113 5.43621 9.62427 5.1158 9.58969C4.79538 9.55511 4.47234 9.62465 4.19453 9.788L3.19703 8.1035C2.50703 7.0085 1.69703 5.8685 1.69703 5.8685L5.11703 1.7135C5.11703 1.7135 6.33203 2.4635 7.33703 3.0335C7.83203 3.3185 8.68703 3.6935 9.33203 3.9935C8.31203 4.7585 7.45703 5.4935 7.71203 6.0035C8.16613 6.33052 8.70932 6.51094 9.26883 6.52059C9.82834 6.53024 10.3774 6.36866 10.8425 6.0575C11.4389 5.65996 12.1403 5.44948 12.857 5.453C13.3775 5.453 13.8725 5.561 14.321 5.7575C15.152 6.3185 16.682 7.6985 18.077 8.5685C19.832 9.8435 20.177 10.6685 19.757 11.0885V11.09Z" fill="#15AB94"/>
</svg>
