<svg width="25" height="24" viewBox="0 0 25 24" fill="none" xmlns="http://www.w3.org/2000/svg">
<path fill-rule="evenodd" clip-rule="evenodd" d="M5.74536 5.06902C9.54036 1.27902 15.7104 1.31902 19.5284 5.13802C23.3484 8.95802 23.3884 15.131 19.5924 18.926C15.7964 22.721 9.62436 22.682 5.80436 18.862C4.72973 17.792 3.91779 16.4875 3.43231 15.0508C2.94683 13.6142 2.80103 12.0845 3.00636 10.582C3.03327 10.3848 3.13742 10.2064 3.29589 10.086C3.45436 9.96562 3.65417 9.9131 3.85136 9.94002C4.04854 9.96694 4.22696 10.0711 4.34736 10.2296C4.46776 10.388 4.52027 10.5878 4.49336 10.785C4.31904 12.0583 4.44243 13.3547 4.85384 14.5723C5.26525 15.7899 5.95345 16.8954 6.86436 17.802C10.1094 21.046 15.3324 21.065 18.5324 17.866C21.7314 14.666 21.7124 9.44302 18.4684 6.19802C15.2254 2.95602 10.0054 2.93502 6.80536 6.13002L7.55336 6.13302C7.65185 6.13348 7.74928 6.15334 7.8401 6.19145C7.93092 6.22957 8.01334 6.2852 8.08266 6.35517C8.15198 6.42514 8.20684 6.50807 8.2441 6.59924C8.28137 6.69041 8.30031 6.78803 8.29986 6.88652C8.2994 6.98501 8.27954 7.08245 8.24143 7.17327C8.20331 7.26409 8.14768 7.34651 8.07771 7.41583C8.00774 7.48515 7.9248 7.54 7.83363 7.57727C7.74246 7.61454 7.64485 7.63348 7.54636 7.63302L5.00036 7.62102C4.80266 7.61997 4.61337 7.5409 4.47366 7.40101C4.33396 7.26112 4.25514 7.07172 4.25436 6.87402L4.24136 4.33002C4.24083 4.23153 4.25971 4.1339 4.29691 4.0427C4.33412 3.95151 4.38892 3.86854 4.4582 3.79852C4.52747 3.7285 4.60985 3.67282 4.70065 3.63464C4.79144 3.59647 4.88886 3.57655 4.98736 3.57602C5.08585 3.5755 5.18348 3.59438 5.27467 3.63158C5.36587 3.66879 5.44884 3.72359 5.51886 3.79286C5.58887 3.86214 5.64456 3.94452 5.68273 4.03531C5.72091 4.12611 5.74083 4.22353 5.74135 4.32202L5.74536 5.06902ZM12.6654 7.24902C12.8643 7.24902 13.055 7.32804 13.1957 7.46869C13.3363 7.60934 13.4154 7.80011 13.4154 7.99902V11.689L15.6964 13.969C15.768 14.0382 15.8252 14.1209 15.8645 14.2124C15.9039 14.3039 15.9246 14.4023 15.9255 14.5019C15.9265 14.6014 15.9075 14.7002 15.8699 14.7924C15.8322 14.8846 15.7765 14.9684 15.7062 15.0388C15.6358 15.1093 15.5521 15.165 15.4599 15.2027C15.3677 15.2405 15.269 15.2595 15.1694 15.2587C15.0698 15.2579 14.9714 15.2372 14.8799 15.198C14.7884 15.1587 14.7056 15.1016 14.6364 15.03L11.9164 12.31V8.00002C11.9164 7.80111 11.9954 7.61034 12.136 7.46969C12.2767 7.32904 12.4674 7.25002 12.6664 7.25002" fill="#C026D3"/>
</svg>
