<svg width="16" height="16" viewBox="0 0 16 16" fill="none" xmlns="http://www.w3.org/2000/svg">
<g clip-path="url(#clip0_1545_3415)">
<path d="M8.00016 1.5625C8.23703 1.79926 8.88899 2.03647 8.88899 2.03647C8.88899 2.03647 8.71122 3.33932 8.00016 3.33932C7.28909 3.33932 7.11133 2.03647 7.11133 2.03647C7.11133 2.03647 7.76329 1.79926 8.00016 1.5625Z" fill="#1D1D1D"/>
<path fill-rule="evenodd" clip-rule="evenodd" d="M7.91857 0.0151031L7.91502 0.0159915L7.9048 0.0177682L7.86791 0.0248756L7.73014 0.0524162C7.61193 0.0764032 7.44349 0.11194 7.24217 0.157693C6.83998 0.249199 6.30001 0.382904 5.75783 0.55037C5.22097 0.716058 4.65879 0.922169 4.22282 1.16337C4.00594 1.28331 3.79795 1.42412 3.6393 1.58981C3.48153 1.75372 3.33398 1.98337 3.33398 2.27166C3.33398 3.0468 3.55175 3.61449 3.78196 3.99518C3.89528 4.18263 4.01038 4.32256 4.10105 4.4185C4.1049 4.46974 4.11275 4.52659 4.1246 4.58908C4.16949 4.82273 4.28192 5.12035 4.53968 5.40952C4.41694 5.93114 4.41381 6.47374 4.53051 6.99673C4.64721 7.51973 4.88074 8.00957 5.2136 8.42961C5.54647 8.84965 5.97006 9.18902 6.45269 9.42231C6.93531 9.6556 7.46447 9.77678 8.00057 9.77678C8.53667 9.77678 9.06583 9.6556 9.54845 9.42231C10.0311 9.18902 10.4547 8.84965 10.7875 8.42961C11.1204 8.00957 11.3539 7.51973 11.4706 6.99673C11.5873 6.47374 11.5842 5.93114 11.4615 5.40952C11.7188 5.12035 11.8312 4.82317 11.8761 4.58908C11.8879 4.52689 11.8958 4.47003 11.8996 4.4185C12.0208 4.28916 12.1278 4.14724 12.2187 3.99518C12.4494 3.61449 12.6667 3.0468 12.6667 2.27166C12.6667 1.98337 12.5192 1.75372 12.3614 1.58981C12.2027 1.42412 11.9948 1.28331 11.7779 1.16337C11.3419 0.922169 10.7797 0.716058 10.2424 0.55037C9.75277 0.401349 9.2578 0.270368 8.75852 0.157693C8.55058 0.110332 8.34198 0.065907 8.13278 0.0244314L8.0959 0.0177682L8.08567 0.0159915L8.08212 0.0151031L8.00035 0L7.91857 0.0151031ZM8.00035 5.56011C8.98117 5.56011 9.6398 5.43307 10.0802 5.26782C10.4531 5.1279 10.6704 4.96088 10.7957 4.82006C10.8411 4.76883 10.8778 4.71938 10.9059 4.6717H5.09476C5.1229 4.71967 5.15949 4.76913 5.20453 4.82006C5.33074 4.96088 5.54762 5.1279 5.92004 5.26782C6.3609 5.43307 7.01952 5.56011 8.00035 5.56011ZM11.2766 3.78329H4.72412C4.65592 3.70652 4.59506 3.62354 4.54235 3.53542C4.38992 3.28356 4.22459 2.87622 4.22282 2.28099C4.23801 2.25269 4.2575 2.22692 4.28059 2.20459C4.35258 2.12952 4.47435 2.03934 4.65345 1.94073C5.00899 1.74395 5.50229 1.55916 6.02048 1.3988C6.48859 1.25668 6.96177 1.13177 7.43905 1.02434C7.62561 0.981894 7.81273 0.941913 8.00035 0.904401L8.09278 0.922613C8.20567 0.945712 8.36743 0.980359 8.56164 1.02434C8.95095 1.11273 9.46692 1.24066 9.98022 1.39924C10.4984 1.55916 10.9917 1.74395 11.3472 1.94073C11.5263 2.03934 11.6481 2.12952 11.7205 2.20459C11.7605 2.24679 11.7739 2.27166 11.7779 2.28099C11.7761 2.87622 11.6108 3.28356 11.4579 3.53542C11.4053 3.62352 11.3446 3.70651 11.2766 3.78329ZM5.33385 6.22642C5.33385 6.14646 5.33726 6.06739 5.34408 5.98921C5.9387 6.26773 6.7902 6.44852 8.00035 6.44852C9.0425 6.44852 9.81756 6.31526 10.3922 6.09982C10.4855 6.06517 10.5737 6.02815 10.6566 5.98877C10.6634 6.06724 10.6668 6.14646 10.6668 6.22642C10.6668 6.93328 10.3859 7.61119 9.88584 8.11102C9.38578 8.61084 8.70754 8.89164 8.00035 8.89164C7.29315 8.89164 6.61492 8.61084 6.11485 8.11102C5.61479 7.61119 5.33385 6.93328 5.33385 6.22642Z" fill="#1D1D1D"/>
<path d="M2.66602 12.8902H5.77692V13.4437C5.77688 13.5402 5.74542 13.634 5.68729 13.711C5.62916 13.788 5.54752 13.844 5.45472 13.8706L4.34368 14.1882C4.26381 14.211 4.17913 14.211 4.09926 14.1882L2.98822 13.8706C2.89542 13.844 2.81378 13.788 2.75565 13.711C2.69752 13.634 2.66606 13.5402 2.66602 13.4437V12.8902ZM12.2943 12.0573C12.2902 12.041 12.2808 12.0264 12.2675 12.016C12.2542 12.0056 12.2378 12 12.2209 12C12.2041 12 12.1877 12.0056 12.1744 12.016C12.1611 12.0264 12.1517 12.041 12.1476 12.0573L11.9383 12.7325C11.9337 12.7485 11.9241 12.7626 11.9109 12.7726C11.8977 12.7827 11.8816 12.7883 11.865 12.7885H11.1868C11.1126 12.7885 11.0815 12.8884 11.1419 12.9342L11.6903 13.3517C11.717 13.3722 11.7285 13.4086 11.7183 13.4415L11.509 14.1167C11.4859 14.1913 11.5668 14.253 11.6272 14.2068L12.1756 13.7893C12.1887 13.7795 12.2046 13.7742 12.2209 13.7742C12.2373 13.7742 12.2532 13.7795 12.2663 13.7893L12.8147 14.2068C12.8751 14.253 12.956 14.1913 12.9333 14.1171L12.7236 13.4419C12.7187 13.4258 12.7188 13.4086 12.7238 13.3926C12.7288 13.3765 12.7385 13.3623 12.7516 13.3517L13.3 12.9342C13.3604 12.8884 13.3293 12.7885 13.2551 12.7885H12.5765C12.5599 12.7883 12.5439 12.7828 12.5307 12.7728C12.5175 12.7628 12.5078 12.7489 12.5031 12.733L12.2943 12.0573Z" fill="#1D1D1D"/>
<path fill-rule="evenodd" clip-rule="evenodd" d="M4.83511 9.78076C4.83511 9.78076 0 11.288 0 13.0979V16H16V13.0979C16 11.288 11.1649 9.78076 11.1649 9.78076L8.28622 12.2049C8.2061 12.2724 8.10473 12.3093 8 12.3093C7.89527 12.3093 7.7939 12.2724 7.71378 12.2049L4.83511 9.78076ZM11.3542 10.7834L8.85911 12.8846C8.61868 13.0871 8.3144 13.1981 8 13.1981C7.6856 13.1981 7.38132 13.0871 7.14089 12.8846L4.64578 10.7834C4.56815 10.8109 4.48326 10.842 4.39111 10.8767C3.95556 11.0397 3.38222 11.2721 2.81422 11.5555C2.23822 11.8429 1.71111 12.1614 1.34044 12.4853C0.94 12.8349 0.888889 13.0428 0.888889 13.0979V15.1116H15.1111V13.0979C15.1111 13.0428 15.06 12.8349 14.6596 12.4848C14.2889 12.1614 13.7618 11.8429 13.1853 11.5555C12.5907 11.2624 11.9792 11.0046 11.3542 10.7834Z" fill="#1D1D1D"/>
</g>
<defs>
<clipPath id="clip0_1545_3415">
<rect width="16" height="16" fill="white"/>
</clipPath>
</defs>
</svg>
