<svg width="24" height="24" viewBox="0 0 24 24" fill="none" xmlns="http://www.w3.org/2000/svg">
<path d="M12.0012 2.34375C12.3565 2.69889 13.3345 3.0547 13.3345 3.0547C13.3345 3.0547 13.0678 5.00898 12.0012 5.00898C10.9346 5.00898 10.668 3.0547 10.668 3.0547C10.668 3.0547 11.6459 2.69889 12.0012 2.34375Z" fill="#D97706"/>
<path fill-rule="evenodd" clip-rule="evenodd" d="M11.8769 0.0226547L11.8716 0.0239872L11.8562 0.0266523L11.8009 0.0373133L11.5942 0.0786242C11.4169 0.114605 11.1643 0.167909 10.8623 0.236539C10.259 0.373798 9.44904 0.574357 8.63576 0.825554C7.83048 1.07409 6.9872 1.38325 6.33325 1.74506C6.00793 1.92496 5.69595 2.13618 5.45797 2.38471C5.22132 2.63058 5 2.97506 5 3.40749C5 4.5702 5.32665 5.42174 5.67196 5.99276C5.84195 6.27395 6.0146 6.48383 6.15059 6.62776C6.15637 6.7046 6.16815 6.78989 6.18592 6.88362C6.25325 7.23409 6.42191 7.68052 6.80855 8.11429C6.62444 8.8967 6.61973 9.71061 6.79479 10.4951C6.96984 11.2796 7.32013 12.0144 7.81943 12.6444C8.31873 13.2745 8.95412 13.7835 9.67805 14.1335C10.402 14.4834 11.1957 14.6652 11.9999 14.6652C12.804 14.6652 13.5978 14.4834 14.3217 14.1335C15.0456 13.7835 15.681 13.2745 16.1803 12.6444C16.6796 12.0144 17.0299 11.2796 17.205 10.4951C17.38 9.71061 17.3753 8.8967 17.1912 8.11429C17.5772 7.68052 17.7458 7.23476 17.8132 6.88362C17.8309 6.79033 17.8427 6.70505 17.8485 6.62776C18.0302 6.43373 18.1907 6.22086 18.3271 5.99276C18.6731 5.42174 18.9991 4.5702 18.9991 3.40749C18.9991 2.97506 18.7778 2.63058 18.5411 2.38471C18.3031 2.13618 17.9912 1.92496 17.6658 1.74506C17.0119 1.38325 16.1686 1.07409 15.3627 0.825554C14.6282 0.602023 13.8857 0.405552 13.1368 0.236539C12.8249 0.165498 12.512 0.0988606 12.1982 0.0366471L12.1429 0.0266523L12.1275 0.0239872L12.1222 0.0226547L11.9995 0L11.8769 0.0226547ZM11.9995 8.34016C13.4708 8.34016 14.4587 8.1496 15.1193 7.90173C15.6786 7.69185 16.0046 7.44132 16.1926 7.2301C16.2606 7.15325 16.3157 7.07907 16.3579 7.00755H7.64116C7.68338 7.07951 7.73827 7.15369 7.80582 7.2301C7.99514 7.44132 8.32045 7.69185 8.87908 7.90173C9.54037 8.1496 10.5283 8.34016 11.9995 8.34016ZM16.9139 5.67494H7.0852C6.9829 5.55979 6.89161 5.43531 6.81255 5.30314C6.5839 4.92534 6.33591 4.31434 6.33325 3.42149C6.35604 3.37904 6.38527 3.34038 6.41991 3.30688C6.5279 3.19428 6.71055 3.05902 6.9792 2.9111C7.5125 2.61592 8.25245 2.33874 9.02974 2.0982C9.73191 1.88502 10.4417 1.69766 11.1576 1.5365C11.4374 1.47284 11.7181 1.41287 11.9995 1.3566L12.1382 1.38392C12.3075 1.41857 12.5502 1.47054 12.8415 1.5365C13.4255 1.6691 14.1994 1.861 14.9693 2.09887C15.7466 2.33874 16.4866 2.61592 17.0199 2.9111C17.2885 3.05902 17.4712 3.19428 17.5798 3.30688C17.6398 3.37018 17.6598 3.40749 17.6658 3.42149C17.6632 4.31434 17.4152 4.92534 17.1859 5.30314C17.107 5.43528 17.016 5.55976 16.9139 5.67494ZM7.9998 9.33962C7.9998 9.21969 8.00492 9.10109 8.01514 8.98382C8.90708 9.40159 10.1843 9.67278 11.9995 9.67278C13.5628 9.67278 14.7254 9.47289 15.5873 9.14973C15.7273 9.09775 15.8595 9.04223 15.9839 8.98315C15.9942 9.10086 15.9993 9.21969 15.9993 9.33962C15.9993 10.3999 15.5779 11.4168 14.8278 12.1665C14.0777 12.9163 13.0603 13.3375 11.9995 13.3375C10.9387 13.3375 9.9214 12.9163 9.1713 12.1665C8.4212 11.4168 7.9998 10.3999 7.9998 9.33962Z" fill="#D97706"/>
<path d="M4 19.3353H8.66636V20.1655C8.6663 20.3103 8.6191 20.451 8.53191 20.5665C8.44471 20.6821 8.32226 20.7661 8.18306 20.8059L6.5165 21.2823C6.39669 21.3165 6.26967 21.3165 6.14986 21.2823L4.4833 20.8059C4.3441 20.7661 4.22165 20.6821 4.13446 20.5665C4.04726 20.451 4.00006 20.3103 4 20.1655V19.3353ZM18.4424 18.086C18.4363 18.0614 18.4222 18.0396 18.4022 18.0241C18.3823 18.0085 18.3577 18 18.3324 18C18.3071 18 18.2825 18.0085 18.2626 18.0241C18.2426 18.0396 18.2285 18.0614 18.2224 18.086L17.9084 19.0988C17.9016 19.1227 17.8871 19.1438 17.8673 19.159C17.8475 19.1741 17.8234 19.1824 17.7984 19.1827H16.7812C16.6698 19.1827 16.6232 19.3327 16.7138 19.4013L17.5365 20.0276C17.5764 20.0583 17.5938 20.1129 17.5784 20.1622L17.2645 21.175C17.2298 21.2869 17.3511 21.3796 17.4418 21.3103L18.2644 20.6839C18.284 20.6692 18.3079 20.6613 18.3324 20.6613C18.3569 20.6613 18.3808 20.6692 18.4004 20.6839L19.223 21.3103C19.3137 21.3796 19.435 21.2869 19.401 21.1757L19.0863 20.1629C19.0791 20.1387 19.0792 20.1129 19.0867 20.0888C19.0941 20.0647 19.1087 20.0434 19.1283 20.0276L19.951 19.4013C20.0416 19.3327 19.995 19.1827 19.8836 19.1827H18.8657C18.8409 19.1825 18.8168 19.1742 18.797 19.1592C18.7772 19.1442 18.7627 19.1233 18.7557 19.0995L18.4424 18.086Z" fill="#D97706"/>
<path fill-rule="evenodd" clip-rule="evenodd" d="M7.25267 14.6709C7.25267 14.6709 0 16.9318 0 19.6465V23.9998H24V19.6465C24 16.9318 16.7473 14.6709 16.7473 14.6709L12.4293 18.3072C12.3091 18.4083 12.1571 18.4637 12 18.4637C11.8429 18.4637 11.6909 18.4083 11.5707 18.3072L7.25267 14.6709ZM17.0313 16.1749L13.2887 19.3267C12.928 19.6304 12.4716 19.797 12 19.797C11.5284 19.797 11.072 19.6304 10.7113 19.3267L6.96867 16.1749C6.85222 16.2162 6.72489 16.2628 6.58667 16.3148C5.93333 16.5593 5.07333 16.9078 4.22133 17.333C3.35733 17.7641 2.56667 18.2419 2.01067 18.7276C1.41 19.2521 1.33333 19.5639 1.33333 19.6465V22.6671H22.6667V19.6465C22.6667 19.5639 22.59 19.2521 21.9893 18.727C21.4333 18.2419 20.6427 17.7641 19.778 17.333C18.886 16.8934 17.9688 16.5067 17.0313 16.1749Z" fill="#D97706"/>
</svg>
