<svg width="19" height="18" viewBox="0 0 19 18" fill="none" xmlns="http://www.w3.org/2000/svg">
<path d="M9.49949 11.9999C5.17949 11.9999 4.41449 7.69493 4.27949 4.27943C4.24124 3.32993 4.22249 2.85443 4.57949 2.41568C4.93574 1.97618 5.36249 1.90418 6.21674 1.76018C7.30187 1.58242 8.39991 1.49537 9.49949 1.49993C10.8375 1.49993 11.9392 1.61768 12.7822 1.76018C13.6365 1.90418 14.0632 1.97618 14.4202 2.41568C14.7772 2.85518 14.7577 3.32993 14.7202 4.27943C14.5852 7.69493 13.8202 11.9999 9.50024 11.9999H9.49949Z" stroke="#D97706" stroke-width="1.2"/>
<path d="M9.5 12V14.25" stroke="#D97706" stroke-width="1.2" stroke-linecap="round"/>
<path d="M12.125 16.5H6.875L7.13 15.228C7.16397 15.058 7.25576 14.9051 7.38975 14.7952C7.52375 14.6852 7.69168 14.6251 7.865 14.625H11.135C11.3083 14.6251 11.4763 14.6852 11.6102 14.7952C11.7442 14.9051 11.836 15.058 11.87 15.228L12.125 16.5Z" stroke="#D97706" stroke-width="1.2" stroke-linecap="round" stroke-linejoin="round"/>
<path d="M14.75 3.75L15.4617 3.987C16.2042 4.2345 16.5755 4.35825 16.7877 4.653C17 4.94775 17 5.34 17 6.1215V6.17625C17 6.82125 17 7.1445 16.8447 7.4085C16.6895 7.6725 16.4068 7.82925 15.8428 8.1435L13.625 9.375M4.25 3.75L3.53825 3.987C2.79575 4.2345 2.4245 4.35825 2.21225 4.653C2 4.94775 2 5.34 2 6.1215V6.17625C2 6.82125 2 7.1445 2.15525 7.4085C2.3105 7.6725 2.59325 7.82925 3.15725 8.1435L5.375 9.375M8.8595 4.51725C9.1445 4.005 9.287 3.75 9.5 3.75C9.713 3.75 9.8555 4.005 10.1405 4.51725L10.214 4.64925C10.295 4.79475 10.3355 4.86675 10.3985 4.91475C10.4622 4.96275 10.541 4.98075 10.6985 5.016L10.841 5.049C11.3945 5.17425 11.6712 5.2365 11.7372 5.448C11.8032 5.6595 11.6143 5.88075 11.237 6.32175L11.1395 6.43575C11.0322 6.561 10.9783 6.62325 10.9543 6.70125C10.9303 6.77925 10.9385 6.8625 10.9543 7.02975L10.9692 7.182C11.0262 7.77075 11.0547 8.0655 10.883 8.196C10.7105 8.3265 10.451 8.20725 9.93275 7.96875L9.79925 7.90725C9.6515 7.83975 9.578 7.806 9.5 7.806C9.422 7.806 9.3485 7.83975 9.20075 7.90725L9.06725 7.96875C8.549 8.208 8.2895 8.3265 8.117 8.196C7.9445 8.0655 7.97375 7.77075 8.03075 7.182L8.04575 7.02975C8.0615 6.8625 8.06975 6.77925 8.04575 6.70125C8.02175 6.62325 7.96775 6.561 7.8605 6.43575L7.763 6.32175C7.38575 5.88075 7.19675 5.66025 7.26275 5.448C7.32875 5.2365 7.6055 5.17425 8.159 5.049L8.3015 5.016C8.459 4.98075 8.53775 4.9635 8.6015 4.91475C8.6645 4.86675 8.705 4.79475 8.786 4.64925L8.8595 4.51725Z" stroke="#D97706" stroke-width="1.2"/>
<path d="M14 16.5H5" stroke="#D97706" stroke-width="1.2" stroke-linecap="round"/>
</svg>
