<svg width="16" height="17" viewBox="0 0 16 17" fill="none" xmlns="http://www.w3.org/2000/svg">
<mask id="path-1-inside-1_3896_8716" fill="white">
<path d="M10.3929 14.9401C10.2662 14.9401 10.1395 14.8934 10.0395 14.7934C9.8462 14.6001 9.8462 14.2801 10.0395 14.0868L11.9195 12.2068C12.1129 12.0134 12.4329 12.0134 12.6262 12.2068C12.8195 12.4001 12.8195 12.7201 12.6262 12.9134L10.7462 14.7934C10.6462 14.8934 10.5195 14.9401 10.3929 14.9401Z"/>
</mask>
<path d="M10.3929 14.9401C10.2662 14.9401 10.1395 14.8934 10.0395 14.7934C9.8462 14.6001 9.8462 14.2801 10.0395 14.0868L11.9195 12.2068C12.1129 12.0134 12.4329 12.0134 12.6262 12.2068C12.8195 12.4001 12.8195 12.7201 12.6262 12.9134L10.7462 14.7934C10.6462 14.8934 10.5195 14.9401 10.3929 14.9401Z" fill="#DA3E3E"/>
<path d="M10.0395 14.0868L10.7466 14.7939H10.7466L10.0395 14.0868ZM11.9195 12.2068L11.2124 11.4997L11.2124 11.4997L11.9195 12.2068ZM10.3929 14.9401V13.9401C10.5171 13.9401 10.6492 13.9889 10.7466 14.0863L10.0395 14.7934L9.33242 15.5005C9.62984 15.798 10.0153 15.9401 10.3929 15.9401V14.9401ZM10.0395 14.7934L10.7466 14.0863C10.9438 14.2835 10.9438 14.5967 10.7466 14.7939L10.0395 14.0868L9.33242 13.3797C8.74857 13.9635 8.74857 14.9167 9.33242 15.5005L10.0395 14.7934ZM10.0395 14.0868L10.7466 14.7939L12.6266 12.9139L11.9195 12.2068L11.2124 11.4997L9.33242 13.3797L10.0395 14.0868ZM11.9195 12.2068L12.6266 12.9139C12.4294 13.1111 12.1163 13.1111 11.9191 12.9139L12.6262 12.2068L13.3333 11.4997C12.7494 10.9158 11.7963 10.9158 11.2124 11.4997L11.9195 12.2068ZM12.6262 12.2068L11.9191 12.9139C11.7219 12.7167 11.7219 12.4035 11.9191 12.2063L12.6262 12.9134L13.3333 13.6205C13.9172 13.0367 13.9172 12.0835 13.3333 11.4997L12.6262 12.2068ZM12.6262 12.9134L11.9191 12.2063L10.0391 14.0863L10.7462 14.7934L11.4533 15.5005L13.3333 13.6205L12.6262 12.9134ZM10.7462 14.7934L10.0391 14.0863C10.1365 13.9889 10.2686 13.9401 10.3929 13.9401V14.9401V15.9401C10.7704 15.9401 11.1559 15.798 11.4533 15.5005L10.7462 14.7934Z" fill="#DA3E3E" mask="url(#path-1-inside-1_3896_8716)"/>
<mask id="path-3-inside-2_3896_8716" fill="white">
<path d="M12.2729 14.9401C12.1462 14.9401 12.0195 14.8934 11.9195 14.7934L10.0395 12.9134C9.8462 12.7201 9.8462 12.4001 10.0395 12.2068C10.2329 12.0134 10.5529 12.0134 10.7462 12.2068L12.6262 14.0868C12.8195 14.2801 12.8195 14.6001 12.6262 14.7934C12.5262 14.8934 12.3995 14.9401 12.2729 14.9401Z"/>
</mask>
<path d="M12.2729 14.9401C12.1462 14.9401 12.0195 14.8934 11.9195 14.7934L10.0395 12.9134C9.8462 12.7201 9.8462 12.4001 10.0395 12.2068C10.2329 12.0134 10.5529 12.0134 10.7462 12.2068L12.6262 14.0868C12.8195 14.2801 12.8195 14.6001 12.6262 14.7934C12.5262 14.8934 12.3995 14.9401 12.2729 14.9401Z" fill="#DA3E3E"/>
<path d="M11.9195 14.7934L11.2124 15.5005H11.2124L11.9195 14.7934ZM10.0395 12.9134L10.7466 12.2063L10.7466 12.2063L10.0395 12.9134ZM10.7462 12.2068L10.0391 12.9139H10.0391L10.7462 12.2068ZM12.6262 14.0868L13.3333 13.3797V13.3797L12.6262 14.0868ZM12.2729 14.9401V13.9401C12.3971 13.9401 12.5292 13.9889 12.6266 14.0863L11.9195 14.7934L11.2124 15.5005C11.5098 15.798 11.8953 15.9401 12.2729 15.9401V14.9401ZM11.9195 14.7934L12.6266 14.0863L10.7466 12.2063L10.0395 12.9134L9.33242 13.6205L11.2124 15.5005L11.9195 14.7934ZM10.0395 12.9134L10.7466 12.2063C10.9438 12.4035 10.9438 12.7167 10.7466 12.9139L10.0395 12.2068L9.33242 11.4997C8.74857 12.0835 8.74857 13.0367 9.33242 13.6205L10.0395 12.9134ZM10.0395 12.2068L10.7466 12.9139C10.5494 13.1111 10.2363 13.1111 10.0391 12.9139L10.7462 12.2068L11.4533 11.4997C10.8694 10.9158 9.91628 10.9158 9.33242 11.4997L10.0395 12.2068ZM10.7462 12.2068L10.0391 12.9139L11.9191 14.7939L12.6262 14.0868L13.3333 13.3797L11.4533 11.4997L10.7462 12.2068ZM12.6262 14.0868L11.9191 14.7939C11.7219 14.5967 11.7219 14.2835 11.9191 14.0863L12.6262 14.7934L13.3333 15.5005C13.9172 14.9167 13.9172 13.9635 13.3333 13.3797L12.6262 14.0868ZM12.6262 14.7934L11.9191 14.0863C12.0165 13.9889 12.1486 13.9401 12.2729 13.9401V14.9401V15.9401C12.6504 15.9401 13.0359 15.798 13.3333 15.5005L12.6262 14.7934Z" fill="#DA3E3E" mask="url(#path-3-inside-2_3896_8716)"/>
<path d="M8.10573 8.24658C8.08573 8.24658 8.0724 8.24658 8.0524 8.24658C8.01906 8.23992 7.9724 8.23992 7.9324 8.24658C5.99906 8.18658 4.53906 6.66658 4.53906 4.79325C4.53906 2.88659 6.0924 1.33325 7.99906 1.33325C9.90573 1.33325 11.4591 2.88659 11.4591 4.79325C11.4524 6.66658 9.98573 8.18658 8.12573 8.24658C8.11906 8.24658 8.1124 8.24658 8.10573 8.24658ZM7.99906 2.33325C6.64573 2.33325 5.53906 3.43992 5.53906 4.79325C5.53906 6.12659 6.57906 7.19992 7.90573 7.24658C7.94573 7.23992 8.0324 7.23992 8.11906 7.24658C9.42573 7.18658 10.4524 6.11325 10.4591 4.79325C10.4591 3.43992 9.3524 2.33325 7.99906 2.33325Z" fill="#DA3E3E"/>
<path d="M8.0006 15.54C6.6406 15.54 5.35393 15.1866 4.3806 14.5333C3.45393 13.9133 2.94727 13.0666 2.94727 12.1533C2.94727 11.24 3.4606 10.4 4.3806 9.78662C6.37393 8.45329 9.61393 8.45329 11.6073 9.78662C11.8339 9.93995 11.9006 10.2533 11.7473 10.48C11.5939 10.7133 11.2806 10.7733 11.0539 10.62C9.39393 9.51329 6.59393 9.51329 4.93393 10.62C4.29393 11.0466 3.94727 11.5866 3.94727 12.1533C3.94727 12.72 4.3006 13.2733 4.93393 13.7C5.7406 14.24 6.82727 14.5333 7.99393 14.5333C8.26727 14.5333 8.49393 14.76 8.49393 15.0333C8.49393 15.3066 8.27393 15.54 8.0006 15.54Z" fill="#DA3E3E"/>
</svg>
