<svg width="24" height="24" viewBox="0 0 24 24" fill="none" xmlns="http://www.w3.org/2000/svg">
<path d="M7 22H17M6 5.52941L12 4.35294L18 5.52941M6 5.52941L9 12.5882C9 13.5243 8.68393 14.422 8.12132 15.0839C7.55871 15.7458 6.79565 16.1176 6 16.1176C5.20435 16.1176 4.44129 15.7458 3.87868 15.0839C3.31607 14.422 3 13.5243 3 12.5882L6 5.52941ZM18 5.52941L21 12.5882C21 13.5243 20.6839 14.422 20.1213 15.0839C19.5587 15.7458 18.7956 16.1176 18 16.1176C17.2044 16.1176 16.4413 15.7458 15.8787 15.0839C15.3161 14.422 15 13.5243 15 12.5882L18 5.52941ZM12 2V22" stroke="black" stroke-width="1.5" stroke-linecap="round" stroke-linejoin="round"/>
</svg>
