<svg width="12" height="12" viewBox="0 0 12 12" fill="none" xmlns="http://www.w3.org/2000/svg">
<path d="M3.5 3.5H3C2.73478 3.5 2.48043 3.60536 2.29289 3.79289C2.10536 3.98043 2 4.23478 2 4.5V9C2 9.26522 2.10536 9.51957 2.29289 9.70711C2.48043 9.89464 2.73478 10 3 10H7.5C7.76522 10 8.01957 9.89464 8.20711 9.70711C8.39464 9.51957 8.5 9.26522 8.5 9V8.5" stroke="white" stroke-linecap="round" stroke-linejoin="round"/>
<path d="M8 2.50005L9.5 4.00005M10.1925 3.29255C10.3894 3.09563 10.5001 2.82855 10.5001 2.55005C10.5001 2.27156 10.3894 2.00448 10.1925 1.80755C9.99558 1.61063 9.72849 1.5 9.45 1.5C9.17151 1.5 8.90442 1.61063 8.7075 1.80755L4.5 6.00005V7.50005H6L10.1925 3.29255Z" stroke="white" stroke-linecap="round" stroke-linejoin="round"/>
</svg>
