<svg width="24" height="24" viewBox="0 0 24 24" fill="none" xmlns="http://www.w3.org/2000/svg">
<path d="M12.0005 15.6C6.81655 15.6 5.89856 10.4341 5.73656 6.33556C5.69066 5.19618 5.66816 4.62558 6.09656 4.09909C6.52405 3.5717 7.03615 3.4853 8.06123 3.3125C9.36337 3.0992 10.681 2.99474 12.0005 3.0002C13.6061 3.0002 14.9281 3.1415 15.9397 3.3125C16.9648 3.4853 17.4769 3.5717 17.9053 4.09909C18.3337 4.62648 18.3103 5.19618 18.2653 6.33556C18.1033 10.4341 17.1853 15.6 12.0014 15.6H12.0005Z" stroke="black" stroke-width="1.5"/>
<path d="M11.0996 8.40028L12.4496 7.05029V10.6502" stroke="black" stroke-width="1.5" stroke-linecap="round" stroke-linejoin="round"/>
<path d="M18.2998 5.7002L19.1539 5.98459C20.0449 6.28159 20.4904 6.43009 20.7451 6.78378C20.9998 7.13748 20.9998 7.60817 20.9998 8.54596V8.61166C20.9998 9.38565 20.9998 9.77355 20.8135 10.0903C20.6272 10.4071 20.2879 10.5952 19.6111 10.9723L16.9498 12.4501M5.69997 5.7002L4.84588 5.98459C3.95489 6.28159 3.50939 6.43009 3.2547 6.78378C3 7.13748 3 7.60817 3 8.54596V8.61166C3 9.38565 3 9.77355 3.1863 10.0903C3.3726 10.4071 3.71189 10.5952 4.38868 10.9723L7.04995 12.4501" stroke="black" stroke-width="1.5"/>
<path d="M12 15.6001V18.3001" stroke="black" stroke-width="1.5" stroke-linecap="round"/>
<path d="M15.1495 21H8.84961L9.15561 19.4736C9.19637 19.2696 9.30651 19.0861 9.4673 18.9542C9.6281 18.8223 9.82961 18.7501 10.0376 18.75H13.9615C14.1695 18.7501 14.371 18.8223 14.5318 18.9542C14.6926 19.0861 14.8028 19.2696 14.8435 19.4736L15.1495 21Z" stroke="black" stroke-width="1.5" stroke-linecap="round" stroke-linejoin="round"/>
<path d="M17.3995 21H6.59961" stroke="black" stroke-width="1.5" stroke-linecap="round"/>
</svg>
